SplineFontDB: 3.2
FontName: Gontserrat-LightItalic
FullName: Gontserrat Light Italic
FamilyName: Gontserrat
Weight: Light
Copyright: Gontserrat is a derivative work of Montserrat under the Open Font License, version 1.1. Copyright 2020 Gabriel Classon (gabeclasson.com). Montserrat copyright 2011 The Montserrat Project Authors (https://github.com/JulietaUla/Montserrat). 
Version: 6.002
ItalicAngle: -11.3
UnderlinePosition: -100
UnderlineWidth: 50
Ascent: 800
Descent: 200
InvalidEm: 0
sfntRevision: 0x00010000
LayerCount: 2
Layer: 0 1 "Back" 1
Layer: 1 1 "Fore" 0
XUID: [1021 930 -1503615855 4780]
StyleMap: 0x0001
FSType: 0
OS2Version: 4
OS2_WeightWidthSlopeOnly: 0
OS2_UseTypoMetrics: 1
CreationTime: 1485852814
ModificationTime: 1642920943
PfmFamily: 81
TTFWeight: 300
TTFWidth: 5
LineGap: 0
VLineGap: 0
Panose: 0 0 4 0 0 0 0 0 0 0
OS2TypoAscent: 968
OS2TypoAOffset: 0
OS2TypoDescent: -251
OS2TypoDOffset: 0
OS2TypoLinegap: 0
OS2WinAscent: 1177
OS2WinAOffset: 0
OS2WinDescent: 496
OS2WinDOffset: 0
HheadAscent: 968
HheadAOffset: 0
HheadDescent: -251
HheadDOffset: 0
OS2SubXSize: 650
OS2SubYSize: 600
OS2SubXOff: -15
OS2SubYOff: 75
OS2SupXSize: 650
OS2SupYSize: 600
OS2SupXOff: 70
OS2SupYOff: 350
OS2StrikeYSize: 50
OS2StrikeYPos: 314
OS2CapHeight: 700
OS2XHeight: 524
OS2Vendor: 'ULA '
OS2CodePages: 20000193.00000000
OS2UnicodeRanges: 20000007.00000001.00000000.00000000
Lookup: 1 0 0 "'rtla' Right to Left Alternates lookup 0" { "'rtla' Right to Left Alternates lookup 0 subtable"  } ['rtla' ('DFLT' <'dflt' > ) ]
Lookup: 1 0 0 "<10,2> Inferiors lookup 1" { "<10,2> Inferiors lookup 1 subtable" ("inferior") } [<10,2> ('DFLT' <'dflt' > ) 'subs' ('DFLT' <'dflt' > ) ]
Lookup: 1 0 0 "<10,1> Superiors lookup 2" { "<10,1> Superiors lookup 2 subtable" ("superior") } [<10,1> ('DFLT' <'dflt' > ) 'sups' ('DFLT' <'dflt' > ) ]
Lookup: 1 0 0 "<11,2> Diagonal Fractions lookup 3" { "<11,2> Diagonal Fractions lookup 3 subtable"  } [<11,2> ('DFLT' <'dflt' > ) 'frac' ('DFLT' <'dflt' > ) ]

StartChar: .notdef
Encoding: 65536 -1 0
Width: 587
Flags: W
LayerCount: 2
Fore
SplineSet
40 0 m 1,0,-1
 40 700 l 1,1,-1
 547 700 l 1,2,-1
 547 0 l 1,3,-1
 40 0 l 1,0,-1
120 70 m 1,4,-1
 467 70 l 1,5,-1
 467 630 l 1,6,-1
 120 630 l 1,7,-1
 120 70 l 1,4,-1
EndSplineSet
EndChar

StartChar: exclam
Encoding: 33 33 5
Width: 203
Flags: W
LayerCount: 2
Fore
SplineSet
223 687 m 1,0,-1
 190 519 l 1,1,-1
 118 205 l 1,2,-1
 72 205 l 1,3,-1
 126 519 l 1,4,-1
 159 687 l 1,5,-1
 223 687 l 1,0,-1
97.5 72.5 m 128,-1,7
 109 61 109 61 109 42 c 0,8,9
 109 22 109 22 94.5 7 c 128,-1,10
 80 -8 80 -8 60 -8 c 0,11,12
 42 -8 42 -8 31 3.5 c 128,-1,13
 20 15 20 15 20 34 c 0,14,15
 20 55 20 55 34 69.5 c 128,-1,16
 48 84 48 84 68 84 c 0,17,6
 86 84 86 84 97.5 72.5 c 128,-1,7
EndSplineSet
Substitution2: "<3,3> Small Caps in Latin lookup 11 subtable" exclam.sc
EndChar

StartChar: numbersign
Encoding: 35 35 7
Width: 684
Flags: W
LayerCount: 2
Fore
SplineSet
684 451 m 1,0,-1
 537 451 l 1,1,-1
 493 243 l 1,2,-1
 637 243 l 1,3,-1
 629 191 l 1,4,-1
 482 191 l 1,5,-1
 442 0 l 1,6,-1
 390 0 l 1,7,-1
 430 191 l 1,8,-1
 221 191 l 1,9,-1
 181 0 l 1,10,-1
 129 0 l 1,11,-1
 169 191 l 1,12,-1
 25 191 l 1,13,-1
 33 243 l 1,14,-1
 180 243 l 1,15,-1
 224 451 l 1,16,-1
 80 451 l 1,17,-1
 88 504 l 1,18,-1
 235 504 l 1,19,-1
 276 700 l 1,20,-1
 329 700 l 1,21,-1
 288 504 l 1,22,-1
 497 504 l 1,23,-1
 538 700 l 1,24,-1
 590 700 l 1,25,-1
 549 504 l 1,26,-1
 692 504 l 1,27,-1
 684 451 l 1,0,-1
441 243 m 1,28,-1
 485 451 l 1,29,-1
 276 451 l 1,30,-1
 232 243 l 1,31,-1
 441 243 l 1,28,-1
EndSplineSet
EndChar

StartChar: dollar
Encoding: 36 36 8
Width: 603
Flags: W
LayerCount: 2
Fore
SplineSet
222.5 609 m 128,-1,1
 176 581 176 581 172 533 c 2,2,-1
 171 519 l 2,3,4
 171 482 171 482 192 458 c 128,-1,5
 213 434 213 434 244.5 420 c 128,-1,6
 276 406 276 406 331 388 c 0,7,8
 394 368 394 368 433 349.5 c 128,-1,9
 472 331 472 331 499 296.5 c 128,-1,10
 526 262 526 262 526 207 c 0,11,12
 526 191 526 191 525 183 c 0,13,14
 520 127 520 127 484 85 c 128,-1,15
 448 43 448 43 389.5 19.5 c 128,-1,16
 331 -4 331 -4 257 -4 c 1,17,-1
 233 -130 l 1,18,-1
 179 -130 l 1,19,-1
 204 0 l 1,20,21
 145 8 145 8 92 35 c 128,-1,22
 39 62 39 62 1 101 c 1,23,-1
 40 160 l 1,24,25
 81 114 81 114 141 88 c 128,-1,26
 201 62 201 62 262 62 c 0,27,28
 348 62 348 62 399 98 c 128,-1,29
 450 134 450 134 450 195 c 0,30,31
 450 233 450 233 428.5 258 c 128,-1,32
 407 283 407 283 375 297 c 128,-1,33
 343 311 343 311 287 329 c 0,34,35
 223 350 223 350 185.5 367.5 c 128,-1,36
 148 385 148 385 121 418.5 c 128,-1,37
 94 452 94 452 94 506 c 0,38,39
 94 564 94 564 125.5 608.5 c 128,-1,40
 157 653 157 653 213.5 678 c 128,-1,41
 270 703 270 703 344 704 c 1,42,-1
 366 818 l 1,43,-1
 420 818 l 1,44,-1
 398 701 l 1,45,46
 444 696 444 696 487.5 680 c 128,-1,47
 531 664 531 664 563 641 c 1,48,-1
 527 581 l 1,49,50
 487 609 487 609 437.5 623 c 128,-1,51
 388 637 388 637 342 637 c 0,52,0
 269 637 269 637 222.5 609 c 128,-1,1
EndSplineSet
EndChar

StartChar: ampersand
Encoding: 38 38 10
Width: 655
Flags: W
LayerCount: 2
Fore
SplineSet
562 -9 m 1,0,-1
 462 106 l 1,1,2
 408 53 408 53 350.5 25 c 128,-1,3
 293 -3 293 -3 235 -3 c 0,4,5
 180 -3 180 -3 136.5 19 c 128,-1,6
 93 41 93 41 68 80 c 128,-1,7
 43 119 43 119 43 168 c 0,8,9
 43 244 43 244 93.5 293.5 c 128,-1,10
 144 343 144 343 234 389 c 1,11,12
 207 430 207 430 195.5 463.5 c 128,-1,13
 184 497 184 497 184 530 c 2,14,-1
 185 548 l 2,15,16
 188 592 188 592 212.5 627 c 128,-1,17
 237 662 237 662 278.5 682 c 128,-1,18
 320 702 320 702 370 702 c 0,19,20
 435 702 435 702 473.5 668.5 c 128,-1,21
 512 635 512 635 512 580 c 0,22,23
 512 530 512 530 484.5 493 c 128,-1,24
 457 456 457 456 416.5 430 c 128,-1,25
 376 404 376 404 309 371 c 1,26,27
 355 307 355 307 461 186 c 1,28,29
 512 248 512 248 554 328 c 1,30,-1
 598 290 l 1,31,32
 547 201 547 201 497 144 c 1,33,-1
 601 26 l 1,34,-1
 562 -9 l 1,0,-1
246 481.5 m 128,-1,36
 255 451 255 451 281 412 c 1,37,38
 339 440 339 440 374.5 462 c 128,-1,39
 410 484 410 484 433.5 513.5 c 128,-1,40
 457 543 457 543 457 581 c 0,41,42
 457 616 457 616 434 636.5 c 128,-1,43
 411 657 411 657 370 657 c 0,44,45
 317 657 317 657 279.5 624 c 128,-1,46
 242 591 242 591 239 542 c 0,47,35
 237 512 237 512 246 481.5 c 128,-1,36
426 147 m 1,49,50
 311 281 311 281 262 348 c 1,51,52
 185 309 185 309 143.5 268.5 c 128,-1,53
 102 228 102 228 102 170 c 0,54,55
 102 117 102 117 139.5 84 c 128,-1,56
 177 51 177 51 237 51 c 0,57,48
 332 51 332 51 426 147 c 1,49,50
EndSplineSet
Substitution2: "<3,3> Small Caps in Latin lookup 11 subtable" ampersand.sc
EndChar

StartChar: quotesingle
Encoding: 39 39 11
Width: 175
Flags: W
LayerCount: 2
Fore
SplineSet
202 700 m 1,0,-1
 159 482 l 1,1,-1
 105 482 l 1,2,-1
 148 700 l 1,3,-1
 202 700 l 1,0,-1
EndSplineSet
Substitution2: "<3,3> Small Caps in Latin lookup 11 subtable" quotesingle.sc
EndChar

StartChar: parenleft
Encoding: 40 40 12
Width: 297
Flags: W
LayerCount: 2
Fore
SplineSet
240.5 543 m 128,-1,1
 188 430 188 430 162 303 c 0,2,3
 143 211 143 211 143 120 c 0,4,5
 143 -22 143 -22 190 -124 c 1,6,-1
 132 -124 l 1,7,8
 81 -18 81 -18 81 131 c 0,9,10
 81 221 81 221 100 315 c 0,11,12
 125 439 125 439 177.5 550 c 128,-1,13
 230 661 230 661 303 742 c 1,14,-1
 365 742 l 1,15,0
 293 656 293 656 240.5 543 c 128,-1,1
EndSplineSet
Substitution2: "'rtla' Right to Left Alternates lookup 0 subtable" parenright
EndChar

StartChar: parenright
Encoding: 41 41 13
Width: 311
Flags: W
LayerCount: 2
Fore
SplineSet
127.5 74 m 128,-1,1
 180 187 180 187 206 314 c 0,2,3
 225 406 225 406 225 497 c 0,4,5
 225 639 225 639 178 741 c 1,6,-1
 236 741 l 1,7,8
 287 635 287 635 287 486 c 0,9,10
 287 396 287 396 268 302 c 0,11,12
 243 178 243 178 190.5 67 c 128,-1,13
 138 -44 138 -44 65 -125 c 1,14,-1
 3 -125 l 1,15,0
 75 -39 75 -39 127.5 74 c 128,-1,1
EndSplineSet
Substitution2: "'rtla' Right to Left Alternates lookup 0 subtable" parenleft
EndChar

StartChar: asterisk
Encoding: 42 42 14
Width: 344
Flags: W
LayerCount: 2
Fore
SplineSet
350 487 m 1,0,-1
 255 543 l 1,1,-1
 255 433 l 1,2,-1
 216 433 l 1,3,-1
 217 543 l 1,4,-1
 121 487 l 1,5,-1
 102 523 l 1,6,-1
 197 577 l 1,7,-1
 102 631 l 1,8,-1
 121 668 l 1,9,-1
 216 612 l 1,10,-1
 216 722 l 1,11,-1
 255 722 l 1,12,-1
 255 612 l 1,13,-1
 350 668 l 1,14,-1
 369 631 l 1,15,-1
 273 577 l 1,16,-1
 369 523 l 1,17,-1
 350 487 l 1,0,-1
EndSplineSet
EndChar

StartChar: plus
Encoding: 43 43 15
Width: 489
Flags: W
LayerCount: 2
Fore
SplineSet
468 347 m 1,0,-1
 459 297 l 1,1,-1
 275 297 l 1,2,-1
 239 115 l 1,3,-1
 191 115 l 1,4,-1
 227 297 l 1,5,-1
 45 297 l 1,6,-1
 54 347 l 1,7,-1
 237 347 l 1,8,-1
 274 530 l 1,9,-1
 322 530 l 1,10,-1
 285 347 l 1,11,-1
 468 347 l 1,0,-1
EndSplineSet
EndChar

StartChar: comma
Encoding: 44 44 16
Width: 184
Flags: W
LayerCount: 2
Fore
SplineSet
78 71 m 128,-1,1
 90 60 90 60 90 43 c 0,2,3
 90 31 90 31 86.5 23 c 128,-1,4
 83 15 83 15 74 -1 c 2,5,-1
 14 -110 l 1,6,-1
 -26 -110 l 1,7,-1
 23 -2 l 1,8,9
 2 10 2 10 2 35 c 0,10,11
 2 54 2 54 16 68 c 128,-1,12
 30 82 30 82 50 82 c 0,13,0
 66 82 66 82 78 71 c 128,-1,1
EndSplineSet
EndChar

StartChar: hyphen
Encoding: 45 45 17
Width: 363
Flags: W
LayerCount: 2
Fore
SplineSet
310 327 m 1,0,-1
 300 277 l 1,1,-1
 69 277 l 1,2,-1
 79 327 l 1,3,-1
 310 327 l 1,0,-1
EndSplineSet
EndChar

StartChar: period
Encoding: 46 46 18
Width: 196
Flags: W
LayerCount: 2
Fore
SplineSet
86.5 72.5 m 128,-1,1
 98 61 98 61 98 42 c 0,2,3
 98 22 98 22 83.5 7 c 128,-1,4
 69 -8 69 -8 49 -8 c 0,5,6
 31 -8 31 -8 20 3.5 c 128,-1,7
 9 15 9 15 9 34 c 0,8,9
 9 55 9 55 23 69.5 c 128,-1,10
 37 84 37 84 57 84 c 0,11,0
 75 84 75 84 86.5 72.5 c 128,-1,1
EndSplineSet
Substitution2: "<3,3> Small Caps in Latin lookup 11 subtable" period.sc
EndChar

StartChar: slash
Encoding: 47 47 19
Width: 333
Flags: W
LayerCount: 2
Fore
SplineSet
407 821 m 1,0,-1
 20 -124 l 1,1,-1
 -40 -124 l 1,2,-1
 347 821 l 1,3,-1
 407 821 l 1,0,-1
EndSplineSet
Substitution2: "<11,2> Diagonal Fractions lookup 3 subtable" fraction
EndChar

StartChar: zero
Encoding: 48 48 20
Width: 797
Flags: W
LayerCount: 2
Fore
SplineSet
656 635.5 m 128,-1,1
 715 568 715 568 715 443 c 0,2,3
 715 310 715 310 671 209 c 128,-1,4
 627 108 627 108 544.5 52 c 128,-1,5
 462 -4 462 -4 348 -4 c 0,6,7
 236 -4 236 -4 176.5 63.5 c 128,-1,8
 117 131 117 131 117 256 c 0,9,10
 117 389 117 389 161 490 c 128,-1,11
 205 591 205 591 288 647 c 128,-1,12
 371 703 371 703 485 703 c 0,13,0
 597 703 597 703 656 635.5 c 128,-1,1
317.5 597.5 m 128,-1,15
 253 548 253 548 220.5 460.5 c 128,-1,16
 188 373 188 373 188 260 c 0,17,18
 188 159 188 159 231 106 c 128,-1,19
 274 53 274 53 358 53 c 0,20,21
 450 53 450 53 514.5 102.5 c 128,-1,22
 579 152 579 152 612 239.5 c 128,-1,23
 645 327 645 327 645 440 c 0,24,25
 645 541 645 541 601.5 594 c 128,-1,26
 558 647 558 647 474 647 c 0,27,14
 382 647 382 647 317.5 597.5 c 128,-1,15
EndSplineSet
Substitution2: "<21,0> Lower Case Numbers lookup 10 subtable" zero.osf
Substitution2: "<6,0> Monospaced Numbers lookup 9 subtable" zero.tf
Substitution2: "<11,2> Diagonal Fractions lookup 4 subtable" zero.numr
Substitution2: "<10,1> Superiors lookup 2 subtable" uni2070
Substitution2: "<10,2> Inferiors lookup 1 subtable" uni2080
EndChar

StartChar: one
Encoding: 49 49 21
Width: 431
Flags: W
LayerCount: 2
Fore
SplineSet
129 700 m 1,0,-1
 367 700 l 1,1,-1
 231 0 l 1,2,-1
 162 0 l 1,3,-1
 287 637 l 1,4,-1
 118 637 l 1,5,-1
 129 700 l 1,0,-1
EndSplineSet
Substitution2: "<21,0> Lower Case Numbers lookup 10 subtable" one.osf
Substitution2: "<6,0> Monospaced Numbers lookup 9 subtable" one.tf
Substitution2: "<11,2> Diagonal Fractions lookup 4 subtable" one.numr
Substitution2: "<10,1> Superiors lookup 2 subtable" uni00B9
Substitution2: "<10,2> Inferiors lookup 1 subtable" uni2081
EndChar

StartChar: two
Encoding: 50 50 22
Width: 638
Flags: W
LayerCount: 2
Fore
SplineSet
405 307 m 2,1,-1
 123 63 l 1,2,-1
 530 63 l 1,3,-1
 518 0 l 1,4,-1
 22 0 l 1,5,-1
 33 58 l 1,6,-1
 365 345 l 2,7,8
 428 399 428 399 465.5 448.5 c 128,-1,9
 503 498 503 498 506 536 c 0,10,11
 510 586 510 586 474.5 614 c 128,-1,12
 439 642 439 642 372 642 c 0,13,14
 322 642 322 642 264.5 619 c 128,-1,15
 207 596 207 596 156 556 c 1,16,-1
 135 608 l 1,17,18
 195 653 195 653 262 678 c 128,-1,19
 329 703 329 703 392 703 c 0,20,21
 480 703 480 703 530 666 c 128,-1,22
 580 629 580 629 580 565 c 0,23,24
 580 552 580 552 579 546 c 0,25,0
 569 448 569 448 405 307 c 2,1,-1
EndSplineSet
Substitution2: "<21,0> Lower Case Numbers lookup 10 subtable" two.osf
Substitution2: "<6,0> Monospaced Numbers lookup 9 subtable" two.tf
Substitution2: "<11,2> Diagonal Fractions lookup 4 subtable" two.numr
Substitution2: "<10,1> Superiors lookup 2 subtable" uni00B2
Substitution2: "<10,2> Inferiors lookup 1 subtable" uni2082
EndChar

StartChar: three
Encoding: 51 51 23
Width: 648
Flags: W
LayerCount: 2
Fore
SplineSet
604 654 m 1,0,-1
 306 402 l 1,1,-1
 349 400 l 2,2,3
 446 396 446 396 502 355 c 128,-1,4
 558 314 558 314 558 243 c 0,5,6
 558 173 558 173 518 117 c 128,-1,7
 478 61 478 61 406.5 28.5 c 128,-1,8
 335 -4 335 -4 244 -4 c 0,9,10
 180 -4 180 -4 120.5 14.5 c 128,-1,11
 61 33 61 33 19 64 c 1,12,-1
 60 119 l 1,13,14
 96 89 96 89 146 72.5 c 128,-1,15
 196 56 196 56 251 56 c 0,16,17
 322 56 322 56 376 79 c 128,-1,18
 430 102 430 102 459.5 142.5 c 128,-1,19
 489 183 489 183 489 234 c 0,20,21
 489 291 489 291 442 321.5 c 128,-1,22
 395 352 395 352 307 352 c 2,23,-1
 217 352 l 1,24,-1
 225 398 l 1,25,-1
 510 637 l 1,26,-1
 164 637 l 1,27,-1
 175 700 l 1,28,-1
 613 700 l 1,29,-1
 604 654 l 1,0,-1
EndSplineSet
Substitution2: "<21,0> Lower Case Numbers lookup 10 subtable" three.osf
Substitution2: "<6,0> Monospaced Numbers lookup 9 subtable" three.tf
Substitution2: "<11,2> Diagonal Fractions lookup 4 subtable" three.numr
Substitution2: "<10,1> Superiors lookup 2 subtable" uni00B3
Substitution2: "<10,2> Inferiors lookup 1 subtable" uni2083
EndChar

StartChar: four
Encoding: 52 52 24
Width: 652
Flags: W
LayerCount: 2
Fore
SplineSet
592 253 m 1,0,-1
 580 190 l 1,1,-1
 468 190 l 1,2,-1
 431 0 l 1,3,-1
 366 0 l 1,4,-1
 403 190 l 1,5,-1
 49 190 l 1,6,-1
 60 246 l 1,7,-1
 413 700 l 1,8,-1
 481 700 l 1,9,-1
 136 253 l 1,10,-1
 415 253 l 1,11,-1
 453 448 l 1,12,-1
 518 448 l 1,13,-1
 480 253 l 1,14,-1
 592 253 l 1,0,-1
EndSplineSet
Substitution2: "<21,0> Lower Case Numbers lookup 10 subtable" four.osf
Substitution2: "<6,0> Monospaced Numbers lookup 9 subtable" four.tf
Substitution2: "<11,2> Diagonal Fractions lookup 4 subtable" four.numr
Substitution2: "<10,1> Superiors lookup 2 subtable" uni2074
Substitution2: "<10,2> Inferiors lookup 1 subtable" uni2084
EndChar

StartChar: five
Encoding: 53 53 25
Width: 684
Flags: W
LayerCount: 2
Fore
SplineSet
280 637 m 1,0,-1
 237 419 l 1,1,2
 268 424 268 424 306.5 427.5 c 128,-1,3
 345 431 345 431 374 431 c 0,4,5
 474 431 474 431 532 383.5 c 128,-1,6
 590 336 590 336 590 258 c 0,7,8
 590 184 590 184 551 124 c 128,-1,9
 512 64 512 64 442 30 c 128,-1,10
 372 -4 372 -4 284 -4 c 0,11,12
 224 -4 224 -4 161.5 16.5 c 128,-1,13
 99 37 99 37 53 71 c 1,14,-1
 92 126 l 1,15,16
 133 94 133 94 185.5 76 c 128,-1,17
 238 58 238 58 290 58 c 0,18,19
 356 58 356 58 407 82 c 128,-1,20
 458 106 458 106 487 149 c 128,-1,21
 516 192 516 192 516 246 c 0,22,23
 516 303 516 303 472 335.5 c 128,-1,24
 428 368 428 368 348 368 c 0,25,26
 311 368 311 368 254.5 362 c 128,-1,27
 198 356 198 356 158 346 c 1,28,-1
 226 700 l 1,29,-1
 650 700 l 1,30,-1
 638 637 l 1,31,-1
 280 637 l 1,0,-1
EndSplineSet
Substitution2: "<21,0> Lower Case Numbers lookup 10 subtable" five.osf
Substitution2: "<6,0> Monospaced Numbers lookup 9 subtable" five.tf
Substitution2: "<11,2> Diagonal Fractions lookup 4 subtable" five.numr
Substitution2: "<10,1> Superiors lookup 2 subtable" uni2075
Substitution2: "<10,2> Inferiors lookup 1 subtable" uni2085
EndChar

StartChar: six
Encoding: 54 54 26
Width: 715
Flags: W
LayerCount: 2
Fore
SplineSet
173.5 62.5 m 128,-1,1
 114 129 114 129 114 249 c 0,2,3
 114 375 114 375 160.5 479 c 128,-1,4
 207 583 207 583 288.5 643 c 128,-1,5
 370 703 370 703 470 703 c 0,6,7
 519 703 519 703 572 689 c 128,-1,8
 625 675 625 675 666 650 c 1,9,-1
 628 596 l 1,10,11
 595 618 595 618 551.5 631 c 128,-1,12
 508 644 508 644 466 644 c 0,13,14
 352 644 352 644 279 554 c 128,-1,15
 206 464 206 464 188 307 c 1,16,17
 222 373 222 373 282 409 c 128,-1,18
 342 445 342 445 420 445 c 0,19,20
 513 445 513 445 565.5 396.5 c 128,-1,21
 618 348 618 348 618 266 c 0,22,23
 618 187 618 187 582.5 125.5 c 128,-1,24
 547 64 547 64 484.5 30 c 128,-1,25
 422 -4 422 -4 343 -4 c 0,26,0
 233 -4 233 -4 173.5 62.5 c 128,-1,1
452.5 82 m 128,-1,28
 499 107 499 107 525 152 c 128,-1,29
 551 197 551 197 551 255 c 0,30,31
 551 316 551 316 511 352.5 c 128,-1,32
 471 389 471 389 402 389 c 0,33,34
 346 389 346 389 298.5 364.5 c 128,-1,35
 251 340 251 340 222 299.5 c 128,-1,36
 193 259 193 259 190 211 c 0,37,38
 186 170 186 170 204 134.5 c 128,-1,39
 222 99 222 99 259 78 c 128,-1,40
 296 57 296 57 348 57 c 0,41,27
 406 57 406 57 452.5 82 c 128,-1,28
EndSplineSet
Substitution2: "<21,0> Lower Case Numbers lookup 10 subtable" six.osf
Substitution2: "<6,0> Monospaced Numbers lookup 9 subtable" six.tf
Substitution2: "<11,2> Diagonal Fractions lookup 4 subtable" six.numr
Substitution2: "<10,1> Superiors lookup 2 subtable" uni2076
Substitution2: "<10,2> Inferiors lookup 1 subtable" uni2086
EndChar

StartChar: seven
Encoding: 55 55 27
Width: 629
Flags: W
LayerCount: 2
Fore
SplineSet
149 700 m 1,0,-1
 662 700 l 1,1,-1
 652 643 l 1,2,-1
 208 0 l 1,3,-1
 134 0 l 1,4,-1
 576 637 l 1,5,-1
 201 637 l 1,6,-1
 179 532 l 1,7,-1
 117 532 l 1,8,-1
 149 700 l 1,0,-1
EndSplineSet
Substitution2: "<21,0> Lower Case Numbers lookup 10 subtable" seven.osf
Substitution2: "<6,0> Monospaced Numbers lookup 9 subtable" seven.tf
Substitution2: "<11,2> Diagonal Fractions lookup 4 subtable" seven.numr
Substitution2: "<10,1> Superiors lookup 2 subtable" uni2077
Substitution2: "<10,2> Inferiors lookup 1 subtable" uni2087
EndChar

StartChar: eight
Encoding: 56 56 28
Width: 716
Flags: W
LayerCount: 2
Fore
SplineSet
585.5 664.5 m 128,-1,1
 636 626 636 626 636 559 c 0,2,3
 636 494 636 494 596.5 447 c 128,-1,4
 557 400 557 400 486 375 c 1,5,6
 542 358 542 358 573.5 319 c 128,-1,7
 605 280 605 280 605 226 c 0,8,9
 605 157 605 157 567.5 105 c 128,-1,10
 530 53 530 53 462.5 24.5 c 128,-1,11
 395 -4 395 -4 307 -4 c 0,12,13
 203 -4 203 -4 144.5 40 c 128,-1,14
 86 84 86 84 86 162 c 0,15,16
 86 241 86 241 137.5 296 c 128,-1,17
 189 351 189 351 278 375 c 1,18,19
 234 392 234 392 209.5 425.5 c 128,-1,20
 185 459 185 459 185 504 c 0,21,22
 185 563 185 563 217.5 608.5 c 128,-1,23
 250 654 250 654 308.5 678.5 c 128,-1,24
 367 703 367 703 444 703 c 0,25,0
 535 703 535 703 585.5 664.5 c 128,-1,1
296.5 611 m 128,-1,27
 245 571 245 571 245 503 c 0,28,29
 245 454 245 454 281.5 426 c 128,-1,30
 318 398 318 398 385 398 c 0,31,32
 472 398 472 398 523 438.5 c 128,-1,33
 574 479 574 479 574 547 c 0,34,35
 574 596 574 596 537.5 623.5 c 128,-1,36
 501 651 501 651 434 651 c 0,37,26
 348 651 348 651 296.5 611 c 128,-1,27
213.5 297.5 m 128,-1,39
 153 252 153 252 153 176 c 0,40,41
 153 118 153 118 196 85.5 c 128,-1,42
 239 53 239 53 317 53 c 0,43,44
 418 53 418 53 478.5 99.5 c 128,-1,45
 539 146 539 146 539 224 c 0,46,47
 539 279 539 279 496 311 c 128,-1,48
 453 343 453 343 374 343 c 0,49,38
 274 343 274 343 213.5 297.5 c 128,-1,39
EndSplineSet
Substitution2: "<21,0> Lower Case Numbers lookup 10 subtable" eight.osf
Substitution2: "<6,0> Monospaced Numbers lookup 9 subtable" eight.tf
Substitution2: "<11,2> Diagonal Fractions lookup 4 subtable" eight.numr
Substitution2: "<10,1> Superiors lookup 2 subtable" uni2078
Substitution2: "<10,2> Inferiors lookup 1 subtable" uni2088
EndChar

StartChar: nine
Encoding: 57 57 29
Width: 713
Flags: W
LayerCount: 2
Fore
SplineSet
197.5 68 m 128,-1,1
 241 55 241 55 283 55 c 0,2,3
 396 55 396 55 469 145.5 c 128,-1,4
 542 236 542 236 560 393 c 1,5,6
 526 326 526 326 466 290.5 c 128,-1,7
 406 255 406 255 328 255 c 0,8,9
 236 255 236 255 184 303 c 128,-1,10
 132 351 132 351 132 434 c 0,11,12
 132 512 132 512 167 573.5 c 128,-1,13
 202 635 202 635 264 669 c 128,-1,14
 326 703 326 703 405 703 c 0,15,16
 515 703 515 703 574.5 637 c 128,-1,17
 634 571 634 571 634 451 c 0,18,19
 634 324 634 324 587.5 220 c 128,-1,20
 541 116 541 116 459.5 56 c 128,-1,21
 378 -4 378 -4 279 -4 c 0,22,23
 230 -4 230 -4 177 10.5 c 128,-1,24
 124 25 124 25 83 50 c 1,25,-1
 121 103 l 1,26,0
 154 81 154 81 197.5 68 c 128,-1,1
296.5 617 m 128,-1,28
 250 592 250 592 224 547 c 128,-1,29
 198 502 198 502 198 444 c 0,30,31
 198 383 198 383 238 347 c 128,-1,32
 278 311 278 311 347 311 c 0,33,34
 403 311 403 311 450 335 c 128,-1,35
 497 359 497 359 526 400 c 128,-1,36
 555 441 555 441 558 488 c 0,37,38
 562 529 562 529 544.5 564.5 c 128,-1,39
 527 600 527 600 490 621 c 128,-1,40
 453 642 453 642 401 642 c 0,41,27
 343 642 343 642 296.5 617 c 128,-1,28
EndSplineSet
Substitution2: "<21,0> Lower Case Numbers lookup 10 subtable" nine.osf
Substitution2: "<6,0> Monospaced Numbers lookup 9 subtable" nine.tf
Substitution2: "<11,2> Diagonal Fractions lookup 4 subtable" nine.numr
Substitution2: "<10,1> Superiors lookup 2 subtable" uni2079
Substitution2: "<10,2> Inferiors lookup 1 subtable" uni2089
EndChar

StartChar: less
Encoding: 60 60 32
Width: 490
Flags: W
LayerCount: 2
Fore
SplineSet
508 544 m 1,0,-1
 498 486 l 1,1,-1
 99 324 l 1,2,-1
 432 162 l 1,3,-1
 422 109 l 1,4,-1
 46 295 l 1,5,-1
 57 359 l 1,6,-1
 508 544 l 1,0,-1
EndSplineSet
Substitution2: "'rtla' Right to Left Alternates lookup 0 subtable" greater
EndChar

StartChar: equal
Encoding: 61 61 33
Width: 490
Flags: W
LayerCount: 2
Fore
SplineSet
489 449 m 1,0,-1
 480 400 l 1,1,-1
 66 400 l 1,2,-1
 75 449 l 1,3,-1
 489 449 l 1,0,-1
448 244 m 1,4,-1
 439 195 l 1,5,-1
 25 195 l 1,6,-1
 34 244 l 1,7,-1
 448 244 l 1,4,-1
EndSplineSet
EndChar

StartChar: greater
Encoding: 62 62 34
Width: 491
Flags: W
LayerCount: 2
Fore
SplineSet
9 112 m 1,0,-1
 19 170 l 1,1,-1
 418 332 l 1,2,-1
 85 494 l 1,3,-1
 95 547 l 1,4,-1
 471 361 l 1,5,-1
 460 297 l 1,6,-1
 9 112 l 1,0,-1
EndSplineSet
Substitution2: "'rtla' Right to Left Alternates lookup 0 subtable" less
EndChar

StartChar: question
Encoding: 63 63 35
Width: 421
Flags: W
LayerCount: 2
Fore
SplineSet
124.5 641.5 m 128,-1,1
 179 687 179 687 264 687 c 0,2,3
 344 687 344 687 390.5 647 c 128,-1,4
 437 607 437 607 437 537 c 0,5,6
 437 499 437 499 423 468 c 128,-1,7
 409 437 409 437 389 413.5 c 128,-1,8
 369 390 369 390 335 358 c 0,9,10
 291 314 291 314 270 285 c 128,-1,11
 249 256 249 256 246 217 c 1,12,-1
 192 217 l 1,13,14
 196 268 196 268 220.5 304.5 c 128,-1,15
 245 341 245 341 289 384 c 0,16,17
 332 427 332 427 352.5 458 c 128,-1,18
 373 489 373 489 373 531 c 0,19,20
 373 578 373 578 343 603 c 128,-1,21
 313 628 313 628 257 628 c 0,22,23
 196 628 196 628 159.5 599 c 128,-1,24
 123 570 123 570 113 515 c 1,25,-1
 58 516 l 1,26,0
 70 596 70 596 124.5 641.5 c 128,-1,1
235.5 72.5 m 128,-1,28
 247 61 247 61 247 42 c 0,29,30
 247 22 247 22 232.5 7 c 128,-1,31
 218 -8 218 -8 198 -8 c 0,32,33
 180 -8 180 -8 169 3.5 c 128,-1,34
 158 15 158 15 158 34 c 0,35,36
 158 55 158 55 172 69.5 c 128,-1,37
 186 84 186 84 206 84 c 0,38,27
 224 84 224 84 235.5 72.5 c 128,-1,28
EndSplineSet
Substitution2: "<3,3> Small Caps in Latin lookup 11 subtable" question.sc
EndChar

StartChar: at
Encoding: 64 64 36
Width: 995
Flags: W
LayerCount: 2
Fore
SplineSet
769 662.5 m 128,-1,1
 858 614 858 614 907 527.5 c 128,-1,2
 956 441 956 441 956 330 c 0,3,4
 956 238 956 238 927.5 163.5 c 128,-1,5
 899 89 899 89 850.5 46.5 c 128,-1,6
 802 4 802 4 744 4 c 0,7,8
 700 4 700 4 676 29 c 128,-1,9
 652 54 652 54 653 99 c 2,10,-1
 657 141 l 1,11,12
 620 84 620 84 562.5 52.5 c 128,-1,13
 505 21 505 21 439 21 c 0,14,15
 379 21 379 21 330.5 47.5 c 128,-1,16
 282 74 282 74 255 122 c 128,-1,17
 228 170 228 170 228 232 c 0,18,19
 228 309 228 309 264 374.5 c 128,-1,20
 300 440 300 440 363 478.5 c 128,-1,21
 426 517 426 517 502 517 c 0,22,23
 571 517 571 517 620 483.5 c 128,-1,24
 669 450 669 450 682 404 c 1,25,-1
 697 511 l 1,26,-1
 761 511 l 1,27,-1
 707 123 l 2,28,29
 706 117 706 117 706 105 c 0,30,31
 706 79 706 79 719 65 c 128,-1,32
 732 51 732 51 756 51 c 0,33,34
 793 51 793 51 827 88 c 128,-1,35
 861 125 861 125 882 187.5 c 128,-1,36
 903 250 903 250 903 323 c 0,37,38
 903 421 903 421 861 497 c 128,-1,39
 819 573 819 573 741.5 616 c 128,-1,40
 664 659 664 659 560 659 c 0,41,42
 436 659 436 659 328.5 598.5 c 128,-1,43
 221 538 221 538 157.5 435.5 c 128,-1,44
 94 333 94 333 94 212 c 0,45,46
 94 117 94 117 137 43.5 c 128,-1,47
 180 -30 180 -30 258 -71 c 128,-1,48
 336 -112 336 -112 437 -112 c 0,49,50
 481 -112 481 -112 535 -98 c 128,-1,51
 589 -84 589 -84 630 -60 c 1,52,-1
 648 -107 l 1,53,54
 606 -133 606 -133 544.5 -149 c 128,-1,55
 483 -165 483 -165 430 -165 c 0,56,57
 316 -165 316 -165 227.5 -117.5 c 128,-1,58
 139 -70 139 -70 90 14.5 c 128,-1,59
 41 99 41 99 41 206 c 0,60,61
 41 344 41 344 112 460 c 128,-1,62
 183 576 183 576 303.5 643.5 c 128,-1,63
 424 711 424 711 565 711 c 0,64,0
 680 711 680 711 769 662.5 c 128,-1,1
401 426 m 128,-1,66
 353 397 353 397 325 348 c 128,-1,67
 297 299 297 299 297 241 c 0,68,69
 297 171 297 171 339.5 126.5 c 128,-1,70
 382 82 382 82 452 82 c 0,71,72
 510 82 510 82 558 111.5 c 128,-1,73
 606 141 606 141 634 191 c 128,-1,74
 662 241 662 241 662 299 c 0,75,76
 662 368 662 368 619 411.5 c 128,-1,77
 576 455 576 455 505 455 c 0,78,65
 449 455 449 455 401 426 c 128,-1,66
EndSplineSet
EndChar

StartChar: A
Encoding: 65 65 37
Width: 712
Flags: W
LayerCount: 2
Fore
SplineSet
580 0 m 1,0,-1
 528 186 l 1,1,-1
 139 186 l 1,2,-1
 26 0 l 1,3,-1
 -47 0 l 1,4,-1
 383 700 l 1,5,-1
 455 700 l 1,6,-1
 654 0 l 1,7,-1
 580 0 l 1,0,-1
176 248 m 1,8,-1
 511 248 l 1,9,-1
 405 627 l 1,10,-1
 176 248 l 1,8,-1
EndSplineSet
Substitution2: "<11,2> Diagonal Fractions lookup 7 nested-substitutions 0 subtable" ordfeminine
Substitution2: "<11,2> Diagonal Fractions lookup 5 nested-substitutions 0 subtable" ordfeminine
EndChar

StartChar: B
Encoding: 66 66 38
Width: 721
Flags: W
LayerCount: 2
Fore
SplineSet
614.5 319 m 128,-1,1
 649 281 649 281 649 223 c 0,2,3
 649 155 649 155 613 104.5 c 128,-1,4
 577 54 577 54 510 27 c 128,-1,5
 443 0 443 0 354 0 c 2,6,-1
 58 0 l 1,7,-1
 198 700 l 1,8,-1
 490 700 l 2,9,10
 582 700 582 700 632.5 662 c 128,-1,11
 683 624 683 624 683 556 c 0,12,13
 683 484 683 484 638 432.5 c 128,-1,14
 593 381 593 381 517 367 c 1,15,0
 580 357 580 357 614.5 319 c 128,-1,1
575 610 m 128,-1,17
 540 636 540 636 475 636 c 2,18,-1
 254 636 l 1,19,-1
 205 392 l 1,20,-1
 425 392 l 2,21,22
 510 392 510 392 560 431 c 128,-1,23
 610 470 610 470 610 537 c 0,24,16
 610 584 610 584 575 610 c 128,-1,17
520 104.5 m 128,-1,26
 578 146 578 146 578 219 c 0,27,28
 578 272 578 272 535.5 300.5 c 128,-1,29
 493 329 493 329 414 329 c 2,30,-1
 192 329 l 1,31,-1
 139 63 l 1,32,-1
 359 63 l 2,33,25
 462 63 462 63 520 104.5 c 128,-1,26
EndSplineSet
EndChar

StartChar: C
Encoding: 67 67 39
Width: 728
Flags: W
LayerCount: 2
Fore
SplineSet
595.5 678.5 m 128,-1,1
 659 652 659 652 705 605 c 1,2,-1
 659 556 l 1,3,4
 620 598 620 598 568 620.5 c 128,-1,5
 516 643 516 643 457 643 c 0,6,7
 371 643 371 643 296 599.5 c 128,-1,8
 221 556 221 556 176.5 482.5 c 128,-1,9
 132 409 132 409 132 322 c 0,10,11
 132 249 132 249 166.5 189 c 128,-1,12
 201 129 201 129 262 94 c 128,-1,13
 323 59 323 59 398 59 c 0,14,15
 457 59 457 59 514 81.5 c 128,-1,16
 571 104 571 104 617 144 c 1,17,-1
 655 99 l 1,18,19
 598 50 598 50 528.5 22 c 128,-1,20
 459 -6 459 -6 389 -6 c 0,21,22
 296 -6 296 -6 221.5 37 c 128,-1,23
 147 80 147 80 104.5 154 c 128,-1,24
 62 228 62 228 62 318 c 0,25,26
 62 422 62 422 117 511 c 128,-1,27
 172 600 172 600 264 652.5 c 128,-1,28
 356 705 356 705 461 705 c 0,29,0
 532 705 532 705 595.5 678.5 c 128,-1,1
EndSplineSet
EndChar

StartChar: D
Encoding: 68 68 40
Width: 795
Flags: W
LayerCount: 2
Fore
SplineSet
623.5 661.5 m 128,-1,1
 694 623 694 623 733.5 555.5 c 128,-1,2
 773 488 773 488 773 403 c 0,3,4
 773 392 773 392 771 366 c 0,5,6
 761 265 761 265 702 181 c 128,-1,7
 643 97 643 97 551 48.5 c 128,-1,8
 459 0 459 0 355 0 c 2,9,-1
 59 0 l 1,10,-1
 198 700 l 1,11,-1
 462 700 l 2,12,0
 553 700 553 700 623.5 661.5 c 128,-1,1
703 394 m 0,14,15
 703 463 703 463 670.5 518 c 128,-1,16
 638 573 638 573 581 604.5 c 128,-1,17
 524 636 524 636 452 636 c 2,18,-1
 255 636 l 1,19,-1
 140 63 l 1,20,-1
 367 63 l 2,21,22
 449 63 449 63 522.5 102.5 c 128,-1,23
 596 142 596 142 644 210.5 c 128,-1,24
 692 279 692 279 701 362 c 0,25,13
 703 384 703 384 703 394 c 0,14,15
EndSplineSet
EndChar

StartChar: E
Encoding: 69 69 41
Width: 650
Flags: W
LayerCount: 2
Fore
SplineSet
654 636 m 1,0,-1
 254 636 l 1,1,-1
 204 387 l 1,2,-1
 561 387 l 1,3,-1
 548 324 l 1,4,-1
 191 324 l 1,5,-1
 139 63 l 1,6,-1
 551 63 l 1,7,-1
 539 0 l 1,8,-1
 58 0 l 1,9,-1
 198 700 l 1,10,-1
 666 700 l 1,11,-1
 654 636 l 1,0,-1
EndSplineSet
EndChar

StartChar: F
Encoding: 70 70 42
Width: 560
Flags: W
LayerCount: 2
Fore
SplineSet
623 636 m 1,0,-1
 254 636 l 1,1,-1
 200 369 l 1,2,-1
 530 369 l 1,3,-1
 518 306 l 1,4,-1
 188 306 l 1,5,-1
 127 0 l 1,6,-1
 58 0 l 1,7,-1
 198 700 l 1,8,-1
 636 700 l 1,9,-1
 623 636 l 1,0,-1
EndSplineSet
EndChar

StartChar: G
Encoding: 71 71 43
Width: 769
Flags: W
LayerCount: 2
Fore
SplineSet
448 372 m 1,0,-1
 703 372 l 1,1,-1
 646 86 l 1,2,3
 524 -6 524 -6 391 -6 c 0,4,5
 298 -6 298 -6 222.5 37 c 128,-1,6
 147 80 147 80 104.5 154 c 128,-1,7
 62 228 62 228 62 318 c 0,8,9
 62 422 62 422 117 511 c 128,-1,10
 172 600 172 600 265 652.5 c 128,-1,11
 358 705 358 705 465 705 c 0,12,13
 536 705 536 705 599.5 680 c 128,-1,14
 663 655 663 655 708 610 c 1,15,-1
 663 561 l 1,16,17
 625 600 625 600 572 621.5 c 128,-1,18
 519 643 519 643 460 643 c 0,19,20
 373 643 373 643 297.5 599.5 c 128,-1,21
 222 556 222 556 177 482 c 128,-1,22
 132 408 132 408 132 321 c 0,23,24
 132 247 132 247 167 187 c 128,-1,25
 202 127 202 127 263.5 92 c 128,-1,26
 325 57 325 57 401 57 c 0,27,28
 498 57 498 57 590 119 c 1,29,-1
 628 308 l 1,30,-1
 436 308 l 1,31,-1
 448 372 l 1,0,-1
EndSplineSet
EndChar

StartChar: H
Encoding: 72 72 44
Width: 887
Flags: W
LayerCount: 2
Fore
SplineSet
750 700 m 1,0,-1
 819 700 l 1,1,-1
 679 0 l 1,2,-1
 610 0 l 1,3,-1
 673 316 l 1,4,-1
 236 316 l 1,5,-1
 173 0 l 1,6,-1
 104 0 l 1,7,-1
 244 700 l 1,8,-1
 313 700 l 1,9,-1
 249 379 l 1,10,-1
 686 379 l 1,11,-1
 750 700 l 1,0,-1
EndSplineSet
EndChar

StartChar: I
Encoding: 73 73 45
Width: 289
Flags: W
LayerCount: 2
Fore
SplineSet
266 700 m 1,0,-1
 126 0 l 1,1,-1
 57 0 l 1,2,-1
 197 700 l 1,3,-1
 266 700 l 1,0,-1
EndSplineSet
EndChar

StartChar: J
Encoding: 74 74 46
Width: 479
Flags: W
LayerCount: 2
Fore
SplineSet
473 700 m 1,0,-1
 375 207 l 2,1,2
 355 107 355 107 292.5 52 c 128,-1,3
 230 -3 230 -3 138 -3 c 0,4,5
 82 -3 82 -3 38 22.5 c 128,-1,6
 -6 48 -6 48 -33 96 c 1,7,-1
 13 149 l 1,8,9
 37 108 37 108 72.5 86.5 c 128,-1,10
 108 65 108 65 150 65 c 0,11,12
 211 65 211 65 251.5 102 c 128,-1,13
 292 139 292 139 306 208 c 2,14,-1
 392 636 l 1,15,-1
 140 636 l 1,16,-1
 152 700 l 1,17,-1
 473 700 l 1,0,-1
EndSplineSet
EndChar

StartChar: K
Encoding: 75 75 47
Width: 694
Flags: W
LayerCount: 2
Fore
SplineSet
741 700 m 1,0,-1
 398 389 l 1,1,-1
 618 0 l 1,2,-1
 537 0 l 1,3,-1
 341 337 l 1,4,-1
 162 175 l 1,5,-1
 127 0 l 1,6,-1
 58 0 l 1,7,-1
 198 700 l 1,8,-1
 267 700 l 1,9,-1
 183 280 l 1,10,-1
 651 700 l 1,11,-1
 741 700 l 1,0,-1
EndSplineSet
EndChar

StartChar: L
Encoding: 76 76 48
Width: 513
Flags: W
LayerCount: 2
Fore
SplineSet
139 63 m 1,0,-1
 447 63 l 1,1,-1
 435 0 l 1,2,-1
 58 0 l 1,3,-1
 198 700 l 1,4,-1
 267 700 l 1,5,-1
 139 63 l 1,0,-1
EndSplineSet
EndChar

StartChar: M
Encoding: 77 77 49
Width: 939
Flags: W
LayerCount: 2
Fore
SplineSet
829 700 m 1,0,-1
 912 700 l 1,1,-1
 776 0 l 1,2,-1
 714 0 l 1,3,-1
 832 608 l 1,4,-1
 452 75 l 1,5,-1
 415 75 l 1,6,-1
 242 608 l 1,7,-1
 124 0 l 1,8,-1
 61 0 l 1,9,-1
 197 700 l 1,10,-1
 281 700 l 1,11,-1
 452 171 l 1,12,-1
 829 700 l 1,0,-1
EndSplineSet
EndChar

StartChar: N
Encoding: 78 78 50
Width: 796
Flags: W
LayerCount: 2
Fore
SplineSet
705 700 m 1,0,-1
 773 700 l 1,1,-1
 633 0 l 1,2,-1
 560 0 l 1,3,-1
 246 592 l 1,4,-1
 127 0 l 1,5,-1
 58 0 l 1,6,-1
 198 700 l 1,7,-1
 271 700 l 1,8,-1
 585 107 l 1,9,-1
 705 700 l 1,0,-1
EndSplineSet
EndChar

StartChar: O
Encoding: 79 79 51
Width: 819
Flags: W
LayerCount: 2
Fore
SplineSet
637.5 660 m 128,-1,1
 715 615 715 615 757 537.5 c 128,-1,2
 799 460 799 460 794 366 c 0,3,4
 790 265 790 265 733.5 179.5 c 128,-1,5
 677 94 677 94 586.5 44 c 128,-1,6
 496 -6 496 -6 393 -6 c 0,7,8
 299 -6 299 -6 223.5 37 c 128,-1,9
 148 80 148 80 105 154 c 128,-1,10
 62 228 62 228 62 318 c 0,11,12
 62 423 62 423 117 512 c 128,-1,13
 172 601 172 601 264.5 653 c 128,-1,14
 357 705 357 705 463 705 c 0,15,0
 560 705 560 705 637.5 660 c 128,-1,1
298 598.5 m 128,-1,17
 223 555 223 555 177.5 481.5 c 128,-1,18
 132 408 132 408 132 322 c 0,19,20
 132 249 132 249 167 188 c 128,-1,21
 202 127 202 127 263.5 92 c 128,-1,22
 325 57 325 57 399 57 c 0,23,24
 483 57 483 57 558 101 c 128,-1,25
 633 145 633 145 678 219 c 128,-1,26
 723 293 723 293 723 379 c 0,27,28
 723 452 723 452 688 512 c 128,-1,29
 653 572 653 572 592.5 607 c 128,-1,30
 532 642 532 642 458 642 c 0,31,16
 373 642 373 642 298 598.5 c 128,-1,17
EndSplineSet
Substitution2: "<11,2> Diagonal Fractions lookup 7 nested-substitutions 0 subtable" ordmasculine
Substitution2: "<11,2> Diagonal Fractions lookup 5 nested-substitutions 0 subtable" ordmasculine
EndChar

StartChar: P
Encoding: 80 80 52
Width: 681
Flags: W
LayerCount: 2
Fore
SplineSet
627 651 m 128,-1,1
 687 602 687 602 687 513 c 0,2,3
 687 426 687 426 647.5 361.5 c 128,-1,4
 608 297 608 297 534.5 261.5 c 128,-1,5
 461 226 461 226 361 226 c 2,6,-1
 172 226 l 1,7,-1
 127 0 l 1,8,-1
 58 0 l 1,9,-1
 198 700 l 1,10,-1
 456 700 l 2,11,0
 567 700 567 700 627 651 c 128,-1,1
553 344.5 m 128,-1,13
 619 400 619 400 619 499 c 0,14,15
 619 566 619 566 573 601 c 128,-1,16
 527 636 527 636 441 636 c 2,17,-1
 254 636 l 1,18,-1
 185 289 l 1,19,-1
 371 289 l 2,20,12
 487 289 487 289 553 344.5 c 128,-1,13
EndSplineSet
EndChar

StartChar: Q
Encoding: 81 81 53
Width: 823
Flags: W
LayerCount: 2
Fore
SplineSet
813 -62 m 1,0,1
 773 -99 773 -99 727.5 -119 c 128,-1,2
 682 -139 682 -139 638 -139 c 0,3,4
 523 -139 523 -139 420 -5 c 1,5,6
 411 -6 411 -6 393 -6 c 0,7,8
 299 -6 299 -6 223.5 37 c 128,-1,9
 148 80 148 80 105 154 c 128,-1,10
 62 228 62 228 62 318 c 0,11,12
 62 423 62 423 117 512 c 128,-1,13
 172 601 172 601 264.5 653 c 128,-1,14
 357 705 357 705 463 705 c 0,15,16
 557 705 557 705 632.5 663 c 128,-1,17
 708 621 708 621 751 547.5 c 128,-1,18
 794 474 794 474 794 385 c 0,19,20
 794 297 794 297 754.5 218.5 c 128,-1,21
 715 140 715 140 646 84.5 c 128,-1,22
 577 29 577 29 492 7 c 1,23,24
 533 -36 533 -36 570.5 -57 c 128,-1,25
 608 -78 608 -78 645 -78 c 0,26,27
 707 -78 707 -78 782 -14 c 1,28,-1
 813 -62 l 1,0,1
167 188 m 128,-1,30
 202 127 202 127 263.5 92 c 128,-1,31
 325 57 325 57 399 57 c 0,32,33
 483 57 483 57 558 101 c 128,-1,34
 633 145 633 145 678 219 c 128,-1,35
 723 293 723 293 723 379 c 0,36,37
 723 452 723 452 688 512 c 128,-1,38
 653 572 653 572 592.5 607 c 128,-1,39
 532 642 532 642 458 642 c 0,40,41
 373 642 373 642 298 598.5 c 128,-1,42
 223 555 223 555 177.5 481.5 c 128,-1,43
 132 408 132 408 132 322 c 0,44,29
 132 249 132 249 167 188 c 128,-1,30
EndSplineSet
EndChar

StartChar: R
Encoding: 82 82 54
Width: 724
Flags: W
LayerCount: 2
Fore
SplineSet
636.5 337.5 m 128,-1,1
 581 266 581 266 480 240 c 1,2,-1
 599 0 l 1,3,-1
 519 0 l 1,4,-1
 413 228 l 1,5,6
 381 226 381 226 364 226 c 2,7,-1
 172 226 l 1,8,-1
 127 0 l 1,9,-1
 58 0 l 1,10,-1
 198 700 l 1,11,-1
 458 700 l 2,12,13
 571 700 571 700 631.5 651 c 128,-1,14
 692 602 692 602 692 512 c 0,15,0
 692 409 692 409 636.5 337.5 c 128,-1,1
558 344.5 m 128,-1,17
 624 400 624 400 624 499 c 0,18,19
 624 566 624 566 578 601 c 128,-1,20
 532 636 532 636 446 636 c 2,21,-1
 254 636 l 1,22,-1
 185 289 l 1,23,-1
 376 289 l 2,24,16
 492 289 492 289 558 344.5 c 128,-1,17
EndSplineSet
EndChar

StartChar: S
Encoding: 83 83 55
Width: 603
Flags: W
LayerCount: 2
Fore
SplineSet
467 691 m 128,-1,1
 523 674 523 674 564 645 c 1,2,-1
 528 585 l 1,3,4
 488 613 488 613 438.5 627 c 128,-1,5
 389 641 389 641 343 641 c 0,6,7
 270 641 270 641 223.5 612.5 c 128,-1,8
 177 584 177 584 173 536 c 2,9,-1
 172 522 l 2,10,11
 172 484 172 484 193.5 459.5 c 128,-1,12
 215 435 215 435 246 421 c 128,-1,13
 277 407 277 407 332 389 c 0,14,15
 395 368 395 368 433.5 349.5 c 128,-1,16
 472 331 472 331 499 296.5 c 128,-1,17
 526 262 526 262 526 207 c 0,18,19
 526 191 526 191 525 182 c 0,20,21
 520 125 520 125 484 82.5 c 128,-1,22
 448 40 448 40 388.5 16.5 c 128,-1,23
 329 -7 329 -7 255 -7 c 0,24,25
 182 -7 182 -7 114.5 22 c 128,-1,26
 47 51 47 51 1 99 c 1,27,-1
 40 158 l 1,28,29
 81 111 81 111 141 85 c 128,-1,30
 201 59 201 59 262 59 c 0,31,32
 348 59 348 59 399 95.5 c 128,-1,33
 450 132 450 132 450 194 c 0,34,35
 450 233 450 233 428.5 258 c 128,-1,36
 407 283 407 283 374.5 297.5 c 128,-1,37
 342 312 342 312 287 330 c 0,38,39
 224 350 224 350 186 368 c 128,-1,40
 148 386 148 386 121.5 420 c 128,-1,41
 95 454 95 454 95 508 c 0,42,43
 95 523 95 523 96 531 c 0,44,45
 101 584 101 584 134.5 624 c 128,-1,46
 168 664 168 664 225 686 c 128,-1,47
 282 708 282 708 353 708 c 0,48,0
 411 708 411 708 467 691 c 128,-1,1
EndSplineSet
EndChar

StartChar: T
Encoding: 84 84 56
Width: 553
Flags: W
LayerCount: 2
Fore
SplineSet
629 700 m 1,0,-1
 617 636 l 1,1,-1
 386 636 l 1,2,-1
 258 0 l 1,3,-1
 189 0 l 1,4,-1
 317 636 l 1,5,-1
 87 636 l 1,6,-1
 99 700 l 1,7,-1
 629 700 l 1,0,-1
EndSplineSet
EndChar

StartChar: U
Encoding: 85 85 57
Width: 769
Flags: W
LayerCount: 2
Fore
SplineSet
681 287 m 2,0,1
 653 149 653 149 565.5 73 c 128,-1,2
 478 -3 478 -3 342 -3 c 0,3,4
 224 -3 224 -3 158 54.5 c 128,-1,5
 92 112 92 112 92 216 c 0,6,7
 92 252 92 252 99 287 c 2,8,-1
 182 700 l 1,9,-1
 250 700 l 1,10,-1
 168 287 l 2,11,12
 162 256 162 256 162 228 c 0,13,14
 162 148 162 148 211.5 104 c 128,-1,15
 261 60 261 60 350 60 c 0,16,17
 453 60 453 60 521 119.5 c 128,-1,18
 589 179 589 179 612 287 c 2,19,-1
 694 700 l 1,20,-1
 763 700 l 1,21,-1
 681 287 l 2,0,1
EndSplineSet
EndChar

StartChar: V
Encoding: 86 86 58
Width: 658
Flags: W
LayerCount: 2
Fore
SplineSet
666 700 m 1,0,-1
 739 700 l 1,1,-1
 336 0 l 1,2,-1
 264 0 l 1,3,-1
 94 700 l 1,4,-1
 169 700 l 1,5,-1
 313 74 l 1,6,-1
 666 700 l 1,0,-1
EndSplineSet
EndChar

StartChar: W
Encoding: 87 87 59
Width: 1012
Flags: W
LayerCount: 2
Fore
SplineSet
1027 700 m 1,0,-1
 1099 700 l 1,1,-1
 748 0 l 1,2,-1
 677 0 l 1,3,-1
 583 611 l 1,4,-1
 284 0 l 1,5,-1
 213 0 l 1,6,-1
 94 700 l 1,7,-1
 169 700 l 1,8,-1
 263 74 l 1,9,-1
 563 699 l 1,10,-1
 632 700 l 1,11,-1
 727 74 l 1,12,-1
 1027 700 l 1,0,-1
EndSplineSet
EndChar

StartChar: X
Encoding: 88 88 60
Width: 664
Flags: W
LayerCount: 2
Fore
SplineSet
676 700 m 1,0,-1
 381 363 l 1,1,-1
 580 0 l 1,2,-1
 497 0 l 1,3,-1
 328 305 l 1,4,-1
 59 0 l 1,5,-1
 -22 0 l 1,6,-1
 295 360 l 1,7,-1
 112 700 l 1,8,-1
 193 700 l 1,9,-1
 346 417 l 1,10,-1
 594 700 l 1,11,-1
 676 700 l 1,0,-1
EndSplineSet
EndChar

StartChar: Y
Encoding: 89 89 61
Width: 622
Flags: W
LayerCount: 2
Fore
SplineSet
704 700 m 1,0,-1
 361 251 l 1,1,-1
 320 0 l 1,2,-1
 251 0 l 1,3,-1
 292 250 l 1,4,-1
 93 700 l 1,5,-1
 165 700 l 1,6,-1
 337 322 l 1,7,-1
 632 700 l 1,8,-1
 704 700 l 1,0,-1
EndSplineSet
EndChar

StartChar: Z
Encoding: 90 90 62
Width: 669
Flags: W
LayerCount: 2
Fore
SplineSet
683 700 m 1,0,-1
 675 645 l 1,1,-1
 104 63 l 1,2,-1
 582 63 l 1,3,-1
 572 0 l 1,4,-1
 3 0 l 1,5,-1
 12 54 l 1,6,-1
 582 636 l 1,7,-1
 122 636 l 1,8,-1
 132 700 l 1,9,-1
 683 700 l 1,0,-1
EndSplineSet
EndChar

StartChar: bracketleft
Encoding: 91 91 63
Width: 307
Flags: W
LayerCount: 2
Fore
SplineSet
379 742 m 1,0,-1
 368 686 l 1,1,-1
 242 686 l 1,2,-1
 90 -68 l 1,3,-1
 216 -68 l 1,4,-1
 205 -124 l 1,5,-1
 17 -124 l 1,6,-1
 191 742 l 1,7,-1
 379 742 l 1,0,-1
EndSplineSet
Substitution2: "'rtla' Right to Left Alternates lookup 0 subtable" bracketright
EndChar

StartChar: backslash
Encoding: 92 92 64
Width: 654
Flags: W
LayerCount: 2
Fore
SplineSet
88 821 m 1,0,-1
 148 821 l 1,1,-1
 535 -124 l 1,2,-1
 475 -124 l 1,3,-1
 88 821 l 1,0,-1
EndSplineSet
EndChar

StartChar: bracketright
Encoding: 93 93 65
Width: 344
Flags: W
LayerCount: 2
Fore
SplineSet
2 -124 m 1,0,-1
 13 -68 l 1,1,-1
 139 -68 l 1,2,-1
 291 686 l 1,3,-1
 165 686 l 1,4,-1
 176 742 l 1,5,-1
 364 742 l 1,6,-1
 190 -124 l 1,7,-1
 2 -124 l 1,0,-1
EndSplineSet
Substitution2: "'rtla' Right to Left Alternates lookup 0 subtable" bracketleft
EndChar

StartChar: asciicircum
Encoding: 94 94 66
Width: 508
Flags: W
LayerCount: 2
Fore
SplineSet
445 131 m 1,0,-1
 393 131 l 1,1,-1
 301 481 l 1,2,-1
 66 131 l 1,3,-1
 12 131 l 1,4,-1
 277 527 l 1,5,-1
 338 527 l 1,6,-1
 445 131 l 1,0,-1
EndSplineSet
EndChar

StartChar: underscore
Encoding: 95 95 67
Width: 552
Flags: W
LayerCount: 2
Fore
SplineSet
468 -159 m 1,0,-1
 459 -204 l 1,1,-1
 -93 -204 l 1,2,-1
 -84 -159 l 1,3,-1
 468 -159 l 1,0,-1
EndSplineSet
EndChar

StartChar: a
Encoding: 97 97 69
Width: 676
Flags: W
LayerCount: 2
Fore
SplineSet
151.5 25.5 m 128,-1,1
 100 55 100 55 71.5 108 c 128,-1,2
 43 161 43 161 43 229 c 0,3,4
 43 312 43 312 81 380.5 c 128,-1,5
 119 449 119 449 184 488.5 c 128,-1,6
 249 528 249 528 328 528 c 256,7,8
 407 528 407 528 461.5 489 c 128,-1,9
 516 450 516 450 534 381 c 1,10,-1
 563 524 l 1,11,-1
 630 524 l 1,12,-1
 526 0 l 1,13,-1
 459 0 l 1,14,-1
 480 101 l 1,15,16
 442 51 442 51 387 23.5 c 128,-1,17
 332 -4 332 -4 269 -4 c 0,18,0
 203 -4 203 -4 151.5 25.5 c 128,-1,1
401 84.5 m 128,-1,20
 452 116 452 116 481.5 170 c 128,-1,21
 511 224 511 224 511 288 c 0,22,23
 511 368 511 368 462 418 c 128,-1,24
 413 468 413 468 334 468 c 0,25,26
 273 468 273 468 222 436.5 c 128,-1,27
 171 405 171 405 141 351 c 128,-1,28
 111 297 111 297 111 233 c 0,29,30
 111 153 111 153 160.5 103 c 128,-1,31
 210 53 210 53 290 53 c 0,32,19
 350 53 350 53 401 84.5 c 128,-1,20
EndSplineSet
Substitution2: "<3,3> Small Caps in Latin lookup 11 subtable" a.sc
Substitution2: "<11,2> Diagonal Fractions lookup 7 nested-substitutions 0 subtable" ordfeminine
Substitution2: "<11,2> Diagonal Fractions lookup 5 nested-substitutions 0 subtable" ordfeminine
EndChar

StartChar: b
Encoding: 98 98 70
Width: 681
Flags: W
LayerCount: 2
Fore
SplineSet
529.5 497.5 m 128,-1,1
 581 468 581 468 609.5 415 c 128,-1,2
 638 362 638 362 638 294 c 0,3,4
 638 211 638 211 600 142.5 c 128,-1,5
 562 74 562 74 497 34.5 c 128,-1,6
 432 -5 432 -5 353 -5 c 256,7,8
 274 -5 274 -5 219.5 34.5 c 128,-1,9
 165 74 165 74 147 143 c 1,10,-1
 118 0 l 1,11,-1
 51 0 l 1,12,-1
 199 742 l 1,13,-1
 266 742 l 1,14,-1
 201 422 l 1,15,16
 239 472 239 472 294 499.5 c 128,-1,17
 349 527 349 527 412 527 c 0,18,0
 478 527 478 527 529.5 497.5 c 128,-1,1
279.5 438.5 m 128,-1,20
 229 407 229 407 199.5 353.5 c 128,-1,21
 170 300 170 300 170 236 c 0,22,23
 170 155 170 155 219 105 c 128,-1,24
 268 55 268 55 347 55 c 0,25,26
 408 55 408 55 459 86.5 c 128,-1,27
 510 118 510 118 540 172 c 128,-1,28
 570 226 570 226 570 290 c 0,29,30
 570 370 570 370 520.5 420 c 128,-1,31
 471 470 471 470 391 470 c 0,32,19
 330 470 330 470 279.5 438.5 c 128,-1,20
EndSplineSet
Substitution2: "<3,3> Small Caps in Latin lookup 11 subtable" b.sc
EndChar

StartChar: c
Encoding: 99 99 71
Width: 581
Flags: W
LayerCount: 2
Fore
SplineSet
157 28 m 128,-1,1
 104 58 104 58 74.5 112 c 128,-1,2
 45 166 45 166 45 236 c 0,3,4
 45 319 45 319 83 385.5 c 128,-1,5
 121 452 121 452 186.5 489.5 c 128,-1,6
 252 527 252 527 332 527 c 0,7,8
 392 527 392 527 441 507 c 128,-1,9
 490 487 490 487 522 451 c 1,10,-1
 480 405 l 1,11,12
 421 467 421 467 329 467 c 0,13,14
 269 467 269 467 219 438 c 128,-1,15
 169 409 169 409 140.5 357.5 c 128,-1,16
 112 306 112 306 112 241 c 0,17,18
 112 159 112 159 160.5 108 c 128,-1,19
 209 57 209 57 288 57 c 0,20,21
 340 57 340 57 384 74.5 c 128,-1,22
 428 92 428 92 460 126 c 1,23,-1
 495 86 l 1,24,25
 455 44 455 44 400 21 c 128,-1,26
 345 -2 345 -2 279 -2 c 0,27,0
 210 -2 210 -2 157 28 c 128,-1,1
EndSplineSet
Substitution2: "<3,3> Small Caps in Latin lookup 11 subtable" c.sc
EndChar

StartChar: d
Encoding: 100 100 72
Width: 681
Flags: W
LayerCount: 2
Fore
SplineSet
151.5 25.5 m 128,-1,1
 100 55 100 55 71.5 108 c 128,-1,2
 43 161 43 161 43 229 c 0,3,4
 43 312 43 312 81 380.5 c 128,-1,5
 119 449 119 449 184 488.5 c 128,-1,6
 249 528 249 528 328 528 c 256,7,8
 407 528 407 528 461.5 489 c 128,-1,9
 516 450 516 450 534 381 c 1,10,-1
 607 742 l 1,11,-1
 674 742 l 1,12,-1
 526 0 l 1,13,-1
 459 0 l 1,14,-1
 480 101 l 1,15,16
 442 51 442 51 387 23.5 c 128,-1,17
 332 -4 332 -4 269 -4 c 0,18,0
 203 -4 203 -4 151.5 25.5 c 128,-1,1
401 84.5 m 128,-1,20
 452 116 452 116 481.5 170 c 128,-1,21
 511 224 511 224 511 288 c 0,22,23
 511 368 511 368 462 418 c 128,-1,24
 413 468 413 468 334 468 c 0,25,26
 273 468 273 468 222 436.5 c 128,-1,27
 171 405 171 405 141 351 c 128,-1,28
 111 297 111 297 111 233 c 0,29,30
 111 153 111 153 160.5 103 c 128,-1,31
 210 53 210 53 290 53 c 0,32,19
 350 53 350 53 401 84.5 c 128,-1,20
EndSplineSet
Substitution2: "<3,3> Small Caps in Latin lookup 11 subtable" d.sc
EndChar

StartChar: e
Encoding: 101 101 73
Width: 599
Flags: W
LayerCount: 2
Fore
SplineSet
111 239 m 1,0,-1
 111 236 l 2,1,2
 111 153 111 153 160.5 103 c 128,-1,3
 210 53 210 53 293 53 c 0,4,5
 341 53 341 53 384 69 c 128,-1,6
 427 85 427 85 460 115 c 1,7,-1
 492 71 l 1,8,9
 453 35 453 35 401 16 c 128,-1,10
 349 -3 349 -3 290 -3 c 0,11,12
 217 -3 217 -3 161.5 27 c 128,-1,13
 106 57 106 57 75.5 111 c 128,-1,14
 45 165 45 165 45 236 c 0,15,16
 45 318 45 318 83 384.5 c 128,-1,17
 121 451 121 451 187.5 489 c 128,-1,18
 254 527 254 527 334 527 c 0,19,20
 438 527 438 527 498.5 465 c 128,-1,21
 559 403 559 403 559 299 c 0,22,23
 559 274 559 274 554 239 c 1,24,-1
 111 239 l 1,0,-1
193.5 421 m 128,-1,26
 134 372 134 372 117 292 c 1,27,-1
 499 292 l 1,28,29
 500 375 500 375 456.5 422.5 c 128,-1,30
 413 470 413 470 334 470 c 0,31,25
 253 470 253 470 193.5 421 c 128,-1,26
EndSplineSet
Substitution2: "<3,3> Small Caps in Latin lookup 11 subtable" e.sc
EndChar

StartChar: f
Encoding: 102 102 74
Width: 319
Flags: W
LayerCount: 2
Fore
SplineSet
289 659 m 128,-1,1
 253 629 253 629 243 580 c 2,2,-1
 229 510 l 1,3,-1
 382 510 l 1,4,-1
 372 457 l 1,5,-1
 218 457 l 1,6,-1
 127 0 l 1,7,-1
 60 0 l 1,8,-1
 152 457 l 1,9,-1
 84 457 l 1,10,-1
 94 510 l 1,11,-1
 162 510 l 1,12,-1
 176 579 l 2,13,14
 187 631 187 631 216 669.5 c 128,-1,15
 245 708 245 708 284.5 728.5 c 128,-1,16
 324 749 324 749 366 749 c 0,17,18
 420 749 420 749 457 725 c 1,19,-1
 434 671 l 1,20,21
 403 689 403 689 369 689 c 0,22,0
 325 689 325 689 289 659 c 128,-1,1
EndSplineSet
Substitution2: "<3,3> Small Caps in Latin lookup 11 subtable" f.sc
EndChar

StartChar: g
Encoding: 103 103 75
Width: 636
Flags: W
LayerCount: 2
Fore
SplineSet
103 -175 m 128,-1,1
 50 -155 50 -155 2 -114 c 1,2,-1
 36 -69 l 1,3,4
 106 -135 106 -135 216 -138 c 0,5,6
 305 -138 305 -138 361.5 -96.5 c 128,-1,7
 418 -55 418 -55 435 23 c 2,8,-1
 457 125 l 1,9,10
 421 78 421 78 369.5 52.5 c 128,-1,11
 318 27 318 27 260 27 c 0,12,13
 198 27 198 27 149.5 55 c 128,-1,14
 101 83 101 83 74 133 c 128,-1,15
 47 183 47 183 47 247 c 0,16,17
 47 325 47 325 82.5 389.5 c 128,-1,18
 118 454 118 454 179.5 491 c 128,-1,19
 241 528 241 528 315 528 c 0,20,21
 390 528 390 528 441 492 c 128,-1,22
 492 456 492 456 509 391 c 1,23,-1
 537 524 l 1,24,-1
 604 524 l 1,25,-1
 502 19 l 2,26,27
 481 -84 481 -84 408 -139.5 c 128,-1,28
 335 -195 335 -195 220 -195 c 0,29,0
 156 -195 156 -195 103 -175 c 128,-1,1
385.5 113 m 128,-1,31
 433 142 433 142 460.5 192 c 128,-1,32
 488 242 488 242 488 301 c 0,33,34
 488 376 488 376 442 422 c 128,-1,35
 396 468 396 468 322 468 c 0,36,37
 265 468 265 468 217.5 439 c 128,-1,38
 170 410 170 410 142.5 360 c 128,-1,39
 115 310 115 310 115 251 c 0,40,41
 115 176 115 176 161 130 c 128,-1,42
 207 84 207 84 281 84 c 0,43,30
 338 84 338 84 385.5 113 c 128,-1,31
EndSplineSet
Substitution2: "<3,3> Small Caps in Latin lookup 11 subtable" g.sc
EndChar

StartChar: h
Encoding: 104 104 76
Width: 662
Flags: W
LayerCount: 2
Fore
SplineSet
547.5 485.5 m 128,-1,1
 596 443 596 443 596 367 c 0,2,3
 596 341 596 341 590 312 c 2,4,-1
 528 0 l 1,5,-1
 460 0 l 1,6,-1
 521 305 l 2,7,8
 525 325 525 325 525 347 c 0,9,10
 525 404 525 404 490.5 435.5 c 128,-1,11
 456 467 456 467 392 467 c 0,12,13
 311 466 311 466 252 415.5 c 128,-1,14
 193 365 193 365 175 278 c 2,15,-1
 120 0 l 1,16,-1
 53 0 l 1,17,-1
 199 742 l 1,18,-1
 267 742 l 1,19,-1
 202 414 l 1,20,21
 237 469 237 469 290.5 498 c 128,-1,22
 344 527 344 527 412 528 c 0,23,0
 499 528 499 528 547.5 485.5 c 128,-1,1
EndSplineSet
Substitution2: "<3,3> Small Caps in Latin lookup 11 subtable" h.sc
EndChar

StartChar: k
Encoding: 107 107 79
Width: 576
Flags: W
LayerCount: 2
Fore
SplineSet
593 524 m 1,0,-1
 349 317 l 1,1,-1
 507 0 l 1,2,-1
 425 0 l 1,3,-1
 295 271 l 1,4,-1
 147 145 l 1,5,-1
 118 0 l 1,6,-1
 51 0 l 1,7,-1
 199 742 l 1,8,-1
 266 742 l 1,9,-1
 166 239 l 1,10,-1
 504 524 l 1,11,-1
 593 524 l 1,0,-1
EndSplineSet
Substitution2: "<3,3> Small Caps in Latin lookup 11 subtable" k.sc
EndChar

StartChar: l
Encoding: 108 108 80
Width: 273
Flags: W
LayerCount: 2
Fore
SplineSet
266 742 m 1,0,-1
 118 0 l 1,1,-1
 51 0 l 1,2,-1
 199 742 l 1,3,-1
 266 742 l 1,0,-1
EndSplineSet
Substitution2: "<3,3> Small Caps in Latin lookup 11 subtable" l.sc
EndChar

StartChar: m
Encoding: 109 109 81
Width: 1063
Flags: W
LayerCount: 2
Fore
SplineSet
950 485.5 m 128,-1,1
 998 443 998 443 998 366 c 0,2,3
 998 341 998 341 992 312 c 2,4,-1
 929 0 l 1,5,-1
 862 0 l 1,6,-1
 922 305 l 2,7,8
 926 325 926 325 926 347 c 0,9,10
 926 404 926 404 891 435.5 c 128,-1,11
 856 467 856 467 793 467 c 0,12,13
 714 466 714 466 656.5 418 c 128,-1,14
 599 370 599 370 579 289 c 2,15,-1
 522 0 l 1,16,-1
 454 0 l 1,17,-1
 515 305 l 2,18,19
 519 325 519 325 519 347 c 0,20,21
 519 404 519 404 484 435.5 c 128,-1,22
 449 467 449 467 386 467 c 0,23,24
 304 466 304 466 245 415 c 128,-1,25
 186 364 186 364 169 278 c 2,26,-1
 114 0 l 1,27,-1
 47 0 l 1,28,-1
 150 524 l 1,29,-1
 218 524 l 1,30,-1
 196 414 l 1,31,32
 231 469 231 469 284.5 498 c 128,-1,33
 338 527 338 527 406 528 c 0,34,35
 486 528 486 528 533 492.5 c 128,-1,36
 580 457 580 457 588 392 c 1,37,38
 667 526 667 526 814 528 c 0,39,0
 902 528 902 528 950 485.5 c 128,-1,1
EndSplineSet
Substitution2: "<3,3> Small Caps in Latin lookup 11 subtable" m.sc
EndChar

StartChar: n
Encoding: 110 110 82
Width: 656
Flags: W
LayerCount: 2
Fore
SplineSet
541.5 485.5 m 128,-1,1
 590 443 590 443 590 367 c 0,2,3
 590 341 590 341 584 312 c 2,4,-1
 522 0 l 1,5,-1
 454 0 l 1,6,-1
 515 305 l 2,7,8
 519 325 519 325 519 347 c 0,9,10
 519 404 519 404 484.5 435.5 c 128,-1,11
 450 467 450 467 386 467 c 0,12,13
 305 466 305 466 246 415.5 c 128,-1,14
 187 365 187 365 169 278 c 2,15,-1
 114 0 l 1,16,-1
 47 0 l 1,17,-1
 150 524 l 1,18,-1
 218 524 l 1,19,-1
 196 414 l 1,20,21
 231 469 231 469 284.5 498 c 128,-1,22
 338 527 338 527 406 528 c 0,23,0
 493 528 493 528 541.5 485.5 c 128,-1,1
EndSplineSet
Substitution2: "<3,3> Small Caps in Latin lookup 11 subtable" n.sc
EndChar

StartChar: o
Encoding: 111 111 83
Width: 621
Flags: W
LayerCount: 2
Fore
SplineSet
462.5 496.5 m 128,-1,1
 517 466 517 466 547 412 c 128,-1,2
 577 358 577 358 577 288 c 0,3,4
 577 205 577 205 538.5 139 c 128,-1,5
 500 73 500 73 433 35.5 c 128,-1,6
 366 -2 366 -2 284 -2 c 0,7,8
 213 -2 213 -2 159 28.5 c 128,-1,9
 105 59 105 59 75 113 c 128,-1,10
 45 167 45 167 45 237 c 0,11,12
 45 320 45 320 83.5 386 c 128,-1,13
 122 452 122 452 188.5 489.5 c 128,-1,14
 255 527 255 527 337 527 c 0,15,0
 408 527 408 527 462.5 496.5 c 128,-1,1
220 438.5 m 128,-1,17
 170 409 170 409 141.5 357 c 128,-1,18
 113 305 113 305 113 240 c 0,19,20
 113 158 113 158 161.5 107 c 128,-1,21
 210 56 210 56 290 56 c 0,22,23
 351 56 351 56 401 85 c 128,-1,24
 451 114 451 114 479.5 166 c 128,-1,25
 508 218 508 218 508 284 c 0,26,27
 508 366 508 366 459.5 417 c 128,-1,28
 411 468 411 468 331 468 c 0,29,16
 270 468 270 468 220 438.5 c 128,-1,17
EndSplineSet
Substitution2: "<3,3> Small Caps in Latin lookup 11 subtable" o.sc
Substitution2: "<11,2> Diagonal Fractions lookup 7 nested-substitutions 0 subtable" ordmasculine
Substitution2: "<11,2> Diagonal Fractions lookup 5 nested-substitutions 0 subtable" ordmasculine
EndChar

StartChar: p
Encoding: 112 112 84
Width: 681
Flags: W
LayerCount: 2
Fore
SplineSet
529.5 498.5 m 128,-1,1
 581 469 581 469 609.5 416 c 128,-1,2
 638 363 638 363 638 295 c 0,3,4
 638 212 638 212 600 143.5 c 128,-1,5
 562 75 562 75 497 35.5 c 128,-1,6
 432 -4 432 -4 353 -4 c 256,7,8
 274 -4 274 -4 219.5 35.5 c 128,-1,9
 165 75 165 75 147 144 c 1,10,-1
 79 -194 l 1,11,-1
 12 -194 l 1,12,-1
 155 524 l 1,13,-1
 222 524 l 1,14,-1
 201 423 l 1,15,16
 239 473 239 473 294 500.5 c 128,-1,17
 349 528 349 528 412 528 c 0,18,0
 478 528 478 528 529.5 498.5 c 128,-1,1
279.5 439.5 m 128,-1,20
 229 408 229 408 199.5 354.5 c 128,-1,21
 170 301 170 301 170 237 c 0,22,23
 170 156 170 156 219 106 c 128,-1,24
 268 56 268 56 347 56 c 0,25,26
 408 56 408 56 459 87.5 c 128,-1,27
 510 119 510 119 540 173 c 128,-1,28
 570 227 570 227 570 291 c 0,29,30
 570 372 570 372 520.5 421.5 c 128,-1,31
 471 471 471 471 391 471 c 0,32,19
 330 471 330 471 279.5 439.5 c 128,-1,20
EndSplineSet
Substitution2: "<3,3> Small Caps in Latin lookup 11 subtable" p.sc
EndChar

StartChar: q
Encoding: 113 113 85
Width: 680
Flags: W
LayerCount: 2
Fore
SplineSet
151.5 25.5 m 128,-1,1
 100 55 100 55 71.5 108 c 128,-1,2
 43 161 43 161 43 229 c 0,3,4
 43 312 43 312 81 380.5 c 128,-1,5
 119 449 119 449 184 488.5 c 128,-1,6
 249 528 249 528 328 528 c 256,7,8
 407 528 407 528 461.5 489 c 128,-1,9
 516 450 516 450 534 381 c 1,10,-1
 563 524 l 1,11,-1
 630 524 l 1,12,-1
 487 -194 l 1,13,-1
 420 -194 l 1,14,-1
 480 101 l 1,15,16
 442 51 442 51 387 23.5 c 128,-1,17
 332 -4 332 -4 269 -4 c 0,18,0
 203 -4 203 -4 151.5 25.5 c 128,-1,1
401 84.5 m 128,-1,20
 452 116 452 116 481.5 170 c 128,-1,21
 511 224 511 224 511 288 c 0,22,23
 511 368 511 368 462 418 c 128,-1,24
 413 468 413 468 334 468 c 0,25,26
 273 468 273 468 222 436.5 c 128,-1,27
 171 405 171 405 141 351 c 128,-1,28
 111 297 111 297 111 233 c 0,29,30
 111 153 111 153 160.5 103 c 128,-1,31
 210 53 210 53 290 53 c 0,32,19
 350 53 350 53 401 84.5 c 128,-1,20
EndSplineSet
Substitution2: "<3,3> Small Caps in Latin lookup 11 subtable" q.sc
EndChar

StartChar: r
Encoding: 114 114 86
Width: 368
Flags: W
LayerCount: 2
Fore
SplineSet
286 495.5 m 128,-1,1
 340 526 340 526 407 527 c 1,2,-1
 399 462 l 1,3,4
 317 463 317 463 255.5 413.5 c 128,-1,5
 194 364 194 364 169 280 c 1,6,-1
 113 0 l 1,7,-1
 46 0 l 1,8,-1
 150 524 l 1,9,-1
 218 524 l 1,10,-1
 194 407 l 1,11,0
 232 465 232 465 286 495.5 c 128,-1,1
EndSplineSet
Substitution2: "<3,3> Small Caps in Latin lookup 11 subtable" r.sc
EndChar

StartChar: s
Encoding: 115 115 87
Width: 464
Flags: W
LayerCount: 2
Fore
SplineSet
85 19.5 m 128,-1,1
 24 46 24 46 -9 90 c 1,2,-1
 25 135 l 1,3,4
 56 97 56 97 107 73.5 c 128,-1,5
 158 50 158 50 213 50 c 0,6,7
 266 50 266 50 300.5 75.5 c 128,-1,8
 335 101 335 101 335 142 c 0,9,10
 335 176 335 176 307 196.5 c 128,-1,11
 279 217 279 217 223 240 c 0,12,13
 177 259 177 259 148.5 275 c 128,-1,14
 120 291 120 291 100 317 c 128,-1,15
 80 343 80 343 80 382 c 0,16,17
 80 449 80 449 130.5 489.5 c 128,-1,18
 181 530 181 530 260 530 c 0,19,20
 315 530 315 530 364.5 512.5 c 128,-1,21
 414 495 414 495 448 466 c 1,22,-1
 414 418 l 1,23,24
 382 443 382 443 340.5 458 c 128,-1,25
 299 473 299 473 258 473 c 0,26,27
 209 473 209 473 177.5 450 c 128,-1,28
 146 427 146 427 146 389 c 0,29,30
 146 356 146 356 173 336.5 c 128,-1,31
 200 317 200 317 257 294 c 0,32,33
 304 275 304 275 333.5 259 c 128,-1,34
 363 243 363 243 383.5 216 c 128,-1,35
 404 189 404 189 404 149 c 0,36,37
 404 79 404 79 350 36 c 128,-1,38
 296 -7 296 -7 213 -7 c 0,39,0
 146 -7 146 -7 85 19.5 c 128,-1,1
EndSplineSet
Substitution2: "<3,3> Small Caps in Latin lookup 11 subtable" s.sc
EndChar

StartChar: t
Encoding: 116 116 88
Width: 386
Flags: W
LayerCount: 2
Fore
SplineSet
161 153 m 2,0,1
 157 134 157 134 157 116 c 0,2,3
 157 86 157 86 170.5 72.5 c 128,-1,4
 184 59 184 59 212 59 c 0,5,6
 257 61 257 61 305 89 c 1,7,-1
 319 35 l 1,8,9
 259 -1 259 -1 198 -3 c 0,10,11
 147 -3 147 -3 118 24 c 128,-1,12
 89 51 89 51 89 103 c 0,13,14
 89 121 89 121 94 148 c 2,15,-1
 156 457 l 1,16,-1
 80 457 l 1,17,-1
 90 510 l 1,18,-1
 166 510 l 1,19,-1
 193 644 l 1,20,-1
 260 644 l 1,21,-1
 233 510 l 1,22,-1
 402 510 l 1,23,-1
 392 457 l 1,24,-1
 222 457 l 1,25,-1
 161 153 l 2,0,1
EndSplineSet
Substitution2: "<3,3> Small Caps in Latin lookup 11 subtable" t.sc
EndChar

StartChar: u
Encoding: 117 117 89
Width: 656
Flags: W
LayerCount: 2
Fore
SplineSet
114.5 38.5 m 128,-1,1
 66 81 66 81 66 157 c 0,2,3
 66 184 66 184 72 212 c 2,4,-1
 134 524 l 1,5,-1
 202 524 l 1,6,-1
 141 219 l 2,7,8
 137 199 137 199 137 177 c 0,9,10
 137 120 137 120 171.5 88.5 c 128,-1,11
 206 57 206 57 270 57 c 0,12,13
 351 58 351 58 410 108.5 c 128,-1,14
 469 159 469 159 487 246 c 2,15,-1
 542 524 l 1,16,-1
 609 524 l 1,17,-1
 506 0 l 1,18,-1
 438 0 l 1,19,-1
 460 110 l 1,20,21
 425 55 425 55 371.5 26 c 128,-1,22
 318 -3 318 -3 250 -4 c 0,23,0
 163 -4 163 -4 114.5 38.5 c 128,-1,1
EndSplineSet
Substitution2: "<3,3> Small Caps in Latin lookup 11 subtable" u.sc
EndChar

StartChar: v
Encoding: 118 118 90
Width: 491
Flags: W
LayerCount: 2
Fore
SplineSet
546 524 m 1,0,-1
 233 0 l 1,1,-1
 163 0 l 1,2,-1
 58 524 l 1,3,-1
 129 524 l 1,4,-1
 210 67 l 1,5,-1
 475 524 l 1,6,-1
 546 524 l 1,0,-1
EndSplineSet
Substitution2: "<3,3> Small Caps in Latin lookup 11 subtable" v.sc
EndChar

StartChar: w
Encoding: 119 119 91
Width: 856
Flags: W
LayerCount: 2
Fore
SplineSet
911 524 m 1,0,-1
 611 0 l 1,1,-1
 540 0 l 1,2,-1
 471 443 l 1,3,-1
 220 0 l 1,4,-1
 150 0 l 1,5,-1
 58 524 l 1,6,-1
 128 524 l 1,7,-1
 198 67 l 1,8,-1
 448 524 l 1,9,-1
 520 524 l 1,10,-1
 588 67 l 1,11,-1
 840 524 l 1,12,-1
 911 524 l 1,0,-1
EndSplineSet
Substitution2: "<3,3> Small Caps in Latin lookup 11 subtable" w.sc
EndChar

StartChar: x
Encoding: 120 120 92
Width: 522
Flags: W
LayerCount: 2
Fore
SplineSet
167 524 m 1,0,-1
 270 317 l 1,1,-1
 460 524 l 1,2,-1
 536 524 l 1,3,-1
 307 270 l 1,4,-1
 443 0 l 1,5,-1
 366 0 l 1,6,-1
 255 223 l 1,7,-1
 48 0 l 1,8,-1
 -30 0 l 1,9,-1
 218 270 l 1,10,-1
 90 524 l 1,11,-1
 167 524 l 1,0,-1
EndSplineSet
Substitution2: "<3,3> Small Caps in Latin lookup 11 subtable" x.sc
EndChar

StartChar: y
Encoding: 121 121 93
Width: 494
Flags: W
LayerCount: 2
Fore
SplineSet
549 524 m 1,0,-1
 187 -78 l 2,1,2
 152 -137 152 -137 107 -167 c 128,-1,3
 62 -197 62 -197 13 -197 c 0,4,5
 -48 -197 -48 -197 -92 -159 c 1,6,-1
 -56 -109 l 1,7,8
 -28 -132 -28 -132 13 -132 c 0,9,10
 80 -132 80 -132 135 -48 c 2,11,-1
 168 3 l 1,12,-1
 55 524 l 1,13,-1
 125 524 l 1,14,-1
 214 73 l 1,15,-1
 478 524 l 1,16,-1
 549 524 l 1,0,-1
EndSplineSet
Substitution2: "<3,3> Small Caps in Latin lookup 11 subtable" y.sc
EndChar

StartChar: z
Encoding: 122 122 94
Width: 524
Flags: W
LayerCount: 2
Fore
SplineSet
524 523 m 1,0,-1
 515 472 l 1,1,-1
 94 56 l 1,2,-1
 438 56 l 1,3,-1
 427 -1 l 1,4,-1
 2 0 l 1,5,-1
 11 51 l 1,6,-1
 432 467 l 1,7,-1
 105 468 l 1,8,-1
 115 524 l 1,9,-1
 524 523 l 1,0,-1
EndSplineSet
Substitution2: "<3,3> Small Caps in Latin lookup 11 subtable" z.sc
EndChar

StartChar: braceleft
Encoding: 123 123 95
Width: 332
Flags: W
LayerCount: 2
Fore
SplineSet
199.5 337.5 m 128,-1,1
 182 315 182 315 152 308 c 1,2,3
 173 300 173 300 182.5 286.5 c 128,-1,4
 192 273 192 273 192 250 c 0,5,6
 192 232 192 232 188 213 c 2,7,-1
 146 6 l 2,8,9
 144 -8 144 -8 144 -14 c 0,10,11
 144 -43 144 -43 165 -56.5 c 128,-1,12
 186 -70 186 -70 232 -70 c 1,13,-1
 221 -126 l 1,14,-1
 197 -126 l 2,15,16
 135 -126 135 -126 106 -107 c 128,-1,17
 77 -88 77 -88 77 -46 c 0,18,19
 77 -28 77 -28 81 -11 c 2,20,-1
 127 217 l 2,21,22
 130 231 130 231 130 241 c 0,23,24
 130 280 130 280 90 280 c 2,25,-1
 65 280 l 1,26,-1
 76 337 l 1,27,-1
 101 337 l 2,28,29
 127 337 127 337 141.5 352 c 128,-1,30
 156 367 156 367 163 400 c 2,31,-1
 209 628 l 2,32,33
 221 689 221 689 259 716 c 128,-1,34
 297 743 297 743 371 743 c 2,35,-1
 395 743 l 1,36,-1
 384 687 l 1,37,38
 331 687 331 687 303 669 c 128,-1,39
 275 651 275 651 267 611 c 2,40,-1
 225 403 l 2,41,0
 217 360 217 360 199.5 337.5 c 128,-1,1
EndSplineSet
Substitution2: "'rtla' Right to Left Alternates lookup 0 subtable" braceright
EndChar

StartChar: bar
Encoding: 124 124 96
Width: 246
Flags: W
LayerCount: 2
Fore
SplineSet
261 817 m 1,0,-1
 73 -123 l 1,1,-1
 19 -123 l 1,2,-1
 207 817 l 1,3,-1
 261 817 l 1,0,-1
EndSplineSet
EndChar

StartChar: braceright
Encoding: 125 125 97
Width: 396
Flags: W
LayerCount: 2
Fore
SplineSet
215.5 280.5 m 128,-1,1
 233 303 233 303 263 310 c 1,2,3
 242 318 242 318 232.5 331.5 c 128,-1,4
 223 345 223 345 223 368 c 0,5,6
 223 386 223 386 227 405 c 2,7,-1
 269 612 l 2,8,9
 271 626 271 626 271 632 c 0,10,11
 271 661 271 661 250 674.5 c 128,-1,12
 229 688 229 688 183 688 c 1,13,-1
 194 744 l 1,14,-1
 218 744 l 2,15,16
 280 744 280 744 309 725 c 128,-1,17
 338 706 338 706 338 664 c 0,18,19
 338 646 338 646 334 629 c 2,20,-1
 288 401 l 2,21,22
 285 388 285 388 285 377 c 0,23,24
 285 338 285 338 325 338 c 2,25,-1
 350 338 l 1,26,-1
 339 281 l 1,27,-1
 314 281 l 2,28,29
 288 281 288 281 273.5 266 c 128,-1,30
 259 251 259 251 252 218 c 2,31,-1
 206 -10 l 2,32,33
 194 -71 194 -71 156 -98 c 128,-1,34
 118 -125 118 -125 44 -125 c 2,35,-1
 20 -125 l 1,36,-1
 31 -69 l 1,37,38
 84 -69 84 -69 112 -51 c 128,-1,39
 140 -33 140 -33 148 7 c 2,40,-1
 190 215 l 2,41,0
 198 258 198 258 215.5 280.5 c 128,-1,1
EndSplineSet
Substitution2: "'rtla' Right to Left Alternates lookup 0 subtable" braceleft
EndChar

StartChar: asciitilde
Encoding: 126 126 98
Width: 490
Flags: W
LayerCount: 2
Fore
SplineSet
218.5 370 m 128,-1,1
 238 361 238 361 263 344 c 0,2,3
 284 329 284 329 298.5 322 c 128,-1,4
 313 315 313 315 328 315 c 0,5,6
 349 315 349 315 365.5 329.5 c 128,-1,7
 382 344 382 344 387 370 c 1,8,-1
 437 370 l 1,9,10
 426 317 426 317 399 288.5 c 128,-1,11
 372 260 372 260 332 260 c 0,12,13
 308 260 308 260 288.5 269.5 c 128,-1,14
 269 279 269 279 243 296 c 0,15,16
 225 309 225 309 210.5 316.5 c 128,-1,17
 196 324 196 324 182 324 c 0,18,19
 160 324 160 324 145.5 309.5 c 128,-1,20
 131 295 131 295 126 269 c 1,21,-1
 76 269 l 1,22,23
 98 379 98 379 177 379 c 0,24,0
 199 379 199 379 218.5 370 c 128,-1,1
EndSplineSet
EndChar

StartChar: exclamdown
Encoding: 161 161 100
Width: 203
Flags: W
LayerCount: 2
Fore
SplineSet
120.5 450.5 m 128,-1,1
 109 462 109 462 109 481 c 0,2,3
 109 501 109 501 123.5 516 c 128,-1,4
 138 531 138 531 158 531 c 0,5,6
 176 531 176 531 187 519.5 c 128,-1,7
 198 508 198 508 198 489 c 0,8,9
 198 468 198 468 184 453.5 c 128,-1,10
 170 439 170 439 150 439 c 0,11,0
 132 439 132 439 120.5 450.5 c 128,-1,1
-5 -164 m 1,12,-1
 28 4 l 1,13,-1
 100 318 l 1,14,-1
 146 318 l 1,15,-1
 92 4 l 1,16,-1
 59 -164 l 1,17,-1
 -5 -164 l 1,12,-1
EndSplineSet
Substitution2: "<3,3> Small Caps in Latin lookup 11 subtable" exclamdown.sc
EndChar

StartChar: cent
Encoding: 162 162 101
Width: 581
Flags: W
LayerCount: 2
Fore
SplineSet
384 74.5 m 128,-1,1
 428 92 428 92 460 126 c 1,2,-1
 495 86 l 1,3,4
 455 44 455 44 400 21 c 128,-1,5
 345 -2 345 -2 279 -2 c 2,6,-1
 272 -2 l 1,7,-1
 245 -140 l 1,8,-1
 191 -140 l 1,9,-1
 220 4 l 1,10,11
 139 22 139 22 92 84 c 128,-1,12
 45 146 45 146 45 236 c 0,13,14
 45 318 45 318 81.5 383 c 128,-1,15
 118 448 118 448 181.5 486.5 c 128,-1,16
 245 525 245 525 323 527 c 1,17,-1
 350 669 l 1,18,-1
 404 669 l 1,19,-1
 376 524 l 1,20,21
 422 518 422 518 459 499 c 128,-1,22
 496 480 496 480 522 451 c 1,23,-1
 480 405 l 1,24,25
 421 467 421 467 329 467 c 0,26,27
 269 467 269 467 219 438 c 128,-1,28
 169 409 169 409 140.5 357.5 c 128,-1,29
 112 306 112 306 112 241 c 0,30,31
 112 159 112 159 160.5 108 c 128,-1,32
 209 57 209 57 288 57 c 0,33,0
 340 57 340 57 384 74.5 c 128,-1,1
EndSplineSet
EndChar

StartChar: sterling
Encoding: 163 163 102
Width: 540
Flags: W
LayerCount: 2
Fore
SplineSet
510.5 677.5 m 128,-1,1
 554 653 554 653 581 607 c 1,2,-1
 540 556 l 1,3,4
 493 640 493 640 409 640 c 0,5,6
 346 640 346 640 304 601.5 c 128,-1,7
 262 563 262 563 248 491 c 2,8,-1
 223 367 l 1,9,-1
 406 367 l 1,10,-1
 398 326 l 1,11,-1
 215 326 l 1,12,-1
 161 58 l 1,13,-1
 459 58 l 1,14,-1
 448 0 l 1,15,-1
 -8 0 l 1,16,-1
 3 58 l 1,17,-1
 92 58 l 1,18,-1
 146 326 l 1,19,-1
 57 326 l 1,20,-1
 65 367 l 1,21,-1
 155 367 l 1,22,-1
 180 493 l 2,23,24
 199 593 199 593 260 647.5 c 128,-1,25
 321 702 321 702 413 702 c 0,26,0
 467 702 467 702 510.5 677.5 c 128,-1,1
EndSplineSet
EndChar

StartChar: currency
Encoding: 164 164 103
Width: 829
Flags: W
LayerCount: 2
Fore
SplineSet
685 226 m 128,-1,1
 668 182 668 182 637 147 c 1,2,-1
 741 42 l 1,3,-1
 701 1 l 1,4,-1
 594 108 l 1,5,6
 519 52 519 52 425 52 c 0,7,8
 332 52 332 52 257 108 c 1,9,-1
 149 1 l 1,10,-1
 110 42 l 1,11,-1
 215 148 l 1,12,13
 184 183 184 183 167.5 226.5 c 128,-1,14
 151 270 151 270 151 318 c 0,15,16
 151 365 151 365 167.5 409 c 128,-1,17
 184 453 184 453 214 488 c 1,18,-1
 110 593 l 1,19,-1
 149 634 l 1,20,-1
 256 528 l 1,21,22
 291 556 291 556 334.5 571 c 128,-1,23
 378 586 378 586 425 586 c 256,24,25
 472 586 472 586 516 571 c 128,-1,26
 560 556 560 556 596 529 c 1,27,-1
 701 634 l 1,28,-1
 741 593 l 1,29,-1
 638 489 l 1,30,31
 669 453 669 453 685.5 409.5 c 128,-1,32
 702 366 702 366 702 318 c 256,33,0
 702 270 702 270 685 226 c 128,-1,1
236.5 214 m 128,-1,35
 266 166 266 166 316 138 c 128,-1,36
 366 110 366 110 425 110 c 0,37,38
 485 110 485 110 535.5 138 c 128,-1,39
 586 166 586 166 616 214 c 128,-1,40
 646 262 646 262 646 318 c 0,41,42
 646 375 646 375 616 423 c 128,-1,43
 586 471 586 471 535.5 499.5 c 128,-1,44
 485 528 485 528 425 528 c 0,45,46
 366 528 366 528 316 499.5 c 128,-1,47
 266 471 266 471 236.5 423 c 128,-1,48
 207 375 207 375 207 318 c 0,49,34
 207 262 207 262 236.5 214 c 128,-1,35
EndSplineSet
EndChar

StartChar: yen
Encoding: 165 165 104
Width: 617
Flags: W
LayerCount: 2
Fore
SplineSet
704 700 m 1,0,-1
 392 288 l 1,1,-1
 570 288 l 1,2,-1
 562 247 l 1,3,-1
 360 247 l 1,4,-1
 348 173 l 1,5,-1
 550 173 l 1,6,-1
 542 131 l 1,7,-1
 341 131 l 1,8,-1
 320 0 l 1,9,-1
 251 0 l 1,10,-1
 272 131 l 1,11,-1
 71 131 l 1,12,-1
 79 173 l 1,13,-1
 279 173 l 1,14,-1
 291 247 l 1,15,-1
 91 247 l 1,16,-1
 99 288 l 1,17,-1
 280 288 l 1,18,-1
 99 700 l 1,19,-1
 170 700 l 1,20,-1
 341 326 l 1,21,-1
 632 700 l 1,22,-1
 704 700 l 1,0,-1
EndSplineSet
EndChar

StartChar: brokenbar
Encoding: 166 166 105
Width: 246
Flags: W
LayerCount: 2
Fore
SplineSet
261 817 m 1,0,-1
 191 468 l 1,1,-1
 137 468 l 1,2,-1
 207 817 l 1,3,-1
 261 817 l 1,0,-1
143 227 m 1,4,-1
 73 -123 l 1,5,-1
 19 -123 l 1,6,-1
 89 227 l 1,7,-1
 143 227 l 1,4,-1
EndSplineSet
EndChar

StartChar: section
Encoding: 167 167 106
Width: 472
Flags: W
LayerCount: 2
Fore
SplineSet
72 -54.5 m 128,-1,1
 13 -29 13 -29 -24 16 c 1,2,-1
 9 56 l 1,3,4
 44 15 44 15 92 -7 c 128,-1,5
 140 -29 140 -29 192 -29 c 0,6,7
 249 -29 249 -29 285.5 -3.5 c 128,-1,8
 322 22 322 22 322 62 c 0,9,10
 322 96 322 96 293 117 c 128,-1,11
 264 138 264 138 205 163 c 0,12,13
 157 184 157 184 129.5 200 c 128,-1,14
 102 216 102 216 82 241.5 c 128,-1,15
 62 267 62 267 62 302 c 0,16,17
 62 362 62 362 106 397 c 128,-1,18
 150 432 150 432 228 436 c 1,19,20
 173 462 173 462 148 488.5 c 128,-1,21
 123 515 123 515 123 549 c 0,22,23
 123 611 123 611 171.5 649.5 c 128,-1,24
 220 688 220 688 299 688 c 0,25,26
 351 688 351 688 398.5 671.5 c 128,-1,27
 446 655 446 655 485 624 c 1,28,-1
 453 584 l 1,29,30
 421 610 421 610 380 624 c 128,-1,31
 339 638 339 638 298 638 c 0,32,33
 246 638 246 638 214.5 615 c 128,-1,34
 183 592 183 592 183 554 c 0,35,36
 183 530 183 530 198.5 512.5 c 128,-1,37
 214 495 214 495 236.5 482.5 c 128,-1,38
 259 470 259 470 301 452 c 0,39,40
 347 433 347 433 376 416.5 c 128,-1,41
 405 400 405 400 425 374.5 c 128,-1,42
 445 349 445 349 445 314 c 0,43,44
 445 259 445 259 403 217.5 c 128,-1,45
 361 176 361 176 300 171 c 1,46,47
 344 149 344 149 364 124 c 128,-1,48
 384 99 384 99 384 67 c 0,49,50
 384 24 384 24 360 -9 c 128,-1,51
 336 -42 336 -42 293.5 -61 c 128,-1,52
 251 -80 251 -80 197 -80 c 0,53,0
 131 -80 131 -80 72 -54.5 c 128,-1,1
350 238.5 m 128,-1,55
 382 264 382 264 382 305 c 0,56,57
 382 345 382 345 342.5 370 c 128,-1,58
 303 395 303 395 239 395 c 0,59,60
 187 395 187 395 155.5 373 c 128,-1,61
 124 351 124 351 124 314 c 0,62,63
 124 287 124 287 143.5 264 c 128,-1,64
 163 241 163 241 196 227 c 128,-1,65
 229 213 229 213 267 213 c 0,66,54
 318 213 318 213 350 238.5 c 128,-1,55
EndSplineSet
EndChar

StartChar: copyright
Encoding: 169 169 108
Width: 774
Flags: W
LayerCount: 2
Fore
SplineSet
575.5 643.5 m 128,-1,1
 653 598 653 598 698 520 c 128,-1,2
 743 442 743 442 743 350 c 0,3,4
 743 259 743 259 698 180.5 c 128,-1,5
 653 102 653 102 575 55.5 c 128,-1,6
 497 9 497 9 403 9 c 0,7,8
 310 9 310 9 232.5 55 c 128,-1,9
 155 101 155 101 110.5 179 c 128,-1,10
 66 257 66 257 66 348 c 256,11,12
 66 439 66 439 111 517.5 c 128,-1,13
 156 596 156 596 233.5 642.5 c 128,-1,14
 311 689 311 689 405 689 c 0,15,0
 498 689 498 689 575.5 643.5 c 128,-1,1
253 608 m 128,-1,17
 184 567 184 567 144.5 498 c 128,-1,18
 105 429 105 429 105 348 c 256,19,20
 105 267 105 267 144.5 198.5 c 128,-1,21
 184 130 184 130 252 89.5 c 128,-1,22
 320 49 320 49 403 49 c 0,23,24
 487 49 487 49 556 90 c 128,-1,25
 625 131 625 131 665 200 c 128,-1,26
 705 269 705 269 705 350 c 0,27,28
 705 432 705 432 665.5 500.5 c 128,-1,29
 626 569 626 569 557 609 c 128,-1,30
 488 649 488 649 405 649 c 256,31,16
 322 649 322 649 253 608 c 128,-1,17
479 512.5 m 128,-1,33
 513 499 513 499 539 475 c 1,34,-1
 515 447 l 1,35,36
 494 467 494 467 466.5 478 c 128,-1,37
 439 489 439 489 410 489 c 0,38,39
 371 489 371 489 338 470.5 c 128,-1,40
 305 452 305 452 285.5 420 c 128,-1,41
 266 388 266 388 266 350 c 0,42,43
 266 311 266 311 285.5 278.5 c 128,-1,44
 305 246 305 246 338 227 c 128,-1,45
 371 208 371 208 410 208 c 0,46,47
 438 208 438 208 466 219 c 128,-1,48
 494 230 494 230 515 250 c 1,49,-1
 539 224 l 1,50,51
 513 199 513 199 478.5 185 c 128,-1,52
 444 171 444 171 408 171 c 0,53,54
 358 171 358 171 316.5 195 c 128,-1,55
 275 219 275 219 250.5 259.5 c 128,-1,56
 226 300 226 300 226 349 c 0,57,58
 226 397 226 397 250.5 438 c 128,-1,59
 275 479 275 479 317 502.5 c 128,-1,60
 359 526 359 526 410 526 c 0,61,32
 445 526 445 526 479 512.5 c 128,-1,33
EndSplineSet
EndChar

StartChar: ordfeminine
Encoding: 170 170 109
Width: 380
Flags: W
LayerCount: 2
Fore
SplineSet
372 746.5 m 128,-1,1
 401 724 401 724 401 684 c 0,2,3
 401 669 401 669 399 661 c 2,4,-1
 359 458 l 1,5,-1
 309 458 l 1,6,-1
 320 513 l 1,7,8
 273 456 273 456 195 456 c 0,9,10
 152 456 152 456 125 478 c 128,-1,11
 98 500 98 500 98 535 c 0,12,13
 98 540 98 540 100 552 c 0,14,15
 117 632 117 632 232 633 c 2,16,-1
 343 633 l 1,17,-1
 348 656 l 2,18,19
 350 668 350 668 350 673 c 0,20,21
 350 700 350 700 330 714 c 128,-1,22
 310 728 310 728 272 728 c 0,23,24
 226 728 226 728 161 692 c 1,25,-1
 153 729 l 1,26,27
 229 769 229 769 289 769 c 0,28,0
 343 769 343 769 372 746.5 c 128,-1,1
328 556 m 1,30,-1
 338 604 l 1,31,-1
 236 604 l 2,32,33
 193 604 193 604 170.5 586.5 c 128,-1,34
 148 569 148 569 148 538 c 0,35,36
 148 517 148 517 164 504.5 c 128,-1,37
 180 492 180 492 208 492 c 0,38,29
 285 492 285 492 328 556 c 1,30,-1
EndSplineSet
EndChar

StartChar: logicalnot
Encoding: 172 172 111
Width: 559
Flags: W
LayerCount: 2
Fore
SplineSet
487 382 m 1,0,-1
 478 333 l 1,1,-1
 477 333 l 1,2,-1
 442 153 l 1,3,-1
 389 153 l 1,4,-1
 425 333 l 1,5,-1
 52 333 l 1,6,-1
 62 382 l 1,7,-1
 487 382 l 1,0,-1
EndSplineSet
EndChar

StartChar: registered
Encoding: 174 174 113
Width: 774
Flags: W
LayerCount: 2
Fore
SplineSet
575.5 643.5 m 128,-1,1
 653 598 653 598 698 520 c 128,-1,2
 743 442 743 442 743 350 c 0,3,4
 743 259 743 259 698 180.5 c 128,-1,5
 653 102 653 102 575 55.5 c 128,-1,6
 497 9 497 9 403 9 c 0,7,8
 310 9 310 9 232.5 55 c 128,-1,9
 155 101 155 101 110.5 179 c 128,-1,10
 66 257 66 257 66 348 c 256,11,12
 66 439 66 439 111 517.5 c 128,-1,13
 156 596 156 596 233.5 642.5 c 128,-1,14
 311 689 311 689 405 689 c 0,15,0
 498 689 498 689 575.5 643.5 c 128,-1,1
556 90 m 128,-1,17
 625 131 625 131 665 200 c 128,-1,18
 705 269 705 269 705 350 c 0,19,20
 705 432 705 432 665.5 500.5 c 128,-1,21
 626 569 626 569 557 609 c 128,-1,22
 488 649 488 649 405 649 c 256,23,24
 322 649 322 649 253 608 c 128,-1,25
 184 567 184 567 144.5 498 c 128,-1,26
 105 429 105 429 105 348 c 256,27,28
 105 267 105 267 144.5 198.5 c 128,-1,29
 184 130 184 130 252 89.5 c 128,-1,30
 320 49 320 49 403 49 c 0,31,16
 487 49 487 49 556 90 c 128,-1,17
530 343 m 128,-1,33
 509 313 509 313 469 301 c 1,34,-1
 556 179 l 1,35,-1
 510 179 l 1,36,-1
 434 294 l 1,37,38
 426 293 426 293 410 293 c 2,39,-1
 315 293 l 1,40,-1
 315 179 l 1,41,-1
 277 179 l 1,42,-1
 277 536 l 1,43,-1
 410 536 l 2,44,45
 478 536 478 536 514.5 505 c 128,-1,46
 551 474 551 474 551 417 c 0,47,32
 551 373 551 373 530 343 c 128,-1,33
410 327 m 2,48,49
 460 327 460 327 487 350 c 128,-1,50
 514 373 514 373 514 416 c 0,51,52
 514 458 514 458 487 480 c 128,-1,53
 460 502 460 502 410 502 c 2,54,-1
 315 502 l 1,55,-1
 315 327 l 1,56,-1
 410 327 l 2,48,49
EndSplineSet
EndChar

StartChar: degree
Encoding: 176 176 115
Width: 328
Flags: W
LayerCount: 2
Fore
SplineSet
337.5 787.5 m 128,-1,1
 364 772 364 772 380 746 c 128,-1,2
 396 720 396 720 396 691 c 0,3,4
 396 646 396 646 362 613 c 128,-1,5
 328 580 328 580 281 580 c 0,6,7
 235 580 235 580 201 613 c 128,-1,8
 167 646 167 646 167 691 c 256,9,10
 167 736 167 736 201 769.5 c 128,-1,11
 235 803 235 803 281 803 c 0,12,0
 311 803 311 803 337.5 787.5 c 128,-1,1
224.5 744.5 m 128,-1,14
 201 722 201 722 201 691 c 256,15,16
 201 660 201 660 224.5 637.5 c 128,-1,17
 248 615 248 615 281 615 c 256,18,19
 314 615 314 615 337.5 637.5 c 128,-1,20
 361 660 361 660 361 691 c 256,21,22
 361 722 361 722 337.5 744.5 c 128,-1,23
 314 767 314 767 281 767 c 256,24,13
 248 767 248 767 224.5 744.5 c 128,-1,14
EndSplineSet
EndChar

StartChar: plusminus
Encoding: 177 177 116
Width: 553
Flags: W
LayerCount: 2
Fore
SplineSet
203 175 m 1,0,-1
 239 355 l 1,1,-1
 57 355 l 1,2,-1
 66 404 l 1,3,-1
 249 404 l 1,4,-1
 286 585 l 1,5,-1
 334 585 l 1,6,-1
 297 404 l 1,7,-1
 480 404 l 1,8,-1
 471 355 l 1,9,-1
 287 355 l 1,10,-1
 251 175 l 1,11,-1
 203 175 l 1,0,-1
67 87 m 1,12,-1
 481 87 l 1,13,-1
 471 37 l 1,14,-1
 57 37 l 1,15,-1
 67 87 l 1,12,-1
EndSplineSet
EndChar

StartChar: uni00B5
Encoding: 181 181 120
Width: 677
Flags: W
LayerCount: 2
Fore
SplineSet
631 524 m 1,0,-1
 527 0 l 1,1,-1
 459 0 l 1,2,-1
 481 111 l 1,3,4
 446 55 446 55 392.5 26 c 128,-1,5
 339 -3 339 -3 271 -4 c 0,6,7
 178 -4 178 -4 129 45 c 1,8,-1
 81 -194 l 1,9,-1
 13 -194 l 1,10,-1
 89 190 l 1,11,-1
 93 212 l 1,12,-1
 156 524 l 1,13,-1
 224 524 l 1,14,-1
 161 208 l 2,15,16
 159 197 159 197 159 178 c 0,17,18
 159 121 159 121 194 89 c 128,-1,19
 229 57 229 57 292 57 c 0,20,21
 373 59 373 59 432 109.5 c 128,-1,22
 491 160 491 160 508 247 c 2,23,-1
 563 524 l 1,24,-1
 631 524 l 1,0,-1
EndSplineSet
EndChar

StartChar: paragraph
Encoding: 182 182 121
Width: 586
Flags: W
LayerCount: 2
Fore
SplineSet
402 -110 m 1,0,-1
 348 -110 l 1,1,-1
 509 696 l 1,2,-1
 352 696 l 1,3,-1
 191 -110 l 1,4,-1
 138 -110 l 1,5,-1
 238 388 l 1,6,7
 225 387 225 387 203 387 c 0,8,9
 126 387 126 387 92.5 425.5 c 128,-1,10
 59 464 59 464 59 520 c 0,11,12
 59 544 59 544 63 561 c 0,13,14
 78 637 78 637 140.5 689.5 c 128,-1,15
 203 742 203 742 309 742 c 2,16,-1
 572 742 l 1,17,-1
 402 -110 l 1,0,-1
EndSplineSet
EndChar

StartChar: ordmasculine
Encoding: 186 186 125
Width: 405
Flags: W
LayerCount: 2
Fore
SplineSet
395 730 m 128,-1,1
 436 692 436 692 436 630 c 0,2,3
 436 580 436 580 412.5 540.5 c 128,-1,4
 389 501 389 501 348.5 479 c 128,-1,5
 308 457 308 457 258 457 c 0,6,7
 191 457 191 457 150 495 c 128,-1,8
 109 533 109 533 109 595 c 0,9,10
 109 645 109 645 132 684.5 c 128,-1,11
 155 724 155 724 195.5 746 c 128,-1,12
 236 768 236 768 287 768 c 0,13,0
 354 768 354 768 395 730 c 128,-1,1
195 690 m 128,-1,15
 160 654 160 654 160 598 c 0,16,17
 160 553 160 553 188 525.5 c 128,-1,18
 216 498 216 498 261 498 c 0,19,20
 315 498 315 498 349.5 534 c 128,-1,21
 384 570 384 570 384 627 c 0,22,23
 384 671 384 671 356.5 698.5 c 128,-1,24
 329 726 329 726 284 726 c 0,25,14
 230 726 230 726 195 690 c 128,-1,15
EndSplineSet
EndChar

StartChar: questiondown
Encoding: 191 191 130
Width: 421
Flags: W
LayerCount: 2
Fore
SplineSet
185.5 450.5 m 128,-1,1
 174 462 174 462 174 481 c 0,2,3
 174 501 174 501 188.5 516 c 128,-1,4
 203 531 203 531 223 531 c 0,5,6
 241 531 241 531 252 519.5 c 128,-1,7
 263 508 263 508 263 489 c 0,8,9
 263 468 263 468 249 453.5 c 128,-1,10
 235 439 235 439 215 439 c 0,11,0
 197 439 197 439 185.5 450.5 c 128,-1,1
296.5 -118.5 m 128,-1,13
 242 -164 242 -164 157 -164 c 0,14,15
 77 -164 77 -164 30.5 -124 c 128,-1,16
 -16 -84 -16 -84 -16 -14 c 0,17,18
 -16 24 -16 24 -2 55 c 128,-1,19
 12 86 12 86 32 109.5 c 128,-1,20
 52 133 52 133 86 165 c 0,21,22
 130 209 130 209 151 238 c 128,-1,23
 172 267 172 267 175 306 c 1,24,-1
 229 306 l 1,25,26
 225 255 225 255 200.5 218.5 c 128,-1,27
 176 182 176 182 132 139 c 0,28,29
 90 97 90 97 69 65.5 c 128,-1,30
 48 34 48 34 48 -8 c 0,31,32
 48 -55 48 -55 78 -80 c 128,-1,33
 108 -105 108 -105 164 -105 c 0,34,35
 225 -105 225 -105 261.5 -76 c 128,-1,36
 298 -47 298 -47 308 8 c 1,37,-1
 363 7 l 1,38,12
 351 -73 351 -73 296.5 -118.5 c 128,-1,13
EndSplineSet
Substitution2: "<3,3> Small Caps in Latin lookup 11 subtable" questiondown.sc
EndChar

StartChar: AE
Encoding: 198 198 137
Width: 1019
Flags: W
LayerCount: 2
Fore
SplineSet
1023 636 m 1,0,-1
 624 636 l 1,1,-1
 573 387 l 1,2,-1
 930 387 l 1,3,-1
 918 324 l 1,4,-1
 561 324 l 1,5,-1
 508 63 l 1,6,-1
 920 63 l 1,7,-1
 908 0 l 1,8,-1
 427 0 l 1,9,-1
 467 198 l 1,10,-1
 183 198 l 1,11,-1
 28 0 l 1,12,-1
 -47 0 l 1,13,-1
 507 700 l 1,14,-1
 1035 700 l 1,15,-1
 1023 636 l 1,0,-1
227 254 m 1,16,-1
 478 254 l 1,17,-1
 555 641 l 1,18,-1
 531 641 l 1,19,-1
 227 254 l 1,16,-1
EndSplineSet
EndChar

StartChar: Ccedilla
Encoding: 199 199 138
Width: 728
Flags: W
LayerCount: 2
Fore
SplineSet
296 599.5 m 128,-1,1
 221 556 221 556 176.5 482.5 c 128,-1,2
 132 409 132 409 132 322 c 0,3,4
 132 249 132 249 166.5 189 c 128,-1,5
 201 129 201 129 262 94 c 128,-1,6
 323 59 323 59 398 59 c 0,7,8
 457 59 457 59 514 81.5 c 128,-1,9
 571 104 571 104 617 144 c 1,10,-1
 655 99 l 1,11,12
 599 51 599 51 530 23 c 128,-1,13
 461 -5 461 -5 392 -6 c 1,14,-1
 368 -52 l 1,15,16
 401 -56 401 -56 418 -74 c 128,-1,17
 435 -92 435 -92 435 -117 c 0,18,19
 435 -160 435 -160 400 -188 c 128,-1,20
 365 -216 365 -216 313 -216 c 0,21,22
 291 -216 291 -216 269 -210 c 128,-1,23
 247 -204 247 -204 231 -194 c 1,24,-1
 256 -148 l 1,25,26
 268 -155 268 -155 283.5 -159.5 c 128,-1,27
 299 -164 299 -164 314 -164 c 0,28,29
 342 -164 342 -164 359.5 -149.5 c 128,-1,30
 377 -135 377 -135 377 -117 c 0,31,32
 377 -102 377 -102 365 -92.5 c 128,-1,33
 353 -83 353 -83 331 -83 c 2,34,-1
 301 -83 l 1,35,-1
 340 -3 l 1,36,37
 259 8 259 8 196 52.5 c 128,-1,38
 133 97 133 97 97.5 166.5 c 128,-1,39
 62 236 62 236 62 318 c 0,40,41
 62 422 62 422 117 511 c 128,-1,42
 172 600 172 600 264 652.5 c 128,-1,43
 356 705 356 705 461 705 c 0,44,45
 532 705 532 705 595.5 678.5 c 128,-1,46
 659 652 659 652 705 605 c 1,47,-1
 659 556 l 1,48,49
 620 598 620 598 568 620.5 c 128,-1,50
 516 643 516 643 457 643 c 0,51,0
 371 643 371 643 296 599.5 c 128,-1,1
EndSplineSet
EndChar

StartChar: multiply
Encoding: 215 215 154
Width: 541
Flags: W
LayerCount: 2
Fore
SplineSet
445 451 m 1,0,-1
 316 322 l 1,1,-1
 445 193 l 1,2,-1
 412 159 l 1,3,-1
 283 289 l 1,4,-1
 153 159 l 1,5,-1
 120 193 l 1,6,-1
 249 322 l 1,7,-1
 120 451 l 1,8,-1
 153 486 l 1,9,-1
 283 356 l 1,10,-1
 412 486 l 1,11,-1
 445 451 l 1,0,-1
EndSplineSet
EndChar

StartChar: Oslash
Encoding: 216 216 155
Width: 819
Flags: W
LayerCount: 2
Fore
SplineSet
760.5 530 m 128,-1,1
 794 463 794 463 794 384 c 0,2,3
 794 279 794 279 739 189.5 c 128,-1,4
 684 100 684 100 591.5 47 c 128,-1,5
 499 -6 499 -6 393 -6 c 0,6,7
 298 -6 298 -6 220 39 c 1,8,-1
 151 -55 l 1,9,-1
 90 -55 l 1,10,-1
 180 66 l 1,11,12
 124 111 124 111 93 176 c 128,-1,13
 62 241 62 241 62 318 c 0,14,15
 62 423 62 423 117 512 c 128,-1,16
 172 601 172 601 264.5 653 c 128,-1,17
 357 705 357 705 463 705 c 0,18,19
 550 705 550 705 624 667 c 1,20,-1
 689 755 l 1,21,-1
 751 755 l 1,22,-1
 667 641 l 1,23,0
 727 597 727 597 760.5 530 c 128,-1,1
155.5 211 m 128,-1,25
 179 160 179 160 221 122 c 1,26,-1
 583 612 l 1,27,28
 525 642 525 642 458 642 c 0,29,30
 373 642 373 642 298 598.5 c 128,-1,31
 223 555 223 555 177.5 481.5 c 128,-1,32
 132 408 132 408 132 322 c 0,33,24
 132 262 132 262 155.5 211 c 128,-1,25
697 495 m 128,-1,35
 671 549 671 549 625 585 c 1,36,-1
 261 93 l 1,37,38
 324 57 324 57 399 57 c 0,39,40
 483 57 483 57 558 101 c 128,-1,41
 633 145 633 145 678 218.5 c 128,-1,42
 723 292 723 292 723 378 c 0,43,34
 723 441 723 441 697 495 c 128,-1,35
EndSplineSet
EndChar

StartChar: Thorn
Encoding: 222 222 161
Width: 684
Flags: W
LayerCount: 2
Fore
SplineSet
604 547.5 m 128,-1,1
 669 501 669 501 669 411 c 0,2,3
 669 279 669 279 579.5 205.5 c 128,-1,4
 490 132 490 132 320 132 c 2,5,-1
 153 132 l 1,6,-1
 127 0 l 1,7,-1
 58 0 l 1,8,-1
 198 700 l 1,9,-1
 267 700 l 1,10,-1
 246 594 l 1,11,-1
 412 594 l 2,12,0
 539 594 539 594 604 547.5 c 128,-1,1
529.5 245 m 128,-1,14
 597 299 597 299 597 399 c 0,15,16
 597 536 597 536 399 536 c 2,17,-1
 234 536 l 1,18,-1
 165 191 l 1,19,-1
 329 191 l 2,20,13
 462 191 462 191 529.5 245 c 128,-1,14
EndSplineSet
EndChar

StartChar: germandbls
Encoding: 223 223 162
Width: 649
Flags: W
LayerCount: 2
Fore
SplineSet
559.5 702.5 m 128,-1,1
 611 660 611 660 611 591 c 0,2,3
 611 516 611 516 564 457.5 c 128,-1,4
 517 399 517 399 440 379 c 1,5,6
 505 369 505 369 542 330 c 128,-1,7
 579 291 579 291 579 234 c 0,8,9
 579 166 579 166 541 113 c 128,-1,10
 503 60 503 60 436 30 c 128,-1,11
 369 0 369 0 285 0 c 2,12,-1
 232 0 l 1,13,-1
 242 54 l 1,14,-1
 299 54 l 2,15,16
 355 54 355 54 401.5 74.5 c 128,-1,17
 448 95 448 95 477 131 c 128,-1,18
 506 167 506 167 511 213 c 0,19,20
 512 219 512 219 512 229 c 0,21,22
 512 284 512 284 467 314.5 c 128,-1,23
 422 345 422 345 342 345 c 2,24,-1
 333 345 l 1,25,-1
 342 399 l 1,26,27
 400 399 400 399 446 422 c 128,-1,28
 492 445 492 445 518 486.5 c 128,-1,29
 544 528 544 528 544 581 c 0,30,31
 544 631 544 631 510.5 659.5 c 128,-1,32
 477 688 477 688 418 688 c 0,33,34
 340 688 340 688 283 635.5 c 128,-1,35
 226 583 226 583 208 495 c 2,36,-1
 109 0 l 1,37,-1
 42 0 l 1,38,-1
 140 492 l 2,39,40
 164 610 164 610 239.5 677.5 c 128,-1,41
 315 745 315 745 423 745 c 0,42,0
 508 745 508 745 559.5 702.5 c 128,-1,1
EndSplineSet
Substitution2: "<3,3> Small Caps in Latin lookup 11 subtable" germandbls.sc
EndChar

StartChar: ae
Encoding: 230 230 169
Width: 967
Flags: W
LayerCount: 2
Fore
SplineSet
72.5 36 m 128,-1,1
 27 75 27 75 27 139 c 0,2,3
 27 211 27 211 82.5 252 c 128,-1,4
 138 293 138 293 237 293 c 2,5,-1
 415 293 l 1,6,-1
 419 342 l 1,7,-1
 420 357 l 2,8,9
 420 412 420 412 385.5 441 c 128,-1,10
 351 470 351 470 285 470 c 0,11,12
 199 470 199 470 100 407 c 1,13,-1
 82 457 l 1,14,15
 197 527 197 527 298 527 c 0,16,17
 372 527 372 527 417.5 496.5 c 128,-1,18
 463 466 463 466 474 410 c 1,19,20
 511 466 511 466 568.5 496.5 c 128,-1,21
 626 527 626 527 695 527 c 0,22,23
 765 527 765 527 817.5 497 c 128,-1,24
 870 467 870 467 898.5 412.5 c 128,-1,25
 927 358 927 358 927 287 c 0,26,27
 927 276 927 276 925 250 c 1,28,-1
 480 250 l 1,29,-1
 478 228 l 2,30,31
 474 182 474 182 497.5 142 c 128,-1,32
 521 102 521 102 564.5 78 c 128,-1,33
 608 54 608 54 659 54 c 0,34,35
 709 54 709 54 753.5 72 c 128,-1,36
 798 90 798 90 833 123 c 1,37,-1
 869 83 l 1,38,39
 826 41 826 41 771.5 19.5 c 128,-1,40
 717 -2 717 -2 654 -2 c 0,41,42
 575 -2 575 -2 516 37 c 128,-1,43
 457 76 457 76 433 141 c 1,44,45
 357 -3 357 -3 194 -3 c 0,46,0
 118 -3 118 -3 72.5 36 c 128,-1,1
861 292 m 1,47,48
 864 375 864 375 818.5 425 c 128,-1,49
 773 475 773 475 695 475 c 0,50,51
 616 475 616 475 557 424 c 128,-1,52
 498 373 498 373 483 292 c 1,53,-1
 861 292 l 1,47,48
323 79 m 128,-1,55
 371 110 371 110 405 177 c 1,56,-1
 412 252 l 1,57,-1
 246 252 l 2,58,59
 173 253 173 253 132 224 c 128,-1,60
 91 195 91 195 91 143 c 0,61,62
 91 100 91 100 122.5 74 c 128,-1,63
 154 48 154 48 207 48 c 0,64,54
 275 48 275 48 323 79 c 128,-1,55
EndSplineSet
Substitution2: "<3,3> Small Caps in Latin lookup 11 subtable" ae.sc
EndChar

StartChar: ccedilla
Encoding: 231 231 170
Width: 581
Flags: W
LayerCount: 2
Fore
SplineSet
384 74.5 m 128,-1,1
 428 92 428 92 460 126 c 1,2,-1
 495 86 l 1,3,4
 456 45 456 45 402 22 c 128,-1,5
 348 -1 348 -1 285 -2 c 1,6,-1
 259 -52 l 1,7,8
 292 -56 292 -56 309 -74 c 128,-1,9
 326 -92 326 -92 326 -117 c 0,10,11
 326 -160 326 -160 291 -188 c 128,-1,12
 256 -216 256 -216 204 -216 c 0,13,14
 182 -216 182 -216 160 -210 c 128,-1,15
 138 -204 138 -204 122 -194 c 1,16,-1
 147 -148 l 1,17,18
 159 -155 159 -155 174.5 -159.5 c 128,-1,19
 190 -164 190 -164 205 -164 c 0,20,21
 233 -164 233 -164 250.5 -149.5 c 128,-1,22
 268 -135 268 -135 268 -117 c 0,23,24
 268 -102 268 -102 256 -92.5 c 128,-1,25
 244 -83 244 -83 222 -83 c 2,26,-1
 192 -83 l 1,27,-1
 233 2 l 1,28,29
 147 16 147 16 96 79 c 128,-1,30
 45 142 45 142 45 236 c 0,31,32
 45 319 45 319 83 385.5 c 128,-1,33
 121 452 121 452 186.5 489.5 c 128,-1,34
 252 527 252 527 332 527 c 0,35,36
 392 527 392 527 441 507 c 128,-1,37
 490 487 490 487 522 451 c 1,38,-1
 480 405 l 1,39,40
 421 467 421 467 329 467 c 0,41,42
 269 467 269 467 219 438 c 128,-1,43
 169 409 169 409 140.5 357.5 c 128,-1,44
 112 306 112 306 112 241 c 0,45,46
 112 159 112 159 160.5 108 c 128,-1,47
 209 57 209 57 288 57 c 0,48,0
 340 57 340 57 384 74.5 c 128,-1,1
EndSplineSet
Substitution2: "<3,3> Small Caps in Latin lookup 11 subtable" ccedilla.sc
EndChar

StartChar: eth
Encoding: 240 240 179
Width: 582
Flags: W
LayerCount: 2
Fore
SplineSet
412 609 m 1,0,1
 473 538 473 538 505.5 456 c 128,-1,2
 538 374 538 374 538 291 c 0,3,4
 538 202 538 202 504.5 136 c 128,-1,5
 471 70 471 70 409 34 c 128,-1,6
 347 -2 347 -2 264 -2 c 0,7,8
 162 -2 162 -2 101.5 52 c 128,-1,9
 41 106 41 106 41 197 c 0,10,11
 41 268 41 268 72 323.5 c 128,-1,12
 103 379 103 379 159 410 c 128,-1,13
 215 441 215 441 287 441 c 0,14,15
 354 441 354 441 406 411.5 c 128,-1,16
 458 382 458 382 478 333 c 1,17,18
 469 397 469 397 437 462 c 128,-1,19
 405 527 405 527 355 585 c 1,20,-1
 168 506 l 1,21,-1
 153 544 l 1,22,-1
 325 617 l 1,23,24
 267 673 267 673 201 713 c 1,25,-1
 248 746 l 1,26,27
 324 700 324 700 382 641 c 1,28,-1
 531 704 l 1,29,-1
 547 666 l 1,30,-1
 412 609 l 1,0,1
368.5 82.5 m 128,-1,32
 413 106 413 106 437.5 148.5 c 128,-1,33
 462 191 462 191 462 245 c 0,34,35
 462 311 462 311 418.5 350 c 128,-1,36
 375 389 375 389 299 389 c 0,37,38
 243 389 243 389 199.5 365 c 128,-1,39
 156 341 156 341 131.5 298.5 c 128,-1,40
 107 256 107 256 107 202 c 0,41,42
 107 136 107 136 150 97.5 c 128,-1,43
 193 59 193 59 267 59 c 0,44,31
 324 59 324 59 368.5 82.5 c 128,-1,32
EndSplineSet
Substitution2: "<3,3> Small Caps in Latin lookup 11 subtable" eth.sc
EndChar

StartChar: divide
Encoding: 247 247 186
Width: 489
Flags: W
LayerCount: 2
Fore
SplineSet
322 537 m 128,-1,1
 332 526 332 526 332 509 c 0,2,3
 332 487 332 487 316 471.5 c 128,-1,4
 300 456 300 456 278 456 c 0,5,6
 262 456 262 456 252 467 c 128,-1,7
 242 478 242 478 242 494 c 0,8,9
 242 516 242 516 258.5 532 c 128,-1,10
 275 548 275 548 296 548 c 0,11,0
 312 548 312 548 322 537 c 128,-1,1
468 347 m 1,12,-1
 459 297 l 1,13,-1
 45 297 l 1,14,-1
 54 347 l 1,15,-1
 468 347 l 1,12,-1
252 184 m 128,-1,17
 262 173 262 173 262 156 c 0,18,19
 262 134 262 134 246 118.5 c 128,-1,20
 230 103 230 103 208 103 c 0,21,22
 192 103 192 103 182 114 c 128,-1,23
 172 125 172 125 172 141 c 0,24,25
 172 163 172 163 188.5 179 c 128,-1,26
 205 195 205 195 226 195 c 0,27,16
 242 195 242 195 252 184 c 128,-1,17
EndSplineSet
EndChar

StartChar: oslash
Encoding: 248 248 187
Width: 621
Flags: W
LayerCount: 2
Fore
SplineSet
553.5 399.5 m 128,-1,1
 577 350 577 350 577 288 c 0,2,3
 577 205 577 205 538.5 139 c 128,-1,4
 500 73 500 73 433 35.5 c 128,-1,5
 366 -2 366 -2 284 -2 c 0,6,7
 219 -2 219 -2 167 24 c 1,8,-1
 78 -103 l 1,9,-1
 26 -103 l 1,10,-1
 131 47 l 1,11,12
 90 79 90 79 67.5 128 c 128,-1,13
 45 177 45 177 45 237 c 0,14,15
 45 320 45 320 83.5 386 c 128,-1,16
 122 452 122 452 188.5 489.5 c 128,-1,17
 255 527 255 527 337 527 c 0,18,19
 399 527 399 527 451 502 c 1,20,-1
 539 627 l 1,21,-1
 590 627 l 1,22,-1
 487 481 l 1,23,0
 530 449 530 449 553.5 399.5 c 128,-1,1
124 159 m 128,-1,25
 139 122 139 122 166 96 c 1,26,-1
 416 452 l 1,27,28
 378 471 378 471 332 471 c 0,29,30
 270 471 270 471 219 441.5 c 128,-1,31
 168 412 168 412 138.5 359 c 128,-1,32
 109 306 109 306 109 240 c 0,33,24
 109 196 109 196 124 159 c 128,-1,25
402 81.5 m 128,-1,35
 453 111 453 111 482.5 164 c 128,-1,36
 512 217 512 217 512 284 c 0,37,38
 512 330 512 330 496 367 c 128,-1,39
 480 404 480 404 451 429 c 1,40,-1
 201 72 l 1,41,42
 239 52 239 52 289 52 c 0,43,34
 351 52 351 52 402 81.5 c 128,-1,35
EndSplineSet
Substitution2: "<3,3> Small Caps in Latin lookup 11 subtable" oslash.sc
EndChar

StartChar: thorn
Encoding: 254 254 193
Width: 681
Flags: W
LayerCount: 2
Fore
SplineSet
529.5 498.5 m 128,-1,1
 581 469 581 469 609.5 416 c 128,-1,2
 638 363 638 363 638 295 c 0,3,4
 638 212 638 212 600 143.5 c 128,-1,5
 562 75 562 75 497 35.5 c 128,-1,6
 432 -4 432 -4 353 -4 c 256,7,8
 274 -4 274 -4 219.5 35.5 c 128,-1,9
 165 75 165 75 147 144 c 1,10,-1
 79 -194 l 1,11,-1
 12 -194 l 1,12,-1
 199 742 l 1,13,-1
 266 742 l 1,14,-1
 201 423 l 1,15,16
 239 473 239 473 294 500.5 c 128,-1,17
 349 528 349 528 412 528 c 0,18,0
 478 528 478 528 529.5 498.5 c 128,-1,1
279.5 439.5 m 128,-1,20
 229 408 229 408 199.5 354.5 c 128,-1,21
 170 301 170 301 170 237 c 0,22,23
 170 156 170 156 219 106 c 128,-1,24
 268 56 268 56 347 56 c 0,25,26
 408 56 408 56 459 87.5 c 128,-1,27
 510 119 510 119 540 173 c 128,-1,28
 570 227 570 227 570 291 c 0,29,30
 570 372 570 372 520.5 421.5 c 128,-1,31
 471 471 471 471 391 471 c 0,32,19
 330 471 330 471 279.5 439.5 c 128,-1,20
EndSplineSet
Substitution2: "<3,3> Small Caps in Latin lookup 11 subtable" thorn.sc
EndChar

StartChar: Aogonek
Encoding: 260 260 199
Width: 712
Flags: W
LayerCount: 2
Fore
SplineSet
606 -148 m 1,1,-1
 616 -194 l 1,2,3
 574 -215 574 -215 534 -215 c 0,4,5
 499 -215 499 -215 479 -198 c 128,-1,6
 459 -181 459 -181 459 -149 c 0,7,8
 459 -109 459 -109 487.5 -72 c 128,-1,9
 516 -35 516 -35 579 4 c 1,10,-1
 528 186 l 1,11,-1
 139 186 l 1,12,-1
 26 0 l 1,13,-1
 -47 0 l 1,14,-1
 383 700 l 1,15,-1
 455 700 l 1,16,-1
 654 1 l 1,17,-1
 655 0 l 1,18,19
 584 -43 584 -43 554.5 -72 c 128,-1,20
 525 -101 525 -101 525 -131 c 0,21,22
 525 -146 525 -146 534 -154 c 128,-1,23
 543 -162 543 -162 557 -162 c 0,24,0
 582 -162 582 -162 606 -148 c 1,1,-1
176 248 m 1,25,-1
 511 248 l 1,26,-1
 405 627 l 1,27,-1
 176 248 l 1,25,-1
EndSplineSet
EndChar

StartChar: aogonek
Encoding: 261 261 200
Width: 676
Flags: W
LayerCount: 2
Fore
SplineSet
426.5 -72 m 128,-1,1
 397 -101 397 -101 397 -131 c 0,2,3
 397 -146 397 -146 406 -154 c 128,-1,4
 415 -162 415 -162 429 -162 c 0,5,6
 454 -162 454 -162 478 -148 c 1,7,-1
 488 -194 l 1,8,9
 446 -215 446 -215 406 -215 c 0,10,11
 371 -215 371 -215 351 -198 c 128,-1,12
 331 -181 331 -181 331 -149 c 0,13,14
 331 -108 331 -108 362 -69.5 c 128,-1,15
 393 -31 393 -31 461 10 c 1,16,-1
 480 101 l 1,17,18
 442 51 442 51 387 23.5 c 128,-1,19
 332 -4 332 -4 269 -4 c 0,20,21
 203 -4 203 -4 151.5 25.5 c 128,-1,22
 100 55 100 55 71.5 108 c 128,-1,23
 43 161 43 161 43 229 c 0,24,25
 43 312 43 312 81 380.5 c 128,-1,26
 119 449 119 449 184 488.5 c 128,-1,27
 249 528 249 528 328 528 c 256,28,29
 407 528 407 528 461.5 489 c 128,-1,30
 516 450 516 450 534 381 c 1,31,-1
 563 524 l 1,32,-1
 630 524 l 1,33,-1
 526 1 l 1,34,-1
 527 0 l 1,35,0
 456 -43 456 -43 426.5 -72 c 128,-1,1
401 84.5 m 128,-1,37
 452 116 452 116 481.5 170 c 128,-1,38
 511 224 511 224 511 288 c 0,39,40
 511 368 511 368 462 418 c 128,-1,41
 413 468 413 468 334 468 c 0,42,43
 273 468 273 468 222 436.5 c 128,-1,44
 171 405 171 405 141 351 c 128,-1,45
 111 297 111 297 111 233 c 0,46,47
 111 153 111 153 160.5 103 c 128,-1,48
 210 53 210 53 290 53 c 0,49,36
 350 53 350 53 401 84.5 c 128,-1,37
EndSplineSet
Substitution2: "<3,3> Small Caps in Latin lookup 11 subtable" aogonek.sc
EndChar

StartChar: Dcroat
Encoding: 272 272 211
Width: 795
Flags: W
LayerCount: 2
Fore
SplineSet
623.5 661.5 m 128,-1,1
 694 623 694 623 733.5 555.5 c 128,-1,2
 773 488 773 488 773 403 c 0,3,4
 773 392 773 392 771 366 c 0,5,6
 761 265 761 265 702 181 c 128,-1,7
 643 97 643 97 551 48.5 c 128,-1,8
 459 0 459 0 355 0 c 2,9,-1
 59 0 l 1,10,-1
 124 328 l 1,11,-1
 49 328 l 1,12,-1
 57 372 l 1,13,-1
 133 372 l 1,14,-1
 198 700 l 1,15,-1
 462 700 l 2,16,0
 553 700 553 700 623.5 661.5 c 128,-1,1
703 394 m 0,18,19
 703 463 703 463 670.5 518 c 128,-1,20
 638 573 638 573 581 604.5 c 128,-1,21
 524 636 524 636 452 636 c 2,22,-1
 255 636 l 1,23,-1
 202 372 l 1,24,-1
 421 372 l 1,25,-1
 412 328 l 1,26,-1
 193 328 l 1,27,-1
 140 63 l 1,28,-1
 367 63 l 2,29,30
 449 63 449 63 522.5 102.5 c 128,-1,31
 596 142 596 142 644 210.5 c 128,-1,32
 692 279 692 279 701 362 c 0,33,17
 703 384 703 384 703 394 c 0,18,19
EndSplineSet
EndChar

StartChar: dcroat
Encoding: 273 273 212
Width: 682
Flags: W
LayerCount: 2
Fore
SplineSet
722 604 m 1,0,-1
 647 604 l 1,1,-1
 527 0 l 1,2,-1
 460 0 l 1,3,-1
 480 99 l 1,4,5
 442 50 442 50 387.5 23 c 128,-1,6
 333 -4 333 -4 270 -4 c 0,7,8
 204 -4 204 -4 152 25 c 128,-1,9
 100 54 100 54 71.5 106 c 128,-1,10
 43 158 43 158 43 226 c 0,11,12
 43 307 43 307 80.5 373.5 c 128,-1,13
 118 440 118 440 183 478.5 c 128,-1,14
 248 517 248 517 327 517 c 256,15,16
 406 517 406 517 460.5 479 c 128,-1,17
 515 441 515 441 534 374 c 1,18,-1
 580 604 l 1,19,-1
 353 604 l 1,20,-1
 361 648 l 1,21,-1
 588 648 l 1,22,-1
 607 742 l 1,23,-1
 674 742 l 1,24,-1
 655 648 l 1,25,-1
 731 648 l 1,26,-1
 722 604 l 1,0,-1
401.5 83.5 m 128,-1,28
 452 114 452 114 481.5 166.5 c 128,-1,29
 511 219 511 219 511 281 c 0,30,31
 511 360 511 360 462 408.5 c 128,-1,32
 413 457 413 457 333 457 c 0,33,34
 272 457 272 457 221.5 426.5 c 128,-1,35
 171 396 171 396 141 343.5 c 128,-1,36
 111 291 111 291 111 229 c 0,37,38
 111 150 111 150 160.5 101.5 c 128,-1,39
 210 53 210 53 290 53 c 0,40,27
 351 53 351 53 401.5 83.5 c 128,-1,28
EndSplineSet
Substitution2: "<3,3> Small Caps in Latin lookup 11 subtable" dcroat.sc
EndChar

StartChar: Eogonek
Encoding: 280 280 219
Width: 650
Flags: W
LayerCount: 2
Fore
SplineSet
254 636 m 1,0,-1
 204 387 l 1,1,-1
 561 387 l 1,2,-1
 548 324 l 1,3,-1
 191 324 l 1,4,-1
 139 63 l 1,5,-1
 551 63 l 1,6,-1
 539 1 l 1,7,-1
 540 0 l 1,8,9
 469 -43 469 -43 439.5 -72 c 128,-1,10
 410 -101 410 -101 410 -131 c 0,11,12
 410 -146 410 -146 419 -154 c 128,-1,13
 428 -162 428 -162 442 -162 c 0,14,15
 467 -162 467 -162 491 -148 c 1,16,-1
 501 -194 l 1,17,18
 459 -215 459 -215 419 -215 c 0,19,20
 384 -215 384 -215 364 -198 c 128,-1,21
 344 -181 344 -181 344 -149 c 0,22,23
 344 -111 344 -111 371.5 -74 c 128,-1,24
 399 -37 399 -37 458 0 c 1,25,-1
 58 0 l 1,26,-1
 198 700 l 1,27,-1
 666 700 l 1,28,-1
 654 636 l 1,29,-1
 254 636 l 1,0,-1
EndSplineSet
EndChar

StartChar: eogonek
Encoding: 281 281 220
Width: 599
Flags: W
LayerCount: 2
Fore
SplineSet
111 239 m 1,0,-1
 111 236 l 2,1,2
 111 153 111 153 160.5 103 c 128,-1,3
 210 53 210 53 293 53 c 0,4,5
 341 53 341 53 384 69 c 128,-1,6
 427 85 427 85 460 115 c 1,7,-1
 492 71 l 1,8,9
 474 55 474 55 453 41 c 0,10,11
 391 -4 391 -4 354 -50 c 128,-1,12
 317 -96 317 -96 317 -130 c 0,13,14
 317 -146 317 -146 325.5 -154 c 128,-1,15
 334 -162 334 -162 349 -162 c 0,16,17
 373 -162 373 -162 398 -148 c 1,18,-1
 407 -194 l 1,19,20
 365 -215 365 -215 325 -215 c 0,21,22
 291 -215 291 -215 271.5 -196 c 128,-1,23
 252 -177 252 -177 252 -143 c 0,24,25
 252 -76 252 -76 341 1 c 1,26,27
 318 -3 318 -3 290 -3 c 0,28,29
 217 -3 217 -3 161.5 27 c 128,-1,30
 106 57 106 57 75.5 111 c 128,-1,31
 45 165 45 165 45 236 c 0,32,33
 45 318 45 318 83 384.5 c 128,-1,34
 121 451 121 451 187.5 489 c 128,-1,35
 254 527 254 527 334 527 c 0,36,37
 438 527 438 527 498.5 465 c 128,-1,38
 559 403 559 403 559 299 c 0,39,40
 559 274 559 274 554 239 c 1,41,-1
 111 239 l 1,0,-1
193.5 421 m 128,-1,43
 134 372 134 372 117 292 c 1,44,-1
 499 292 l 1,45,46
 500 375 500 375 456.5 422.5 c 128,-1,47
 413 470 413 470 334 470 c 0,48,42
 253 470 253 470 193.5 421 c 128,-1,43
EndSplineSet
Substitution2: "<3,3> Small Caps in Latin lookup 11 subtable" eogonek.sc
EndChar

StartChar: Hbar
Encoding: 294 294 233
Width: 835
Flags: W
LayerCount: 2
Fore
SplineSet
851 570 m 1,0,-1
 843 525 l 1,1,-1
 758 525 l 1,2,-1
 653 0 l 1,3,-1
 584 0 l 1,4,-1
 647 316 l 1,5,-1
 210 316 l 1,6,-1
 147 0 l 1,7,-1
 78 0 l 1,8,-1
 183 525 l 1,9,-1
 98 525 l 1,10,-1
 106 570 l 1,11,-1
 192 570 l 1,12,-1
 218 700 l 1,13,-1
 287 700 l 1,14,-1
 261 570 l 1,15,-1
 698 570 l 1,16,-1
 724 700 l 1,17,-1
 793 700 l 1,18,-1
 767 570 l 1,19,-1
 851 570 l 1,0,-1
660 379 m 1,20,-1
 689 525 l 1,21,-1
 252 525 l 1,22,-1
 223 379 l 1,23,-1
 660 379 l 1,20,-1
EndSplineSet
EndChar

StartChar: hbar
Encoding: 295 295 234
Width: 661
Flags: W
LayerCount: 2
Fore
SplineSet
546 475 m 128,-1,1
 594 433 594 433 594 358 c 0,2,3
 594 329 594 329 589 306 c 2,4,-1
 528 0 l 1,5,-1
 460 0 l 1,6,-1
 520 299 l 2,7,8
 524 318 524 318 524 338 c 0,9,10
 524 394 524 394 489 425 c 128,-1,11
 454 456 454 456 390 456 c 0,12,13
 309 455 309 455 250 405 c 128,-1,14
 191 355 191 355 174 271 c 2,15,-1
 120 0 l 1,16,-1
 53 0 l 1,17,-1
 172 604 l 1,18,-1
 97 604 l 1,19,-1
 105 648 l 1,20,-1
 181 648 l 1,21,-1
 199 742 l 1,22,-1
 267 742 l 1,23,-1
 248 648 l 1,24,-1
 464 648 l 1,25,-1
 456 604 l 1,26,-1
 240 604 l 1,27,-1
 200 405 l 1,28,29
 235 459 235 459 288.5 487.5 c 128,-1,30
 342 516 342 516 410 517 c 0,31,0
 498 517 498 517 546 475 c 128,-1,1
EndSplineSet
Substitution2: "<3,3> Small Caps in Latin lookup 11 subtable" hbar.sc
EndChar

StartChar: Iogonek
Encoding: 302 302 241
Width: 289
Flags: W
LayerCount: 2
Fore
SplineSet
25.5 -72 m 128,-1,1
 -4 -101 -4 -101 -4 -131 c 0,2,3
 -4 -146 -4 -146 5 -154 c 128,-1,4
 14 -162 14 -162 28 -162 c 0,5,6
 53 -162 53 -162 77 -148 c 1,7,-1
 87 -194 l 1,8,9
 45 -215 45 -215 5 -215 c 0,10,11
 -30 -215 -30 -215 -50 -198 c 128,-1,12
 -70 -181 -70 -181 -70 -149 c 0,13,14
 -70 -109 -70 -109 -39 -70.5 c 128,-1,15
 -8 -32 -8 -32 59 9 c 1,16,-1
 197 700 l 1,17,-1
 266 700 l 1,18,-1
 126 0 l 1,19,0
 55 -43 55 -43 25.5 -72 c 128,-1,1
EndSplineSet
EndChar

StartChar: iogonek
Encoding: 303 303 242
Width: 263
Flags: W
LayerCount: 2
Fore
SplineSet
250.5 711.5 m 128,-1,1
 261 700 261 700 261 683 c 0,2,3
 261 660 261 660 244 643.5 c 128,-1,4
 227 627 227 627 204 627 c 0,5,6
 188 627 188 627 177 638.5 c 128,-1,7
 166 650 166 650 166 667 c 0,8,9
 166 690 166 690 183 706.5 c 128,-1,10
 200 723 200 723 223 723 c 0,11,0
 240 723 240 723 250.5 711.5 c 128,-1,1
150 524 m 1,12,-1
 217 524 l 1,13,-1
 113 0 l 1,14,15
 42 -43 42 -43 12.5 -72 c 128,-1,16
 -17 -101 -17 -101 -17 -131 c 0,17,18
 -17 -146 -17 -146 -8 -154 c 128,-1,19
 1 -162 1 -162 15 -162 c 0,20,21
 40 -162 40 -162 64 -148 c 1,22,-1
 74 -194 l 1,23,24
 32 -215 32 -215 -8 -215 c 0,25,26
 -43 -215 -43 -215 -63 -198 c 128,-1,27
 -83 -181 -83 -181 -83 -149 c 0,28,29
 -83 -108 -83 -108 -52 -69 c 128,-1,30
 -21 -30 -21 -30 48 11 c 1,31,-1
 150 524 l 1,12,-1
EndSplineSet
Substitution2: "<3,3> Small Caps in Latin lookup 11 subtable" iogonek.sc
EndChar

StartChar: dotlessi
Encoding: 305 305 244
Width: 263
Flags: W
LayerCount: 2
Fore
SplineSet
217 524 m 1,0,-1
 113 0 l 1,1,-1
 46 0 l 1,2,-1
 150 524 l 1,3,-1
 217 524 l 1,0,-1
EndSplineSet
Substitution2: "<3,3> Small Caps in Latin lookup 11 subtable" dotlessi.sc
EndChar

StartChar: kgreenlandic
Encoding: 312 312 251
Width: 571
Flags: W
LayerCount: 2
Fore
SplineSet
588 524 m 1,0,-1
 344 317 l 1,1,-1
 502 0 l 1,2,-1
 420 0 l 1,3,-1
 290 271 l 1,4,-1
 142 145 l 1,5,-1
 113 0 l 1,6,-1
 46 0 l 1,7,-1
 150 524 l 1,8,-1
 218 524 l 1,9,-1
 161 239 l 1,10,-1
 499 524 l 1,11,-1
 588 524 l 1,0,-1
EndSplineSet
Substitution2: "<3,3> Small Caps in Latin lookup 11 subtable" kgreenlandic.sc
EndChar

StartChar: Lslash
Encoding: 321 321 260
Width: 534
Flags: W
LayerCount: 2
Fore
SplineSet
160 63 m 1,0,-1
 468 63 l 1,1,-1
 456 0 l 1,2,-1
 79 0 l 1,3,-1
 143 321 l 1,4,-1
 46 271 l 1,5,-1
 55 322 l 1,6,-1
 154 373 l 1,7,-1
 219 700 l 1,8,-1
 288 700 l 1,9,-1
 230 413 l 1,10,-1
 370 485 l 1,11,-1
 360 433 l 1,12,-1
 220 361 l 1,13,-1
 160 63 l 1,0,-1
EndSplineSet
EndChar

StartChar: lslash
Encoding: 322 322 261
Width: 345
Flags: W
LayerCount: 2
Fore
SplineSet
366 485 m 1,0,-1
 357 433 l 1,1,-1
 237 371 l 1,2,-1
 163 0 l 1,3,-1
 96 0 l 1,4,-1
 162 333 l 1,5,-1
 43 271 l 1,6,-1
 52 322 l 1,7,-1
 173 385 l 1,8,-1
 244 742 l 1,9,-1
 311 742 l 1,10,-1
 247 423 l 1,11,-1
 366 485 l 1,0,-1
EndSplineSet
Substitution2: "<3,3> Small Caps in Latin lookup 11 subtable" lslash.sc
EndChar

StartChar: Eng
Encoding: 330 330 269
Width: 796
Flags: W
LayerCount: 2
Fore
SplineSet
633 0 m 2,0,1
 614 -93 614 -93 551.5 -146.5 c 128,-1,2
 489 -200 489 -200 398 -200 c 0,3,4
 343 -200 343 -200 300 -177 c 128,-1,5
 257 -154 257 -154 230 -111 c 1,6,-1
 276 -59 l 1,7,8
 300 -95 300 -95 335 -113.5 c 128,-1,9
 370 -132 370 -132 410 -132 c 0,10,11
 467 -132 467 -132 507 -98 c 128,-1,12
 547 -64 547 -64 563 0 c 1,13,-1
 560 0 l 1,14,-1
 246 590 l 1,15,-1
 127 0 l 1,16,-1
 58 0 l 1,17,-1
 198 700 l 1,18,-1
 271 700 l 1,19,-1
 585 109 l 1,20,-1
 705 700 l 1,21,-1
 773 700 l 1,22,-1
 633 0 l 2,0,1
EndSplineSet
EndChar

StartChar: eng
Encoding: 331 331 270
Width: 654
Flags: W
LayerCount: 2
Fore
SplineSet
548 487.5 m 128,-1,1
 591 448 591 448 591 376 c 0,2,3
 591 351 591 351 585 322 c 2,4,-1
 516 -23 l 2,5,6
 499 -107 499 -107 450.5 -151.5 c 128,-1,7
 402 -196 402 -196 339 -196 c 0,8,9
 310 -196 310 -196 284 -186.5 c 128,-1,10
 258 -177 258 -177 238 -160 c 1,11,-1
 273 -107 l 1,12,13
 303 -134 303 -134 346 -136 c 0,14,15
 384 -136 384 -136 410.5 -109.5 c 128,-1,16
 437 -83 437 -83 447 -30 c 2,17,-1
 515 306 l 2,18,19
 520 331 520 331 520 348 c 0,20,21
 520 403 520 403 486 433 c 128,-1,22
 452 463 452 463 391 463 c 0,23,24
 310 463 310 463 250 413.5 c 128,-1,25
 190 364 190 364 170 282 c 2,26,-1
 113 0 l 1,27,-1
 46 0 l 1,28,-1
 150 524 l 1,29,-1
 218 524 l 1,30,-1
 193 402 l 1,31,32
 232 463 232 463 291.5 495 c 128,-1,33
 351 527 351 527 425 527 c 0,34,0
 505 527 505 527 548 487.5 c 128,-1,1
EndSplineSet
Substitution2: "<3,3> Small Caps in Latin lookup 11 subtable" eng.sc
EndChar

StartChar: OE
Encoding: 338 338 277
Width: 1097
Flags: W
LayerCount: 2
Fore
SplineSet
702 636 m 1,0,-1
 651 387 l 1,1,-1
 1007 387 l 1,2,-1
 995 324 l 1,3,-1
 639 324 l 1,4,-1
 586 63 l 1,5,-1
 998 63 l 1,6,-1
 986 0 l 1,7,-1
 394 0 l 2,8,9
 301 0 301 0 225 42.5 c 128,-1,10
 149 85 149 85 105 159.5 c 128,-1,11
 61 234 61 234 61 324 c 0,12,13
 61 425 61 425 116 511.5 c 128,-1,14
 171 598 171 598 263.5 649 c 128,-1,15
 356 700 356 700 463 700 c 2,16,-1
 1113 700 l 1,17,-1
 1101 636 l 1,18,-1
 702 636 l 1,0,-1
517 62 m 1,19,-1
 632 637 l 1,20,-1
 458 637 l 2,21,22
 372 637 372 637 296.5 594.5 c 128,-1,23
 221 552 221 552 176 480 c 128,-1,24
 131 408 131 408 131 325 c 0,25,26
 131 251 131 251 166 191 c 128,-1,27
 201 131 201 131 262.5 96.5 c 128,-1,28
 324 62 324 62 399 62 c 2,29,-1
 517 62 l 1,19,-1
EndSplineSet
EndChar

StartChar: oe
Encoding: 339 339 278
Width: 1061
Flags: W
LayerCount: 2
Fore
SplineSet
571 250 m 1,0,1
 569 192 569 192 590.5 147.5 c 128,-1,2
 612 103 612 103 654 78.5 c 128,-1,3
 696 54 696 54 751 54 c 0,4,5
 801 54 801 54 846.5 71.5 c 128,-1,6
 892 89 892 89 926 123 c 1,7,-1
 960 84 l 1,8,9
 918 42 918 42 862 20 c 128,-1,10
 806 -2 806 -2 742 -2 c 0,11,12
 663 -2 663 -2 607 36.5 c 128,-1,13
 551 75 551 75 529 143 c 1,14,15
 493 75 493 75 429 36.5 c 128,-1,16
 365 -2 365 -2 285 -2 c 0,17,18
 213 -2 213 -2 159 27.5 c 128,-1,19
 105 57 105 57 75 111 c 128,-1,20
 45 165 45 165 45 234 c 0,21,22
 45 317 45 317 83 384 c 128,-1,23
 121 451 121 451 187.5 489 c 128,-1,24
 254 527 254 527 336 527 c 0,25,26
 415 527 415 527 471.5 488 c 128,-1,27
 528 449 528 449 551 381 c 1,28,29
 586 449 586 449 649.5 488 c 128,-1,30
 713 527 713 527 792 527 c 0,31,32
 862 527 862 527 913.5 497.5 c 128,-1,33
 965 468 965 468 993 415 c 128,-1,34
 1021 362 1021 362 1021 292 c 0,35,36
 1021 271 1021 271 1018 250 c 1,37,-1
 571 250 l 1,0,1
649.5 424 m 128,-1,39
 591 373 591 373 575 291 c 1,40,-1
 955 291 l 1,41,42
 958 373 958 373 912.5 424 c 128,-1,43
 867 475 867 475 788 475 c 0,44,38
 708 475 708 475 649.5 424 c 128,-1,39
459.5 417.5 m 128,-1,46
 411 468 411 468 331 468 c 0,47,48
 270 468 270 468 220 438 c 128,-1,49
 170 408 170 408 141.5 355 c 128,-1,50
 113 302 113 302 113 236 c 0,51,52
 113 156 113 156 161.5 106 c 128,-1,53
 210 56 210 56 289 56 c 0,54,55
 350 56 350 56 400 85.5 c 128,-1,56
 450 115 450 115 479 167.5 c 128,-1,57
 508 220 508 220 508 286 c 0,58,45
 508 367 508 367 459.5 417.5 c 128,-1,46
EndSplineSet
Substitution2: "<3,3> Small Caps in Latin lookup 11 subtable" oe.sc
EndChar

StartChar: Scedilla
Encoding: 350 350 289
Width: 603
Flags: W
LayerCount: 2
Fore
SplineSet
223.5 612.5 m 128,-1,1
 177 584 177 584 173 536 c 2,2,-1
 172 522 l 2,3,4
 172 484 172 484 193.5 459.5 c 128,-1,5
 215 435 215 435 246 421 c 128,-1,6
 277 407 277 407 332 389 c 0,7,8
 395 368 395 368 433.5 349.5 c 128,-1,9
 472 331 472 331 499 296.5 c 128,-1,10
 526 262 526 262 526 207 c 0,11,12
 526 146 526 146 494.5 99 c 128,-1,13
 463 52 463 52 406 24.5 c 128,-1,14
 349 -3 349 -3 275 -7 c 1,15,-1
 251 -52 l 1,16,17
 284 -56 284 -56 301 -74 c 128,-1,18
 318 -92 318 -92 318 -117 c 0,19,20
 318 -160 318 -160 283 -188 c 128,-1,21
 248 -216 248 -216 196 -216 c 0,22,23
 174 -216 174 -216 152 -210 c 128,-1,24
 130 -204 130 -204 114 -194 c 1,25,-1
 139 -148 l 1,26,27
 151 -155 151 -155 166.5 -159.5 c 128,-1,28
 182 -164 182 -164 197 -164 c 0,29,30
 225 -164 225 -164 242.5 -149.5 c 128,-1,31
 260 -135 260 -135 260 -117 c 0,32,33
 260 -102 260 -102 248 -92.5 c 128,-1,34
 236 -83 236 -83 214 -83 c 2,35,-1
 184 -83 l 1,36,-1
 222 -5 l 1,37,38
 158 1 158 1 99.5 28.5 c 128,-1,39
 41 56 41 56 1 99 c 1,40,-1
 40 158 l 1,41,42
 81 111 81 111 141 85 c 128,-1,43
 201 59 201 59 262 59 c 0,44,45
 348 59 348 59 399 95.5 c 128,-1,46
 450 132 450 132 450 194 c 0,47,48
 450 233 450 233 428.5 258 c 128,-1,49
 407 283 407 283 374.5 297.5 c 128,-1,50
 342 312 342 312 287 330 c 0,51,52
 224 350 224 350 186 368 c 128,-1,53
 148 386 148 386 121.5 420 c 128,-1,54
 95 454 95 454 95 508 c 0,55,56
 95 523 95 523 96 531 c 0,57,58
 101 584 101 584 134.5 624 c 128,-1,59
 168 664 168 664 225 686 c 128,-1,60
 282 708 282 708 353 708 c 0,61,62
 411 708 411 708 467 691 c 128,-1,63
 523 674 523 674 564 645 c 1,64,-1
 528 585 l 1,65,66
 488 613 488 613 438.5 627 c 128,-1,67
 389 641 389 641 343 641 c 0,68,0
 270 641 270 641 223.5 612.5 c 128,-1,1
EndSplineSet
EndChar

StartChar: scedilla
Encoding: 351 351 290
Width: 464
Flags: W
LayerCount: 2
Fore
SplineSet
177.5 450 m 128,-1,1
 146 427 146 427 146 389 c 0,2,3
 146 356 146 356 173 336.5 c 128,-1,4
 200 317 200 317 257 294 c 0,5,6
 304 275 304 275 333.5 259 c 128,-1,7
 363 243 363 243 383.5 216 c 128,-1,8
 404 189 404 189 404 149 c 0,9,10
 404 79 404 79 350.5 36.5 c 128,-1,11
 297 -6 297 -6 214 -7 c 1,12,-1
 191 -52 l 1,13,14
 224 -56 224 -56 241 -74 c 128,-1,15
 258 -92 258 -92 258 -117 c 0,16,17
 258 -160 258 -160 223 -188 c 128,-1,18
 188 -216 188 -216 136 -216 c 0,19,20
 114 -216 114 -216 92 -210 c 128,-1,21
 70 -204 70 -204 54 -194 c 1,22,-1
 79 -148 l 1,23,24
 91 -155 91 -155 106.5 -159.5 c 128,-1,25
 122 -164 122 -164 137 -164 c 0,26,27
 165 -164 165 -164 182.5 -149.5 c 128,-1,28
 200 -135 200 -135 200 -117 c 0,29,30
 200 -102 200 -102 188 -92.5 c 128,-1,31
 176 -83 176 -83 154 -83 c 2,32,-1
 124 -83 l 1,33,-1
 163 -3 l 1,34,35
 110 5 110 5 64 30 c 128,-1,36
 18 55 18 55 -9 90 c 1,37,-1
 25 135 l 1,38,39
 56 97 56 97 107 73.5 c 128,-1,40
 158 50 158 50 213 50 c 0,41,42
 266 50 266 50 300.5 75.5 c 128,-1,43
 335 101 335 101 335 142 c 0,44,45
 335 176 335 176 307 196.5 c 128,-1,46
 279 217 279 217 223 240 c 0,47,48
 177 259 177 259 148.5 275 c 128,-1,49
 120 291 120 291 100 317 c 128,-1,50
 80 343 80 343 80 382 c 0,51,52
 80 449 80 449 130.5 489.5 c 128,-1,53
 181 530 181 530 260 530 c 0,54,55
 315 530 315 530 364.5 512.5 c 128,-1,56
 414 495 414 495 448 466 c 1,57,-1
 414 418 l 1,58,59
 382 443 382 443 340.5 458 c 128,-1,60
 299 473 299 473 258 473 c 0,61,0
 209 473 209 473 177.5 450 c 128,-1,1
EndSplineSet
Substitution2: "<3,3> Small Caps in Latin lookup 11 subtable" scedilla.sc
EndChar

StartChar: uni0162
Encoding: 354 354 293
Width: 553
Flags: W
LayerCount: 2
Fore
SplineSet
251 0 m 1,0,-1
 224 -52 l 1,1,2
 257 -56 257 -56 274 -74 c 128,-1,3
 291 -92 291 -92 291 -117 c 0,4,5
 291 -160 291 -160 256 -188 c 128,-1,6
 221 -216 221 -216 169 -216 c 0,7,8
 147 -216 147 -216 125 -210 c 128,-1,9
 103 -204 103 -204 87 -194 c 1,10,-1
 112 -148 l 1,11,12
 124 -155 124 -155 139.5 -159.5 c 128,-1,13
 155 -164 155 -164 170 -164 c 0,14,15
 198 -164 198 -164 215.5 -149.5 c 128,-1,16
 233 -135 233 -135 233 -117 c 0,17,18
 233 -102 233 -102 221 -92.5 c 128,-1,19
 209 -83 209 -83 187 -83 c 2,20,-1
 157 -83 l 1,21,-1
 198 0 l 1,22,-1
 189 0 l 1,23,-1
 317 636 l 1,24,-1
 87 636 l 1,25,-1
 99 700 l 1,26,-1
 629 700 l 1,27,-1
 617 636 l 1,28,-1
 386 636 l 1,29,-1
 258 0 l 1,30,-1
 251 0 l 1,0,-1
EndSplineSet
EndChar

StartChar: uni0163
Encoding: 355 355 294
Width: 386
Flags: W
LayerCount: 2
Fore
SplineSet
161 153 m 2,0,1
 157 134 157 134 157 116 c 0,2,3
 157 86 157 86 170.5 72.5 c 128,-1,4
 184 59 184 59 212 59 c 0,5,6
 257 61 257 61 305 89 c 1,7,-1
 319 35 l 1,8,9
 265 1 265 1 209 -2 c 1,10,-1
 183 -52 l 1,11,12
 216 -56 216 -56 233 -74 c 128,-1,13
 250 -92 250 -92 250 -117 c 0,14,15
 250 -160 250 -160 215 -188 c 128,-1,16
 180 -216 180 -216 128 -216 c 0,17,18
 106 -216 106 -216 84 -210 c 128,-1,19
 62 -204 62 -204 46 -194 c 1,20,-1
 71 -148 l 1,21,22
 83 -155 83 -155 98.5 -159.5 c 128,-1,23
 114 -164 114 -164 129 -164 c 0,24,25
 157 -164 157 -164 174.5 -149.5 c 128,-1,26
 192 -135 192 -135 192 -117 c 0,27,28
 192 -102 192 -102 180 -92.5 c 128,-1,29
 168 -83 168 -83 146 -83 c 2,30,-1
 116 -83 l 1,31,-1
 158 2 l 1,32,33
 125 11 125 11 107 36.5 c 128,-1,34
 89 62 89 62 89 103 c 0,35,36
 89 121 89 121 94 148 c 2,37,-1
 156 457 l 1,38,-1
 80 457 l 1,39,-1
 90 510 l 1,40,-1
 166 510 l 1,41,-1
 193 644 l 1,42,-1
 260 644 l 1,43,-1
 233 510 l 1,44,-1
 402 510 l 1,45,-1
 392 457 l 1,46,-1
 222 457 l 1,47,-1
 161 153 l 2,0,1
EndSplineSet
Substitution2: "<3,3> Small Caps in Latin lookup 11 subtable" uni0163.sc
EndChar

StartChar: Tbar
Encoding: 358 358 297
Width: 553
Flags: W
LayerCount: 2
Fore
SplineSet
617 636 m 1,0,-1
 386 636 l 1,1,-1
 331 361 l 1,2,-1
 487 361 l 1,3,-1
 479 317 l 1,4,-1
 322 317 l 1,5,-1
 258 0 l 1,6,-1
 189 0 l 1,7,-1
 253 317 l 1,8,-1
 93 317 l 1,9,-1
 101 361 l 1,10,-1
 262 361 l 1,11,-1
 317 636 l 1,12,-1
 87 636 l 1,13,-1
 99 700 l 1,14,-1
 629 700 l 1,15,-1
 617 636 l 1,0,-1
EndSplineSet
EndChar

StartChar: tbar
Encoding: 359 359 298
Width: 385
Flags: W
LayerCount: 2
Fore
SplineSet
223 457 m 1,0,-1
 196 325 l 1,1,-1
 365 325 l 1,2,-1
 355 272 l 1,3,-1
 185 272 l 1,4,-1
 162 155 l 2,5,6
 158 136 158 136 158 118 c 0,7,8
 158 59 158 59 215 59 c 0,9,10
 260 61 260 61 306 88 c 1,11,-1
 318 36 l 1,12,13
 257 -1 257 -1 194 -3 c 0,14,15
 144 -3 144 -3 116 23 c 128,-1,16
 88 49 88 49 88 101 c 0,17,18
 88 119 88 119 93 146 c 2,19,-1
 118 272 l 1,20,-1
 43 272 l 1,21,-1
 53 325 l 1,22,-1
 129 325 l 1,23,-1
 155 457 l 1,24,-1
 80 457 l 1,25,-1
 90 510 l 1,26,-1
 166 510 l 1,27,-1
 193 644 l 1,28,-1
 260 644 l 1,29,-1
 233 510 l 1,30,-1
 402 510 l 1,31,-1
 392 457 l 1,32,-1
 223 457 l 1,0,-1
EndSplineSet
Substitution2: "<3,3> Small Caps in Latin lookup 11 subtable" tbar.sc
EndChar

StartChar: Uogonek
Encoding: 370 370 309
Width: 769
Flags: W
LayerCount: 2
Fore
SplineSet
763 700 m 1,0,-1
 681 287 l 2,1,2
 664 202 664 202 623.5 140 c 128,-1,3
 583 78 583 78 522 42 c 1,4,5
 460 -3 460 -3 422.5 -49.5 c 128,-1,6
 385 -96 385 -96 385 -130 c 0,7,8
 385 -146 385 -146 393.5 -154 c 128,-1,9
 402 -162 402 -162 417 -162 c 0,10,11
 441 -162 441 -162 466 -148 c 1,12,-1
 475 -194 l 1,13,14
 433 -215 433 -215 393 -215 c 0,15,16
 359 -215 359 -215 339.5 -196 c 128,-1,17
 320 -177 320 -177 320 -143 c 0,18,19
 320 -76 320 -76 411 3 c 1,20,21
 378 -3 378 -3 342 -3 c 0,22,23
 224 -3 224 -3 158 54.5 c 128,-1,24
 92 112 92 112 92 216 c 0,25,26
 92 252 92 252 99 287 c 2,27,-1
 182 700 l 1,28,-1
 250 700 l 1,29,-1
 168 287 l 2,30,31
 162 256 162 256 162 228 c 0,32,33
 162 148 162 148 211.5 104 c 128,-1,34
 261 60 261 60 350 60 c 0,35,36
 453 60 453 60 521 119.5 c 128,-1,37
 589 179 589 179 612 287 c 2,38,-1
 694 700 l 1,39,-1
 763 700 l 1,0,-1
EndSplineSet
EndChar

StartChar: uogonek
Encoding: 371 371 310
Width: 656
Flags: W
LayerCount: 2
Fore
SplineSet
406.5 -72 m 128,-1,1
 377 -101 377 -101 377 -131 c 0,2,3
 377 -146 377 -146 386 -154 c 128,-1,4
 395 -162 395 -162 409 -162 c 0,5,6
 434 -162 434 -162 458 -148 c 1,7,-1
 468 -194 l 1,8,9
 426 -215 426 -215 386 -215 c 0,10,11
 351 -215 351 -215 331 -198 c 128,-1,12
 311 -181 311 -181 311 -149 c 0,13,14
 311 -109 311 -109 342 -70.5 c 128,-1,15
 373 -32 373 -32 440 9 c 1,16,-1
 460 110 l 1,17,18
 425 55 425 55 371.5 26 c 128,-1,19
 318 -3 318 -3 250 -4 c 0,20,21
 163 -4 163 -4 114.5 38.5 c 128,-1,22
 66 81 66 81 66 157 c 0,23,24
 66 184 66 184 72 212 c 2,25,-1
 134 524 l 1,26,-1
 202 524 l 1,27,-1
 141 219 l 2,28,29
 137 199 137 199 137 177 c 0,30,31
 137 120 137 120 171.5 88.5 c 128,-1,32
 206 57 206 57 270 57 c 0,33,34
 351 58 351 58 410 108.5 c 128,-1,35
 469 159 469 159 487 246 c 2,36,-1
 542 524 l 1,37,-1
 609 524 l 1,38,-1
 506 1 l 1,39,-1
 507 0 l 1,40,0
 436 -43 436 -43 406.5 -72 c 128,-1,1
EndSplineSet
Substitution2: "<3,3> Small Caps in Latin lookup 11 subtable" uogonek.sc
EndChar

StartChar: uni018F
Encoding: 399 399 322
Width: 795
Flags: W
LayerCount: 2
Fore
SplineSet
613.5 662.5 m 128,-1,1
 687 620 687 620 728.5 546.5 c 128,-1,2
 770 473 770 473 770 383 c 0,3,4
 770 278 770 278 717 188.5 c 128,-1,5
 664 99 664 99 575.5 46.5 c 128,-1,6
 487 -6 487 -6 385 -6 c 0,7,8
 291 -6 291 -6 217.5 37 c 128,-1,9
 144 80 144 80 103 156 c 128,-1,10
 62 232 62 232 62 328 c 0,11,12
 62 340 62 340 64 366 c 1,13,-1
 703 366 l 1,14,-1
 703 381 l 2,15,16
 703 453 703 453 668.5 513 c 128,-1,17
 634 573 634 573 575 607.5 c 128,-1,18
 516 642 516 642 444 642 c 0,19,20
 376 642 376 642 313.5 613.5 c 128,-1,21
 251 585 251 585 205 534 c 1,22,-1
 160 582 l 1,23,24
 219 641 219 641 291.5 673 c 128,-1,25
 364 705 364 705 449 705 c 0,26,0
 540 705 540 705 613.5 662.5 c 128,-1,1
523 88 m 128,-1,28
 586 119 586 119 631.5 175 c 128,-1,29
 677 231 677 231 694 303 c 1,30,-1
 133 303 l 1,31,32
 136 234 136 234 170 177.5 c 128,-1,33
 204 121 204 121 262 89 c 128,-1,34
 320 57 320 57 392 57 c 0,35,27
 460 57 460 57 523 88 c 128,-1,28
EndSplineSet
EndChar

StartChar: florin
Encoding: 402 402 323
Width: 431
Flags: W
LayerCount: 2
Fore
SplineSet
312 663.5 m 128,-1,1
 281 633 281 633 271 582 c 2,2,-1
 248 463 l 1,3,-1
 401 463 l 1,4,-1
 392 411 l 1,5,-1
 238 411 l 1,6,-1
 152 -37 l 2,7,8
 137 -113 137 -113 96.5 -155 c 128,-1,9
 56 -197 56 -197 -8 -197 c 0,10,11
 -33 -197 -33 -197 -60 -186 c 128,-1,12
 -87 -175 -87 -175 -106 -159 c 1,13,-1
 -81 -110 l 1,14,15
 -68 -123 -68 -123 -48.5 -131 c 128,-1,16
 -29 -139 -29 -139 -12 -139 c 0,17,18
 64 -139 64 -139 86 -27 c 2,19,-1
 170 411 l 1,20,-1
 104 411 l 1,21,-1
 113 463 l 1,22,-1
 180 463 l 1,23,-1
 205 593 l 2,24,25
 219 666 219 666 267 709 c 128,-1,26
 315 752 315 752 380 752 c 0,27,28
 410 752 410 752 440.5 741.5 c 128,-1,29
 471 731 471 731 493 714 c 1,30,-1
 463 665 l 1,31,32
 447 678 447 678 426 686 c 128,-1,33
 405 694 405 694 386 694 c 0,34,0
 343 694 343 694 312 663.5 c 128,-1,1
EndSplineSet
EndChar

StartChar: Ohorn
Encoding: 416 416 324
Width: 879
Flags: W
LayerCount: 2
Fore
SplineSet
767.5 514.5 m 128,-1,1
 794 453 794 453 794 383 c 0,2,3
 794 279 794 279 739 189.5 c 128,-1,4
 684 100 684 100 591.5 47 c 128,-1,5
 499 -6 499 -6 393 -6 c 0,6,7
 299 -6 299 -6 223.5 37 c 128,-1,8
 148 80 148 80 105 154 c 128,-1,9
 62 228 62 228 62 318 c 0,10,11
 62 423 62 423 117 512 c 128,-1,12
 172 601 172 601 264.5 653 c 128,-1,13
 357 705 357 705 463 705 c 0,14,15
 548 705 548 705 620 669 c 1,16,17
 642 663 642 663 660 663 c 0,18,19
 698 663 698 663 723.5 693 c 128,-1,20
 749 723 749 723 749 761 c 0,21,22
 749 783 749 783 738 805 c 1,23,-1
 799 827 l 1,24,25
 811 796 811 796 811 766 c 0,26,27
 811 713 811 713 778 672.5 c 128,-1,28
 745 632 745 632 692 620 c 1,29,0
 741 576 741 576 767.5 514.5 c 128,-1,1
688 512 m 128,-1,31
 653 572 653 572 592.5 607 c 128,-1,32
 532 642 532 642 458 642 c 0,33,34
 373 642 373 642 298 598.5 c 128,-1,35
 223 555 223 555 177.5 481.5 c 128,-1,36
 132 408 132 408 132 322 c 0,37,38
 132 249 132 249 167 188 c 128,-1,39
 202 127 202 127 263.5 92 c 128,-1,40
 325 57 325 57 399 57 c 0,41,42
 483 57 483 57 558 101 c 128,-1,43
 633 145 633 145 678 219 c 128,-1,44
 723 293 723 293 723 379 c 0,45,30
 723 452 723 452 688 512 c 128,-1,31
EndSplineSet
EndChar

StartChar: ohorn
Encoding: 417 417 325
Width: 621
Flags: W
LayerCount: 2
Fore
SplineSet
654 591 m 0,1,2
 654 536 654 536 618 494.5 c 128,-1,3
 582 453 582 453 526 443 c 1,4,5
 577 381 577 381 577 288 c 0,6,7
 577 205 577 205 538.5 139 c 128,-1,8
 500 73 500 73 433 35.5 c 128,-1,9
 366 -2 366 -2 284 -2 c 0,10,11
 213 -2 213 -2 159 28.5 c 128,-1,12
 105 59 105 59 75 113 c 128,-1,13
 45 167 45 167 45 237 c 0,14,15
 45 320 45 320 83.5 386 c 128,-1,16
 122 452 122 452 188.5 489.5 c 128,-1,17
 255 527 255 527 337 527 c 0,18,19
 414 527 414 527 470 492 c 1,20,21
 490 488 490 488 503 488 c 0,22,23
 541 488 541 488 566.5 518 c 128,-1,24
 592 548 592 548 592 586 c 0,25,26
 592 608 592 608 581 630 c 1,27,-1
 642 652 l 1,28,0
 654 621 654 621 654 591 c 0,1,2
401 85 m 128,-1,30
 451 114 451 114 479.5 166 c 128,-1,31
 508 218 508 218 508 284 c 0,32,33
 508 366 508 366 459.5 417 c 128,-1,34
 411 468 411 468 331 468 c 0,35,36
 270 468 270 468 220 438.5 c 128,-1,37
 170 409 170 409 141.5 357 c 128,-1,38
 113 305 113 305 113 240 c 0,39,40
 113 158 113 158 161.5 107 c 128,-1,41
 210 56 210 56 290 56 c 0,42,29
 351 56 351 56 401 85 c 128,-1,30
EndSplineSet
Substitution2: "<3,3> Small Caps in Latin lookup 11 subtable" ohorn.sc
EndChar

StartChar: Uhorn
Encoding: 431 431 326
Width: 827
Flags: W
LayerCount: 2
Fore
SplineSet
870 784 m 0,1,2
 870 733 870 733 839 698 c 128,-1,3
 808 663 808 663 754 656 c 1,4,-1
 681 287 l 2,5,6
 653 149 653 149 565.5 73 c 128,-1,7
 478 -3 478 -3 342 -3 c 0,8,9
 224 -3 224 -3 158 54.5 c 128,-1,10
 92 112 92 112 92 216 c 0,11,12
 92 252 92 252 99 287 c 2,13,-1
 182 700 l 1,14,-1
 250 700 l 1,15,-1
 168 287 l 2,16,17
 162 256 162 256 162 228 c 0,18,19
 162 148 162 148 211.5 104 c 128,-1,20
 261 60 261 60 350 60 c 0,21,22
 453 60 453 60 521 119.5 c 128,-1,23
 589 179 589 179 612 287 c 2,24,-1
 694 700 l 1,25,-1
 751 700 l 1,26,27
 781 704 781 704 797 723 c 128,-1,28
 813 742 813 742 813 770 c 0,29,30
 813 788 813 788 807 806 c 1,31,-1
 864 827 l 1,32,0
 870 805 870 805 870 784 c 0,1,2
EndSplineSet
EndChar

StartChar: uhorn
Encoding: 432 432 327
Width: 656
Flags: W
LayerCount: 2
Fore
SplineSet
716 609 m 0,1,2
 716 558 716 558 685.5 523.5 c 128,-1,3
 655 489 655 489 601 481 c 1,4,-1
 506 0 l 1,5,-1
 438 0 l 1,6,-1
 460 110 l 1,7,8
 425 55 425 55 371.5 26 c 128,-1,9
 318 -3 318 -3 250 -4 c 0,10,11
 163 -4 163 -4 114.5 38.5 c 128,-1,12
 66 81 66 81 66 157 c 0,13,14
 66 184 66 184 72 212 c 2,15,-1
 134 524 l 1,16,-1
 202 524 l 1,17,-1
 141 219 l 2,18,19
 137 199 137 199 137 177 c 0,20,21
 137 120 137 120 171.5 88.5 c 128,-1,22
 206 57 206 57 270 57 c 0,23,24
 351 58 351 58 410 108.5 c 128,-1,25
 469 159 469 159 487 246 c 2,26,-1
 542 524 l 1,27,-1
 581 524 l 2,28,29
 619 524 619 524 639 543.5 c 128,-1,30
 659 563 659 563 659 595 c 0,31,32
 659 613 659 613 653 631 c 1,33,-1
 710 652 l 1,34,0
 716 630 716 630 716 609 c 0,1,2
EndSplineSet
Substitution2: "<3,3> Small Caps in Latin lookup 11 subtable" uhorn.sc
EndChar

StartChar: uni01EA
Encoding: 490 490 339
Width: 819
Flags: W
LayerCount: 2
Fore
SplineSet
632.5 663 m 128,-1,1
 708 621 708 621 751 547.5 c 128,-1,2
 794 474 794 474 794 385 c 0,3,4
 794 280 794 280 739 190 c 128,-1,5
 684 100 684 100 592 47 c 1,6,7
 528 1 528 1 488 -47 c 128,-1,8
 448 -95 448 -95 448 -130 c 0,9,10
 448 -146 448 -146 456.5 -154 c 128,-1,11
 465 -162 465 -162 480 -162 c 0,12,13
 504 -162 504 -162 529 -148 c 1,14,-1
 538 -194 l 1,15,16
 496 -215 496 -215 456 -215 c 0,17,18
 422 -215 422 -215 402.5 -196 c 128,-1,19
 383 -177 383 -177 383 -143 c 0,20,21
 383 -76 383 -76 474 2 c 1,22,23
 431 -6 431 -6 393 -6 c 0,24,25
 299 -6 299 -6 223.5 37 c 128,-1,26
 148 80 148 80 105 154 c 128,-1,27
 62 228 62 228 62 318 c 0,28,29
 62 423 62 423 117 512 c 128,-1,30
 172 601 172 601 264.5 653 c 128,-1,31
 357 705 357 705 463 705 c 0,32,0
 557 705 557 705 632.5 663 c 128,-1,1
688 512 m 128,-1,34
 653 572 653 572 592.5 607 c 128,-1,35
 532 642 532 642 458 642 c 0,36,37
 373 642 373 642 298 598.5 c 128,-1,38
 223 555 223 555 177.5 481.5 c 128,-1,39
 132 408 132 408 132 322 c 0,40,41
 132 249 132 249 167 188 c 128,-1,42
 202 127 202 127 263.5 92 c 128,-1,43
 325 57 325 57 399 57 c 0,44,45
 483 57 483 57 558 101 c 128,-1,46
 633 145 633 145 678 219 c 128,-1,47
 723 293 723 293 723 379 c 0,48,33
 723 452 723 452 688 512 c 128,-1,34
EndSplineSet
EndChar

StartChar: uni01EB
Encoding: 491 491 340
Width: 621
Flags: W
LayerCount: 2
Fore
SplineSet
347 -47.5 m 128,-1,1
 308 -95 308 -95 308 -130 c 0,2,3
 308 -146 308 -146 316.5 -154 c 128,-1,4
 325 -162 325 -162 340 -162 c 0,5,6
 364 -162 364 -162 389 -148 c 1,7,-1
 398 -194 l 1,8,9
 356 -215 356 -215 316 -215 c 0,10,11
 282 -215 282 -215 262.5 -196 c 128,-1,12
 243 -177 243 -177 243 -143 c 0,13,14
 243 -76 243 -76 333 2 c 1,15,16
 312 -2 312 -2 284 -2 c 0,17,18
 213 -2 213 -2 159 28.5 c 128,-1,19
 105 59 105 59 75 113 c 128,-1,20
 45 167 45 167 45 237 c 0,21,22
 45 320 45 320 83.5 386 c 128,-1,23
 122 452 122 452 188.5 489.5 c 128,-1,24
 255 527 255 527 337 527 c 0,25,26
 408 527 408 527 462.5 496.5 c 128,-1,27
 517 466 517 466 547 412 c 128,-1,28
 577 358 577 358 577 288 c 0,29,30
 577 211 577 211 543 147.5 c 128,-1,31
 509 84 509 84 450 46 c 0,32,0
 386 0 386 0 347 -47.5 c 128,-1,1
161.5 107 m 128,-1,34
 210 56 210 56 290 56 c 0,35,36
 351 56 351 56 401 85 c 128,-1,37
 451 114 451 114 479.5 166 c 128,-1,38
 508 218 508 218 508 284 c 0,39,40
 508 366 508 366 459.5 417 c 128,-1,41
 411 468 411 468 331 468 c 0,42,43
 270 468 270 468 220 438.5 c 128,-1,44
 170 409 170 409 141.5 357 c 128,-1,45
 113 305 113 305 113 240 c 0,46,33
 113 158 113 158 161.5 107 c 128,-1,34
EndSplineSet
Substitution2: "<3,3> Small Caps in Latin lookup 11 subtable" uni01EB.sc
EndChar

StartChar: uni0237
Encoding: 567 567 383
Width: 256
Flags: W
LayerCount: 2
Fore
SplineSet
-76 -138 m 0,1,2
 -33 -139 -33 -139 -3.5 -107 c 128,-1,3
 26 -75 26 -75 38 -16 c 2,4,-1
 146 524 l 1,5,-1
 213 524 l 1,6,-1
 103 -30 l 2,7,8
 87 -112 87 -112 44 -154 c 128,-1,9
 1 -196 1 -196 -64 -196 c 0,10,11
 -103 -196 -103 -196 -142 -179 c 1,12,-1
 -120 -129 l 1,13,0
 -104 -136 -104 -136 -76 -138 c 0,1,2
EndSplineSet
EndChar

StartChar: uni0259
Encoding: 601 601 384
Width: 601
Flags: W
LayerCount: 2
Fore
SplineSet
440.5 497 m 128,-1,1
 496 467 496 467 526.5 412.5 c 128,-1,2
 557 358 557 358 557 287 c 0,3,4
 557 205 557 205 518.5 139 c 128,-1,5
 480 73 480 73 414 35 c 128,-1,6
 348 -3 348 -3 267 -3 c 0,7,8
 164 -3 164 -3 103.5 59 c 128,-1,9
 43 121 43 121 43 224 c 0,10,11
 43 249 43 249 48 284 c 1,12,-1
 490 284 l 1,13,-1
 490 287 l 2,14,15
 490 370 490 370 440.5 420 c 128,-1,16
 391 470 391 470 309 470 c 0,17,18
 261 470 261 470 217.5 454 c 128,-1,19
 174 438 174 438 142 409 c 1,20,-1
 109 453 l 1,21,22
 149 489 149 489 201 508 c 128,-1,23
 253 527 253 527 312 527 c 0,24,0
 385 527 385 527 440.5 497 c 128,-1,1
408 103 m 128,-1,26
 467 152 467 152 484 231 c 1,27,-1
 103 231 l 1,28,29
 101 149 101 149 144.5 101.5 c 128,-1,30
 188 54 188 54 268 54 c 0,31,25
 349 54 349 54 408 103 c 128,-1,26
EndSplineSet
Substitution2: "<3,3> Small Caps in Latin lookup 11 subtable" uni0259.sc
EndChar

StartChar: uni02BB
Encoding: 699 699 385
Width: 340
Flags: W
LayerCount: 2
Fore
SplineSet
248 512 m 1,0,-1
 185 527 l 1,1,-1
 237 700 l 1,2,-1
 284 700 l 1,3,-1
 248 512 l 1,0,-1
EndSplineSet
EndChar

StartChar: uni02BC
Encoding: 700 700 386
Width: 106
Flags: W
LayerCount: 2
Fore
SplineSet
114 700 m 1,0,-1
 168 700 l 1,1,-1
 107 440 l 1,2,-1
 61 440 l 1,3,-1
 114 700 l 1,0,-1
EndSplineSet
EndChar

StartChar: uni02BE
Encoding: 702 702 387
Width: 337
Flags: W
LayerCount: 2
Fore
SplineSet
180 600 m 1,0,1
 215 600 215 600 243 625.5 c 128,-1,2
 271 651 271 651 271 685 c 0,3,4
 271 713 271 713 250 733 c 128,-1,5
 229 753 229 753 199 753 c 1,6,-1
 203 789 l 1,7,8
 247 789 247 789 276.5 760 c 128,-1,9
 306 731 306 731 306 689 c 0,10,11
 306 656 306 656 287.5 627.5 c 128,-1,12
 269 599 269 599 239 581.5 c 128,-1,13
 209 564 209 564 176 564 c 1,14,-1
 180 600 l 1,0,1
EndSplineSet
EndChar

StartChar: uni02BF
Encoding: 703 703 388
Width: 340
Flags: W
LayerCount: 2
Fore
SplineSet
287 600 m 1,0,1
 258 600 258 600 239.5 619 c 128,-1,2
 221 638 221 638 221 665 c 0,3,4
 221 700 221 700 250.5 726.5 c 128,-1,5
 280 753 280 753 317 753 c 1,6,-1
 324 789 l 1,7,8
 290 789 290 789 257.5 770.5 c 128,-1,9
 225 752 225 752 205 722 c 128,-1,10
 185 692 185 692 185 659 c 0,11,12
 185 619 185 619 212.5 591.5 c 128,-1,13
 240 564 240 564 281 564 c 1,14,-1
 287 600 l 1,0,1
EndSplineSet
EndChar

StartChar: caron
Encoding: 711 711 390
Width: 433
Flags: W
LayerCount: 2
Fore
SplineSet
370 744 m 1,0,-1
 439 744 l 1,1,-1
 312 619 l 1,2,-1
 238 619 l 1,3,-1
 160 744 l 1,4,-1
 229 744 l 1,5,-1
 284 668 l 1,6,-1
 370 744 l 1,0,-1
EndSplineSet
EndChar

StartChar: uni02C8
Encoding: 712 712 391
Width: 336
Flags: W
LayerCount: 2
Fore
SplineSet
195 522 m 1,0,-1
 229 700 l 1,1,-1
 281 700 l 1,2,-1
 246 522 l 1,3,-1
 195 522 l 1,0,-1
EndSplineSet
EndChar

StartChar: uni02C9
Encoding: 713 713 392
Width: 495
Flags: W
LayerCount: 2
Fore
SplineSet
217 698 m 1,0,-1
 453 698 l 1,1,-1
 444 651 l 1,2,-1
 208 651 l 1,3,-1
 217 698 l 1,0,-1
EndSplineSet
EndChar

StartChar: uni02CA
Encoding: 714 714 393
Width: 349
Flags: W
LayerCount: 2
Fore
SplineSet
296 748 m 1,0,-1
 359 717 l 1,1,-1
 214 617 l 1,2,-1
 155 624 l 1,3,-1
 296 748 l 1,0,-1
EndSplineSet
EndChar

StartChar: uni02CB
Encoding: 715 715 394
Width: 321
Flags: W
LayerCount: 2
Fore
SplineSet
230 748 m 1,0,-1
 324 624 l 1,1,-1
 262 617 l 1,2,-1
 156 717 l 1,3,-1
 230 748 l 1,0,-1
EndSplineSet
EndChar

StartChar: uni02CC
Encoding: 716 716 395
Width: 335
Flags: W
LayerCount: 2
Fore
SplineSet
49 -208 m 1,0,-1
 83 -31 l 1,1,-1
 134 -31 l 1,2,-1
 100 -208 l 1,3,-1
 49 -208 l 1,0,-1
EndSplineSet
EndChar

StartChar: gravecomb
Encoding: 768 768 402
Width: 0
Flags: W
LayerCount: 2
Fore
SplineSet
-97 748 m 1,0,-1
 21 624 l 1,1,-1
 -40 617 l 1,2,-1
 -165 717 l 1,3,-1
 -97 748 l 1,0,-1
EndSplineSet
Substitution2: "<3,3> Small Caps in Latin lookup 11 subtable" gravecomb.sc
EndChar

StartChar: acutecomb
Encoding: 769 769 403
Width: 0
Flags: W
LayerCount: 2
Fore
SplineSet
-77 748 m 1,0,-1
 -8 717 l 1,1,-1
 -134 617 l 1,2,-1
 -194 624 l 1,3,-1
 -77 748 l 1,0,-1
EndSplineSet
Substitution2: "<3,3> Small Caps in Latin lookup 11 subtable" acutecomb.sc
EndChar

StartChar: uni0302
Encoding: 770 770 404
Width: 0
Flags: W
LayerCount: 2
Fore
SplineSet
5 619 m 1,0,-1
 -64 619 l 1,1,-1
 -119 695 l 1,2,-1
 -205 619 l 1,3,-1
 -274 619 l 1,4,-1
 -147 744 l 1,5,-1
 -73 744 l 1,6,-1
 5 619 l 1,0,-1
EndSplineSet
Substitution2: "<3,3> Small Caps in Latin lookup 11 subtable" uni0302.sc
EndChar

StartChar: tildecomb
Encoding: 771 771 405
Width: 0
Flags: W
LayerCount: 2
Fore
SplineSet
-65 646 m 128,-1,1
 -90 616 -90 616 -128 616 c 0,2,3
 -148 616 -148 616 -163 624 c 128,-1,4
 -178 632 -178 632 -198 648 c 0,5,6
 -214 661 -214 661 -224 667 c 128,-1,7
 -234 673 -234 673 -246 673 c 0,8,9
 -265 673 -265 673 -277.5 658.5 c 128,-1,10
 -290 644 -290 644 -295 620 c 1,11,-1
 -343 620 l 1,12,13
 -334 667 -334 667 -310 697 c 128,-1,14
 -286 727 -286 727 -248 727 c 0,15,16
 -227 727 -227 727 -211.5 718.5 c 128,-1,17
 -196 710 -196 710 -177 694 c 0,18,19
 -159 681 -159 681 -150 675.5 c 128,-1,20
 -141 670 -141 670 -130 670 c 0,21,22
 -110 670 -110 670 -96.5 684.5 c 128,-1,23
 -83 699 -83 699 -79 723 c 1,24,-1
 -30 723 l 1,25,0
 -40 676 -40 676 -65 646 c 128,-1,1
EndSplineSet
Substitution2: "<3,3> Small Caps in Latin lookup 11 subtable" tildecomb.sc
EndChar

StartChar: uni0304
Encoding: 772 772 406
Width: 0
Flags: W
LayerCount: 2
Fore
SplineSet
-298 698 m 1,0,-1
 -22 698 l 1,1,-1
 -31 651 l 1,2,-1
 -307 651 l 1,3,-1
 -298 698 l 1,0,-1
EndSplineSet
Substitution2: "<3,3> Small Caps in Latin lookup 11 subtable" uni0304.sc
EndChar

StartChar: uni0306
Encoding: 774 774 407
Width: 0
Flags: W
LayerCount: 2
Fore
SplineSet
-216 725 m 0,1,2
 -216 697 -216 697 -199.5 679.5 c 128,-1,3
 -183 662 -183 662 -156 662 c 0,4,5
 -125 662 -125 662 -100 684 c 128,-1,6
 -75 706 -75 706 -67 738 c 1,7,-1
 -18 738 l 1,8,9
 -30 684 -30 684 -71.5 649 c 128,-1,10
 -113 614 -113 614 -164 614 c 0,11,12
 -210 614 -210 614 -238 642 c 128,-1,13
 -266 670 -266 670 -266 715 c 0,14,15
 -266 722 -266 722 -264 738 c 1,16,-1
 -215 738 l 1,17,0
 -216 734 -216 734 -216 725 c 0,1,2
EndSplineSet
Substitution2: "<3,3> Small Caps in Latin lookup 11 subtable" uni0306.sc
EndChar

StartChar: uni0307
Encoding: 775 775 408
Width: 0
Flags: W
LayerCount: 2
Fore
SplineSet
-45.5 711.5 m 128,-1,1
 -35 700 -35 700 -35 683 c 0,2,3
 -35 660 -35 660 -52 643.5 c 128,-1,4
 -69 627 -69 627 -92 627 c 0,5,6
 -108 627 -108 627 -119 638.5 c 128,-1,7
 -130 650 -130 650 -130 667 c 0,8,9
 -130 690 -130 690 -113 706.5 c 128,-1,10
 -96 723 -96 723 -73 723 c 0,11,0
 -56 723 -56 723 -45.5 711.5 c 128,-1,1
EndSplineSet
Substitution2: "<3,3> Small Caps in Latin lookup 11 subtable" uni0307.sc
EndChar

StartChar: uni0308
Encoding: 776 776 409
Width: 0
Flags: W
LayerCount: 2
Fore
SplineSet
-208.5 708.5 m 128,-1,1
 -199 698 -199 698 -199 682 c 0,2,3
 -199 661 -199 661 -215 645.5 c 128,-1,4
 -231 630 -231 630 -251 630 c 0,5,6
 -267 630 -267 630 -277 640.5 c 128,-1,7
 -287 651 -287 651 -287 667 c 0,8,9
 -287 688 -287 688 -271 703.5 c 128,-1,10
 -255 719 -255 719 -234 719 c 0,11,0
 -218 719 -218 719 -208.5 708.5 c 128,-1,1
-44.5 708.5 m 128,-1,13
 -35 698 -35 698 -35 682 c 0,14,15
 -35 661 -35 661 -51 645.5 c 128,-1,16
 -67 630 -67 630 -87 630 c 0,17,18
 -103 630 -103 630 -113 640.5 c 128,-1,19
 -123 651 -123 651 -123 667 c 0,20,21
 -123 688 -123 688 -107 703.5 c 128,-1,22
 -91 719 -91 719 -70 719 c 0,23,12
 -54 719 -54 719 -44.5 708.5 c 128,-1,13
EndSplineSet
Substitution2: "<3,3> Small Caps in Latin lookup 11 subtable" uni0308.sc
EndChar

StartChar: hookabovecomb
Encoding: 777 777 410
Width: 0
Flags: W
LayerCount: 2
Fore
SplineSet
-44 752 m 128,-1,1
 -24 735 -24 735 -24 706 c 0,2,3
 -24 676 -24 676 -48.5 643 c 128,-1,4
 -73 610 -73 610 -112 582 c 1,5,-1
 -150 600 l 1,6,7
 -121 621 -121 621 -103 645.5 c 128,-1,8
 -85 670 -85 670 -85 688 c 0,9,10
 -85 702 -85 702 -94 711 c 128,-1,11
 -103 720 -103 720 -120 720 c 0,12,13
 -140 720 -140 720 -166 705 c 1,14,-1
 -183 743 l 1,15,16
 -137 769 -137 769 -98 769 c 0,17,0
 -64 769 -64 769 -44 752 c 128,-1,1
EndSplineSet
Substitution2: "<3,3> Small Caps in Latin lookup 11 subtable" hookabovecomb.sc
EndChar

StartChar: uni030A
Encoding: 778 778 411
Width: 0
Flags: W
LayerCount: 2
Fore
SplineSet
-47.5 751 m 128,-1,1
 -22 725 -22 725 -22 688 c 0,2,3
 -22 660 -22 660 -38 634.5 c 128,-1,4
 -54 609 -54 609 -80 594 c 128,-1,5
 -106 579 -106 579 -135 579 c 0,6,7
 -173 579 -173 579 -198.5 604.5 c 128,-1,8
 -224 630 -224 630 -224 666 c 0,9,10
 -224 695 -224 695 -208 720.5 c 128,-1,11
 -192 746 -192 746 -166 761.5 c 128,-1,12
 -140 777 -140 777 -111 777 c 0,13,0
 -73 777 -73 777 -47.5 751 c 128,-1,1
-162.5 716 m 128,-1,15
 -183 696 -183 696 -183 671 c 0,16,17
 -183 649 -183 649 -168 634 c 128,-1,18
 -153 619 -153 619 -130 619 c 0,19,20
 -103 619 -103 619 -82 638.5 c 128,-1,21
 -61 658 -61 658 -61 684 c 0,22,23
 -61 705 -61 705 -76.5 720.5 c 128,-1,24
 -92 736 -92 736 -116 736 c 0,25,14
 -142 736 -142 736 -162.5 716 c 128,-1,15
EndSplineSet
EndChar

StartChar: uni030B
Encoding: 779 779 412
Width: 0
Flags: W
LayerCount: 2
Fore
SplineSet
-216 751 m 1,0,-1
 -163 723 l 1,1,-1
 -258 617 l 1,2,-1
 -309 624 l 1,3,-1
 -216 751 l 1,0,-1
-74 751 m 1,4,-1
 -21 723 l 1,5,-1
 -116 617 l 1,6,-1
 -167 624 l 1,7,-1
 -74 751 l 1,4,-1
EndSplineSet
Substitution2: "<3,3> Small Caps in Latin lookup 11 subtable" uni030B.sc
EndChar

StartChar: uni030C
Encoding: 780 780 413
Width: 0
Flags: W
LayerCount: 2
Fore
SplineSet
-60 744 m 1,0,-1
 9 744 l 1,1,-1
 -118 619 l 1,2,-1
 -192 619 l 1,3,-1
 -270 744 l 1,4,-1
 -201 744 l 1,5,-1
 -146 668 l 1,6,-1
 -60 744 l 1,0,-1
EndSplineSet
Substitution2: "<3,3> Small Caps in Latin lookup 11 subtable" uni030C.sc
EndChar

StartChar: uni030F
Encoding: 783 783 414
Width: 0
Flags: W
LayerCount: 2
Fore
SplineSet
-208 751 m 1,0,-1
 -144 624 l 1,1,-1
 -199 617 l 1,2,-1
 -271 723 l 1,3,-1
 -208 751 l 1,0,-1
-66 751 m 1,4,-1
 -2 624 l 1,5,-1
 -57 617 l 1,6,-1
 -129 723 l 1,7,-1
 -66 751 l 1,4,-1
EndSplineSet
Substitution2: "<3,3> Small Caps in Latin lookup 11 subtable" uni030F.sc
EndChar

StartChar: uni0311
Encoding: 785 785 415
Width: 0
Flags: W
LayerCount: 2
Fore
SplineSet
-69 627 m 0,1,2
 -69 655 -69 655 -85.5 672.5 c 128,-1,3
 -102 690 -102 690 -129 690 c 0,4,5
 -160 690 -160 690 -185 668 c 128,-1,6
 -210 646 -210 646 -218 614 c 1,7,-1
 -267 614 l 1,8,9
 -255 668 -255 668 -213.5 703 c 128,-1,10
 -172 738 -172 738 -121 738 c 0,11,12
 -75 738 -75 738 -47 710 c 128,-1,13
 -19 682 -19 682 -19 637 c 0,14,15
 -19 630 -19 630 -21 614 c 1,16,-1
 -70 614 l 1,17,0
 -69 618 -69 618 -69 627 c 0,1,2
EndSplineSet
Substitution2: "<3,3> Small Caps in Latin lookup 11 subtable" uni0311.sc
EndChar

StartChar: uni0312
Encoding: 786 786 416
Width: 0
Flags: W
LayerCount: 2
Fore
SplineSet
-86 614 m 1,0,-1
 -152 614 l 1,1,-1
 -73 770 l 1,2,-1
 -23 770 l 1,3,-1
 -86 614 l 1,0,-1
EndSplineSet
EndChar

StartChar: uni031B
Encoding: 795 795 417
Width: 0
Flags: W
LayerCount: 2
Fore
SplineSet
-79 609 m 0,1,2
 -79 552 -79 552 -118 515.5 c 128,-1,3
 -157 479 -157 479 -223 479 c 1,4,-1
 -214 524 l 1,5,6
 -176 524 -176 524 -156 543.5 c 128,-1,7
 -136 563 -136 563 -136 595 c 0,8,9
 -136 613 -136 613 -142 631 c 1,10,-1
 -85 652 l 1,11,0
 -79 630 -79 630 -79 609 c 0,1,2
EndSplineSet
EndChar

StartChar: dotbelowcomb
Encoding: 803 803 418
Width: 0
Flags: W
LayerCount: 2
Fore
SplineSet
-204.5 -87.5 m 128,-1,1
 -194 -99 -194 -99 -194 -116 c 0,2,3
 -194 -139 -194 -139 -211 -155.5 c 128,-1,4
 -228 -172 -228 -172 -251 -172 c 0,5,6
 -267 -172 -267 -172 -278 -160.5 c 128,-1,7
 -289 -149 -289 -149 -289 -132 c 0,8,9
 -289 -109 -289 -109 -272 -92.5 c 128,-1,10
 -255 -76 -255 -76 -232 -76 c 0,11,0
 -215 -76 -215 -76 -204.5 -87.5 c 128,-1,1
EndSplineSet
Substitution2: "<3,3> Small Caps in Latin lookup 11 subtable" dotbelowcomb.sc
EndChar

StartChar: uni0324
Encoding: 804 804 419
Width: 0
Flags: W
LayerCount: 2
Fore
SplineSet
-366.5 -84.5 m 128,-1,1
 -357 -95 -357 -95 -357 -111 c 0,2,3
 -357 -132 -357 -132 -373 -147.5 c 128,-1,4
 -389 -163 -389 -163 -409 -163 c 0,5,6
 -425 -163 -425 -163 -435 -152.5 c 128,-1,7
 -445 -142 -445 -142 -445 -126 c 0,8,9
 -445 -105 -445 -105 -429 -89.5 c 128,-1,10
 -413 -74 -413 -74 -392 -74 c 0,11,0
 -376 -74 -376 -74 -366.5 -84.5 c 128,-1,1
-202.5 -84.5 m 128,-1,13
 -193 -95 -193 -95 -193 -111 c 0,14,15
 -193 -132 -193 -132 -209 -147.5 c 128,-1,16
 -225 -163 -225 -163 -245 -163 c 0,17,18
 -261 -163 -261 -163 -271 -152.5 c 128,-1,19
 -281 -142 -281 -142 -281 -126 c 0,20,21
 -281 -105 -281 -105 -265 -89.5 c 128,-1,22
 -249 -74 -249 -74 -228 -74 c 0,23,12
 -212 -74 -212 -74 -202.5 -84.5 c 128,-1,13
EndSplineSet
Substitution2: "<3,3> Small Caps in Latin lookup 11 subtable" uni0324.sc
EndChar

StartChar: uni0326
Encoding: 806 806 420
Width: 0
Flags: W
LayerCount: 2
Fore
SplineSet
-243 -61 m 1,0,-1
 -177 -61 l 1,1,-1
 -256 -217 l 1,2,-1
 -306 -217 l 1,3,-1
 -243 -61 l 1,0,-1
EndSplineSet
EndChar

StartChar: uni0327
Encoding: 807 807 421
Width: 0
Flags: W
LayerCount: 2
Fore
SplineSet
-222 0 m 1,0,-1
 -249 -52 l 1,1,2
 -216 -56 -216 -56 -199 -74 c 128,-1,3
 -182 -92 -182 -92 -182 -117 c 0,4,5
 -182 -160 -182 -160 -217 -188 c 128,-1,6
 -252 -216 -252 -216 -304 -216 c 0,7,8
 -326 -216 -326 -216 -348 -210 c 128,-1,9
 -370 -204 -370 -204 -386 -194 c 1,10,-1
 -361 -148 l 1,11,12
 -349 -155 -349 -155 -333.5 -159.5 c 128,-1,13
 -318 -164 -318 -164 -303 -164 c 0,14,15
 -275 -164 -275 -164 -257.5 -149.5 c 128,-1,16
 -240 -135 -240 -135 -240 -117 c 0,17,18
 -240 -102 -240 -102 -252 -92.5 c 128,-1,19
 -264 -83 -264 -83 -286 -83 c 2,20,-1
 -316 -83 l 1,21,-1
 -272 7 l 1,22,-1
 -222 0 l 1,0,-1
EndSplineSet
Substitution2: "<3,3> Small Caps in Latin lookup 11 subtable" uni0327.sc
EndChar

StartChar: uni0328
Encoding: 808 808 422
Width: 0
Flags: W
LayerCount: 2
Fore
SplineSet
-164 0 m 1,0,1
 -235 -43 -235 -43 -264.5 -72 c 128,-1,2
 -294 -101 -294 -101 -294 -131 c 0,3,4
 -294 -146 -294 -146 -285 -154 c 128,-1,5
 -276 -162 -276 -162 -262 -162 c 0,6,7
 -237 -162 -237 -162 -213 -148 c 1,8,-1
 -203 -194 l 1,9,10
 -245 -215 -245 -215 -285 -215 c 0,11,12
 -320 -215 -320 -215 -340 -198 c 128,-1,13
 -360 -181 -360 -181 -360 -149 c 0,14,15
 -360 -104 -360 -104 -322 -61.5 c 128,-1,16
 -284 -19 -284 -19 -200 27 c 1,17,-1
 -164 0 l 1,0,1
EndSplineSet
EndChar

StartChar: uni032E
Encoding: 814 814 423
Width: 0
Flags: W
LayerCount: 2
Fore
SplineSet
-373 -63 m 0,1,2
 -373 -91 -373 -91 -356.5 -108.5 c 128,-1,3
 -340 -126 -340 -126 -313 -126 c 0,4,5
 -282 -126 -282 -126 -257 -104 c 128,-1,6
 -232 -82 -232 -82 -224 -50 c 1,7,-1
 -175 -50 l 1,8,9
 -187 -104 -187 -104 -228.5 -139 c 128,-1,10
 -270 -174 -270 -174 -321 -174 c 0,11,12
 -367 -174 -367 -174 -395 -146 c 128,-1,13
 -423 -118 -423 -118 -423 -73 c 0,14,15
 -423 -66 -423 -66 -421 -50 c 1,16,-1
 -372 -50 l 1,17,0
 -373 -54 -373 -54 -373 -63 c 0,1,2
EndSplineSet
EndChar

StartChar: uni0331
Encoding: 817 817 424
Width: 0
Flags: W
LayerCount: 2
Fore
SplineSet
-435 -85 m 1,0,-1
 -199 -85 l 1,1,-1
 -208 -132 l 1,2,-1
 -444 -132 l 1,3,-1
 -435 -85 l 1,0,-1
EndSplineSet
EndChar

StartChar: uni0335
Encoding: 821 821 425
Width: 0
Flags: W
LayerCount: 2
Fore
SplineSet
-402 463 m 1,0,-1
 -90 463 l 1,1,-1
 -98 419 l 1,2,-1
 -410 419 l 1,3,-1
 -402 463 l 1,0,-1
EndSplineSet
EndChar

StartChar: uni0336
Encoding: 822 822 426
Width: 0
Flags: W
LayerCount: 2
Fore
SplineSet
-476 463 m 1,0,-1
 -90 463 l 1,1,-1
 -98 419 l 1,2,-1
 -484 419 l 1,3,-1
 -476 463 l 1,0,-1
EndSplineSet
EndChar

StartChar: uni0337
Encoding: 823 823 427
Width: 0
Flags: W
LayerCount: 2
Fore
SplineSet
-36 559 m 1,0,-1
 -284 86 l 1,1,-1
 -343 86 l 1,2,-1
 -95 559 l 1,3,-1
 -36 559 l 1,0,-1
EndSplineSet
EndChar

StartChar: uni0338
Encoding: 824 824 428
Width: 0
Flags: W
LayerCount: 2
Fore
SplineSet
-429 0 m 1,0,-1
 -41 742 l 1,1,-1
 19 742 l 1,2,-1
 -370 0 l 1,3,-1
 -429 0 l 1,0,-1
EndSplineSet
EndChar

StartChar: uni0394
Encoding: 916 916 429
Width: 712
Flags: W
LayerCount: 2
Fore
SplineSet
455 700 m 1,0,-1
 654 0 l 1,1,-1
 -47 0 l 1,2,-1
 383 700 l 1,3,-1
 455 700 l 1,0,-1
64 63 m 1,4,-1
 562 63 l 1,5,-1
 405 625 l 1,6,-1
 64 63 l 1,4,-1
EndSplineSet
EndChar

StartChar: uni03A9
Encoding: 937 937 430
Width: 904
Flags: W
LayerCount: 2
Fore
SplineSet
642 662.5 m 128,-1,1
 717 623 717 623 758.5 553.5 c 128,-1,2
 800 484 800 484 800 395 c 0,3,4
 800 301 800 301 747 207.5 c 128,-1,5
 694 114 694 114 612 59 c 1,6,-1
 852 59 l 1,7,-1
 841 0 l 1,8,-1
 526 0 l 1,9,-1
 532 63 l 1,10,11
 625 112 625 112 680.5 201 c 128,-1,12
 736 290 736 290 736 383 c 0,13,14
 736 455 736 455 703 514 c 128,-1,15
 670 573 670 573 609 607 c 128,-1,16
 548 641 548 641 467 641 c 0,17,18
 374 641 374 641 299 598 c 128,-1,19
 224 555 224 555 182 482.5 c 128,-1,20
 140 410 140 410 140 327 c 0,21,22
 140 246 140 246 179 174.5 c 128,-1,23
 218 103 218 103 287 63 c 1,24,-1
 281 0 l 1,25,-1
 -42 0 l 1,26,-1
 -30 59 l 1,27,-1
 205 59 l 1,28,29
 147 104 147 104 112.5 179 c 128,-1,30
 78 254 78 254 78 334 c 0,31,32
 78 435 78 435 130.5 519.5 c 128,-1,33
 183 604 183 604 273.5 653 c 128,-1,34
 364 702 364 702 472 702 c 0,35,0
 567 702 567 702 642 662.5 c 128,-1,1
EndSplineSet
EndChar

StartChar: uni03BC
Encoding: 956 956 431
Width: 656
Flags: W
LayerCount: 2
Fore
SplineSet
609 524 m 1,0,-1
 506 0 l 1,1,-1
 438 0 l 1,2,-1
 460 110 l 1,3,4
 425 55 425 55 371.5 26 c 128,-1,5
 318 -3 318 -3 250 -4 c 0,6,7
 155 -4 155 -4 107 46 c 1,8,-1
 59 -194 l 1,9,-1
 -9 -194 l 1,10,-1
 134 524 l 1,11,-1
 202 524 l 1,12,-1
 139 208 l 2,13,14
 137 198 137 198 137 178 c 0,15,16
 137 121 137 121 172 89 c 128,-1,17
 207 57 207 57 270 57 c 0,18,19
 351 58 351 58 410 108.5 c 128,-1,20
 469 159 469 159 487 246 c 2,21,-1
 542 524 l 1,22,-1
 609 524 l 1,0,-1
EndSplineSet
EndChar

StartChar: pi
Encoding: 960 960 432
Width: 722
Flags: W
LayerCount: 2
Fore
SplineSet
756 471 m 1,0,-1
 591 471 l 1,1,-1
 497 0 l 1,2,-1
 439 0 l 1,3,-1
 533 471 l 1,4,-1
 338 471 l 1,5,-1
 190 0 l 1,6,-1
 132 0 l 1,7,-1
 280 471 l 1,8,-1
 214 471 l 2,9,10
 174 471 174 471 141 452.5 c 128,-1,11
 108 434 108 434 89 402.5 c 128,-1,12
 70 371 70 371 70 336 c 0,13,14
 70 306 70 306 83 280 c 1,15,-1
 34 264 l 1,16,17
 15 303 15 303 15 345 c 0,18,19
 15 393 15 393 40.5 434 c 128,-1,20
 66 475 66 475 111 499.5 c 128,-1,21
 156 524 156 524 213 524 c 2,22,-1
 766 524 l 1,23,-1
 756 471 l 1,0,-1
EndSplineSet
EndChar

StartChar: uni1E08
Encoding: 7688 7688 433
Width: 728
Flags: W
LayerCount: 2
Fore
SplineSet
638 867 m 1,0,-1
 512 767 l 1,1,-1
 452 774 l 1,2,-1
 569 898 l 1,3,-1
 638 867 l 1,0,-1
296 599.5 m 128,-1,5
 221 556 221 556 176.5 482.5 c 128,-1,6
 132 409 132 409 132 322 c 0,7,8
 132 249 132 249 166.5 189 c 128,-1,9
 201 129 201 129 262 94 c 128,-1,10
 323 59 323 59 398 59 c 0,11,12
 457 59 457 59 514 81.5 c 128,-1,13
 571 104 571 104 617 144 c 1,14,-1
 655 99 l 1,15,16
 599 51 599 51 530 23 c 128,-1,17
 461 -5 461 -5 392 -6 c 1,18,-1
 368 -52 l 1,19,20
 401 -56 401 -56 418 -74 c 128,-1,21
 435 -92 435 -92 435 -117 c 0,22,23
 435 -160 435 -160 400 -188 c 128,-1,24
 365 -216 365 -216 313 -216 c 0,25,26
 291 -216 291 -216 269 -210 c 128,-1,27
 247 -204 247 -204 231 -194 c 1,28,-1
 256 -148 l 1,29,30
 268 -155 268 -155 283.5 -159.5 c 128,-1,31
 299 -164 299 -164 314 -164 c 0,32,33
 342 -164 342 -164 359.5 -149.5 c 128,-1,34
 377 -135 377 -135 377 -117 c 0,35,36
 377 -102 377 -102 365 -92.5 c 128,-1,37
 353 -83 353 -83 331 -83 c 2,38,-1
 301 -83 l 1,39,-1
 340 -3 l 1,40,41
 259 8 259 8 196 52.5 c 128,-1,42
 133 97 133 97 97.5 166.5 c 128,-1,43
 62 236 62 236 62 318 c 0,44,45
 62 422 62 422 117 511 c 128,-1,46
 172 600 172 600 264 652.5 c 128,-1,47
 356 705 356 705 461 705 c 0,48,49
 532 705 532 705 595.5 678.5 c 128,-1,50
 659 652 659 652 705 605 c 1,51,-1
 659 556 l 1,52,53
 620 598 620 598 568 620.5 c 128,-1,54
 516 643 516 643 457 643 c 0,55,4
 371 643 371 643 296 599.5 c 128,-1,5
EndSplineSet
EndChar

StartChar: uni1E09
Encoding: 7689 7689 434
Width: 581
Flags: W
LayerCount: 2
Fore
SplineSet
506 717 m 1,0,-1
 380 617 l 1,1,-1
 320 624 l 1,2,-1
 437 748 l 1,3,-1
 506 717 l 1,0,-1
384 74.5 m 128,-1,5
 428 92 428 92 460 126 c 1,6,-1
 495 86 l 1,7,8
 456 45 456 45 402 22 c 128,-1,9
 348 -1 348 -1 285 -2 c 1,10,-1
 259 -52 l 1,11,12
 292 -56 292 -56 309 -74 c 128,-1,13
 326 -92 326 -92 326 -117 c 0,14,15
 326 -160 326 -160 291 -188 c 128,-1,16
 256 -216 256 -216 204 -216 c 0,17,18
 182 -216 182 -216 160 -210 c 128,-1,19
 138 -204 138 -204 122 -194 c 1,20,-1
 147 -148 l 1,21,22
 159 -155 159 -155 174.5 -159.5 c 128,-1,23
 190 -164 190 -164 205 -164 c 0,24,25
 233 -164 233 -164 250.5 -149.5 c 128,-1,26
 268 -135 268 -135 268 -117 c 0,27,28
 268 -102 268 -102 256 -92.5 c 128,-1,29
 244 -83 244 -83 222 -83 c 2,30,-1
 192 -83 l 1,31,-1
 233 2 l 1,32,33
 147 16 147 16 96 79 c 128,-1,34
 45 142 45 142 45 236 c 0,35,36
 45 319 45 319 83 385.5 c 128,-1,37
 121 452 121 452 186.5 489.5 c 128,-1,38
 252 527 252 527 332 527 c 0,39,40
 392 527 392 527 441 507 c 128,-1,41
 490 487 490 487 522 451 c 1,42,-1
 480 405 l 1,43,44
 421 467 421 467 329 467 c 0,45,46
 269 467 269 467 219 438 c 128,-1,47
 169 409 169 409 140.5 357.5 c 128,-1,48
 112 306 112 306 112 241 c 0,49,50
 112 159 112 159 160.5 108 c 128,-1,51
 209 57 209 57 288 57 c 0,52,4
 340 57 340 57 384 74.5 c 128,-1,5
EndSplineSet
Substitution2: "<3,3> Small Caps in Latin lookup 11 subtable" uni1E09.sc
EndChar

StartChar: uni1E1C
Encoding: 7708 7708 443
Width: 650
Flags: W
LayerCount: 2
Fore
SplineSet
377 793 m 128,-1,1
 349 821 349 821 349 866 c 0,2,3
 349 873 349 873 351 889 c 1,4,-1
 400 889 l 1,5,6
 399 885 399 885 399 876 c 0,7,8
 399 848 399 848 415.5 830.5 c 128,-1,9
 432 813 432 813 459 813 c 0,10,11
 490 813 490 813 515 835 c 128,-1,12
 540 857 540 857 548 889 c 1,13,-1
 597 889 l 1,14,15
 585 835 585 835 543.5 800 c 128,-1,16
 502 765 502 765 451 765 c 0,17,0
 405 765 405 765 377 793 c 128,-1,1
254 636 m 1,18,-1
 204 387 l 1,19,-1
 561 387 l 1,20,-1
 548 324 l 1,21,-1
 191 324 l 1,22,-1
 139 63 l 1,23,-1
 551 63 l 1,24,-1
 539 0 l 1,25,-1
 351 0 l 1,26,-1
 324 -52 l 1,27,28
 357 -56 357 -56 374 -74 c 128,-1,29
 391 -92 391 -92 391 -117 c 0,30,31
 391 -160 391 -160 356 -188 c 128,-1,32
 321 -216 321 -216 269 -216 c 0,33,34
 247 -216 247 -216 225 -210 c 128,-1,35
 203 -204 203 -204 187 -194 c 1,36,-1
 212 -148 l 1,37,38
 224 -155 224 -155 239.5 -159.5 c 128,-1,39
 255 -164 255 -164 270 -164 c 0,40,41
 298 -164 298 -164 315.5 -149.5 c 128,-1,42
 333 -135 333 -135 333 -117 c 0,43,44
 333 -102 333 -102 321 -92.5 c 128,-1,45
 309 -83 309 -83 287 -83 c 2,46,-1
 257 -83 l 1,47,-1
 298 0 l 1,48,-1
 58 0 l 1,49,-1
 198 700 l 1,50,-1
 666 700 l 1,51,-1
 654 636 l 1,52,-1
 254 636 l 1,18,-1
EndSplineSet
EndChar

StartChar: uni1E1D
Encoding: 7709 7709 444
Width: 599
Flags: W
LayerCount: 2
Fore
SplineSet
310 642 m 128,-1,1
 282 670 282 670 282 715 c 0,2,3
 282 722 282 722 284 738 c 1,4,-1
 333 738 l 1,5,6
 332 734 332 734 332 725 c 0,7,8
 332 697 332 697 348.5 679.5 c 128,-1,9
 365 662 365 662 392 662 c 0,10,11
 423 662 423 662 448 684 c 128,-1,12
 473 706 473 706 481 738 c 1,13,-1
 530 738 l 1,14,15
 518 684 518 684 476.5 649 c 128,-1,16
 435 614 435 614 384 614 c 0,17,0
 338 614 338 614 310 642 c 128,-1,1
111 239 m 1,18,-1
 111 236 l 2,19,20
 111 153 111 153 160.5 103 c 128,-1,21
 210 53 210 53 293 53 c 0,22,23
 341 53 341 53 384 69 c 128,-1,24
 427 85 427 85 460 115 c 1,25,-1
 492 71 l 1,26,27
 456 38 456 38 409 19 c 128,-1,28
 362 0 362 0 307 -3 c 1,29,-1
 281 -52 l 1,30,31
 314 -56 314 -56 331 -74 c 128,-1,32
 348 -92 348 -92 348 -117 c 0,33,34
 348 -160 348 -160 313 -188 c 128,-1,35
 278 -216 278 -216 226 -216 c 0,36,37
 204 -216 204 -216 182 -210 c 128,-1,38
 160 -204 160 -204 144 -194 c 1,39,-1
 169 -148 l 1,40,41
 181 -155 181 -155 196.5 -159.5 c 128,-1,42
 212 -164 212 -164 227 -164 c 0,43,44
 255 -164 255 -164 272.5 -149.5 c 128,-1,45
 290 -135 290 -135 290 -117 c 0,46,47
 290 -102 290 -102 278 -92.5 c 128,-1,48
 266 -83 266 -83 244 -83 c 2,49,-1
 214 -83 l 1,50,-1
 254 -1 l 1,51,52
 159 10 159 10 102 74 c 128,-1,53
 45 138 45 138 45 236 c 0,54,55
 45 318 45 318 83 384.5 c 128,-1,56
 121 451 121 451 187.5 489 c 128,-1,57
 254 527 254 527 334 527 c 0,58,59
 438 527 438 527 498.5 465 c 128,-1,60
 559 403 559 403 559 299 c 0,61,62
 559 274 559 274 554 239 c 1,63,-1
 111 239 l 1,18,-1
193.5 421 m 128,-1,65
 134 372 134 372 117 292 c 1,66,-1
 499 292 l 1,67,68
 500 375 500 375 456.5 422.5 c 128,-1,69
 413 470 413 470 334 470 c 0,70,64
 253 470 253 470 193.5 421 c 128,-1,65
EndSplineSet
Substitution2: "<3,3> Small Caps in Latin lookup 11 subtable" uni1E1D.sc
EndChar

StartChar: uni1E9E
Encoding: 7838 7838 506
Width: 694
Flags: W
LayerCount: 2
Fore
SplineSet
651 576 m 1,0,-1
 466 395 l 1,1,2
 544 385 544 385 584.5 344.5 c 128,-1,3
 625 304 625 304 625 242 c 0,4,5
 625 171 625 171 587.5 116 c 128,-1,6
 550 61 550 61 485 30.5 c 128,-1,7
 420 0 420 0 342 0 c 2,8,-1
 259 0 l 1,9,-1
 271 63 l 1,10,-1
 354 63 l 2,11,12
 411 63 411 63 456.5 84 c 128,-1,13
 502 105 502 105 528 143 c 128,-1,14
 554 181 554 181 554 229 c 0,15,16
 554 280 554 280 515 308 c 128,-1,17
 476 336 476 336 403 336 c 2,18,-1
 378 336 l 1,19,-1
 390 398 l 1,20,-1
 598 600 l 1,21,22
 539 642 539 642 446 642 c 0,23,24
 349 642 349 642 284 590 c 128,-1,25
 219 538 219 538 200 443 c 2,26,-1
 113 0 l 1,27,-1
 44 0 l 1,28,-1
 131 443 l 2,29,30
 155 567 155 567 241.5 636 c 128,-1,31
 328 705 328 705 456 705 c 0,32,33
 581 705 581 705 662 636 c 1,34,-1
 651 576 l 1,0,-1
EndSplineSet
EndChar

StartChar: figuredash
Encoding: 8210 8210 603
Width: 618
Flags: W
LayerCount: 2
Fore
SplineSet
13 326 m 1,0,-1
 630 326 l 1,1,-1
 621 277 l 1,2,-1
 4 277 l 1,3,-1
 13 326 l 1,0,-1
EndSplineSet
EndChar

StartChar: endash
Encoding: 8211 8211 604
Width: 403
Flags: W
LayerCount: 2
Fore
SplineSet
415 327 m 1,0,-1
 406 277 l 1,1,-1
 4 277 l 1,2,-1
 13 327 l 1,3,-1
 415 327 l 1,0,-1
EndSplineSet
EndChar

StartChar: emdash
Encoding: 8212 8212 605
Width: 726
Flags: W
LayerCount: 2
Fore
SplineSet
738 327 m 1,0,-1
 729 277 l 1,1,-1
 4 277 l 1,2,-1
 13 327 l 1,3,-1
 738 327 l 1,0,-1
EndSplineSet
EndChar

StartChar: quoteleft
Encoding: 8216 8216 607
Width: 184
Flags: W
LayerCount: 2
Fore
SplineSet
196 597 m 0,1,2
 196 578 196 578 182 564 c 128,-1,3
 168 550 168 550 148 550 c 0,4,5
 132 550 132 550 120 561 c 128,-1,6
 108 572 108 572 108 589 c 0,7,8
 108 601 108 601 111.5 609.5 c 128,-1,9
 115 618 115 618 124 633 c 2,10,-1
 184 742 l 1,11,-1
 224 742 l 1,12,-1
 175 634 l 1,13,0
 196 624 196 624 196 597 c 0,1,2
EndSplineSet
Substitution2: "<3,3> Small Caps in Latin lookup 11 subtable" quoteleft.sc
EndChar

StartChar: quoteright
Encoding: 8217 8217 608
Width: 185
Flags: W
LayerCount: 2
Fore
SplineSet
211 731 m 128,-1,1
 223 720 223 720 223 703 c 0,2,3
 223 691 223 691 219.5 683 c 128,-1,4
 216 675 216 675 207 659 c 2,5,-1
 147 550 l 1,6,-1
 107 550 l 1,7,-1
 156 658 l 1,8,9
 135 670 135 670 135 695 c 0,10,11
 135 714 135 714 149 728 c 128,-1,12
 163 742 163 742 183 742 c 0,13,0
 199 742 199 742 211 731 c 128,-1,1
EndSplineSet
Substitution2: "<3,3> Small Caps in Latin lookup 11 subtable" quoteright.sc
EndChar

StartChar: quotesinglbase
Encoding: 8218 8218 609
Width: 184
Flags: W
LayerCount: 2
Fore
SplineSet
78 71 m 128,-1,1
 90 60 90 60 90 43 c 0,2,3
 90 31 90 31 86.5 23 c 128,-1,4
 83 15 83 15 74 -1 c 2,5,-1
 14 -110 l 1,6,-1
 -26 -110 l 1,7,-1
 23 -2 l 1,8,9
 2 10 2 10 2 35 c 0,10,11
 2 54 2 54 16 68 c 128,-1,12
 30 82 30 82 50 82 c 0,13,0
 66 82 66 82 78 71 c 128,-1,1
EndSplineSet
EndChar

StartChar: dagger
Encoding: 8224 8224 613
Width: 508
Flags: W
LayerCount: 2
Fore
SplineSet
373 699 m 1,0,-1
 328 474 l 1,1,-1
 538 474 l 1,2,-1
 526 411 l 1,3,-1
 316 411 l 1,4,-1
 195 -192 l 1,5,-1
 130 -192 l 1,6,-1
 251 411 l 1,7,-1
 43 411 l 1,8,-1
 55 474 l 1,9,-1
 263 474 l 1,10,-1
 309 699 l 1,11,-1
 373 699 l 1,0,-1
EndSplineSet
EndChar

StartChar: daggerdbl
Encoding: 8225 8225 614
Width: 509
Flags: W
LayerCount: 2
Fore
SplineSet
526 411 m 1,0,-1
 316 411 l 1,1,-1
 259 125 l 1,2,-1
 468 125 l 1,3,-1
 456 62 l 1,4,-1
 246 62 l 1,5,-1
 195 -192 l 1,6,-1
 131 -192 l 1,7,-1
 182 62 l 1,8,-1
 -27 62 l 1,9,-1
 -15 125 l 1,10,-1
 195 125 l 1,11,-1
 252 411 l 1,12,-1
 43 411 l 1,13,-1
 55 474 l 1,14,-1
 264 474 l 1,15,-1
 309 699 l 1,16,-1
 374 699 l 1,17,-1
 328 474 l 1,18,-1
 538 474 l 1,19,-1
 526 411 l 1,0,-1
EndSplineSet
EndChar

StartChar: bullet
Encoding: 8226 8226 615
Width: 243
Flags: W
LayerCount: 2
Fore
SplineSet
171 317.5 m 128,-1,1
 190 298 190 298 190 268 c 0,2,3
 190 239 190 239 170.5 219 c 128,-1,4
 151 199 151 199 123 199 c 256,5,6
 95 199 95 199 75.5 219 c 128,-1,7
 56 239 56 239 56 268 c 0,8,9
 56 298 56 298 75 317.5 c 128,-1,10
 94 337 94 337 123 337 c 256,11,0
 152 337 152 337 171 317.5 c 128,-1,1
EndSplineSet
EndChar

StartChar: ellipsis
Encoding: 8230 8230 616
Width: 552
Flags: W
LayerCount: 2
Fore
SplineSet
84.5 70.5 m 128,-1,1
 96 59 96 59 96 41 c 0,2,3
 96 21 96 21 81.5 6.5 c 128,-1,4
 67 -8 67 -8 48 -8 c 0,5,6
 30 -8 30 -8 19.5 3.5 c 128,-1,7
 9 15 9 15 9 33 c 0,8,9
 9 54 9 54 22.5 68 c 128,-1,10
 36 82 36 82 56 82 c 0,11,0
 73 82 73 82 84.5 70.5 c 128,-1,1
263.5 70.5 m 128,-1,13
 275 59 275 59 275 41 c 0,14,15
 275 21 275 21 260.5 6.5 c 128,-1,16
 246 -8 246 -8 227 -8 c 0,17,18
 209 -8 209 -8 198.5 3.5 c 128,-1,19
 188 15 188 15 188 33 c 0,20,21
 188 54 188 54 201.5 68 c 128,-1,22
 215 82 215 82 235 82 c 0,23,12
 252 82 252 82 263.5 70.5 c 128,-1,13
442.5 70.5 m 128,-1,25
 454 59 454 59 454 41 c 0,26,27
 454 21 454 21 439.5 6.5 c 128,-1,28
 425 -8 425 -8 406 -8 c 0,29,30
 388 -8 388 -8 377.5 3.5 c 128,-1,31
 367 15 367 15 367 33 c 0,32,33
 367 54 367 54 380.5 68 c 128,-1,34
 394 82 394 82 414 82 c 0,35,24
 431 82 431 82 442.5 70.5 c 128,-1,25
EndSplineSet
EndChar

StartChar: minute
Encoding: 8242 8242 618
Width: 170
Flags: W
LayerCount: 2
Fore
SplineSet
149 700 m 1,0,-1
 213 700 l 1,1,-1
 132 460 l 1,2,-1
 85 460 l 1,3,-1
 149 700 l 1,0,-1
EndSplineSet
EndChar

StartChar: guilsinglleft
Encoding: 8249 8249 620
Width: 273
Flags: W
LayerCount: 2
Fore
SplineSet
244 418 m 1,0,-1
 102 251 l 1,1,-1
 179 90 l 1,2,-1
 119 90 l 1,3,-1
 39 253 l 1,4,-1
 184 418 l 1,5,-1
 244 418 l 1,0,-1
EndSplineSet
Substitution2: "<3,3> Small Caps in Latin lookup 11 subtable" guilsinglleft.sc
Substitution2: "'rtla' Right to Left Alternates lookup 0 subtable" guilsinglright
EndChar

StartChar: guilsinglright
Encoding: 8250 8250 621
Width: 278
Flags: W
LayerCount: 2
Fore
SplineSet
43 91 m 1,0,-1
 185 258 l 1,1,-1
 108 419 l 1,2,-1
 168 419 l 1,3,-1
 248 256 l 1,4,-1
 103 91 l 1,5,-1
 43 91 l 1,0,-1
EndSplineSet
Substitution2: "<3,3> Small Caps in Latin lookup 11 subtable" guilsinglright.sc
Substitution2: "'rtla' Right to Left Alternates lookup 0 subtable" guilsinglleft
EndChar

StartChar: fraction
Encoding: 8260 8260 622
Width: 141
Flags: W
LayerCount: 2
Fore
SplineSet
-157 0 m 1,0,-1
 -209 0 l 1,1,-1
 318 700 l 1,2,-1
 370 700 l 1,3,-1
 -157 0 l 1,0,-1
EndSplineSet
EndChar

StartChar: colonmonetary
Encoding: 8353 8353 640
Width: 728
Flags: W
LayerCount: 2
Fore
SplineSet
295.5 596 m 128,-1,1
 221 553 221 553 176 480.5 c 128,-1,2
 131 408 131 408 131 323 c 0,3,4
 131 251 131 251 166 191 c 128,-1,5
 201 131 201 131 261.5 96.5 c 128,-1,6
 322 62 322 62 397 62 c 0,7,8
 455 62 455 62 512.5 84 c 128,-1,9
 570 106 570 106 617 146 c 1,10,-1
 655 101 l 1,11,12
 607 60 607 60 549.5 33.5 c 128,-1,13
 492 7 492 7 432 0 c 1,14,-1
 390 -130 l 1,15,-1
 336 -130 l 1,16,-1
 377 -3 l 1,17,18
 338 -1 338 -1 306 7 c 1,19,-1
 262 -130 l 1,20,-1
 208 -130 l 1,21,-1
 257 22 l 1,22,23
 168 59 168 59 114.5 138.5 c 128,-1,24
 61 218 61 218 61 318 c 0,25,26
 61 409 61 409 104 488.5 c 128,-1,27
 147 568 147 568 220.5 622.5 c 128,-1,28
 294 677 294 677 384 694 c 1,29,-1
 425 818 l 1,30,-1
 479 818 l 1,31,-1
 440 701 l 1,32,-1
 460 701 l 2,33,34
 490 701 490 701 514 697 c 1,35,-1
 553 818 l 1,36,-1
 607 818 l 1,37,-1
 564 686 l 1,38,39
 646 660 646 660 703 602 c 1,40,-1
 658 553 l 1,41,42
 619 594 619 594 566.5 616.5 c 128,-1,43
 514 639 514 639 456 639 c 0,44,0
 370 639 370 639 295.5 596 c 128,-1,1
EndSplineSet
EndChar

StartChar: franc
Encoding: 8355 8355 641
Width: 559
Flags: W
LayerCount: 2
Fore
SplineSet
623 636 m 1,0,-1
 254 636 l 1,1,-1
 200 369 l 1,2,-1
 529 369 l 1,3,-1
 517 306 l 1,4,-1
 188 306 l 1,5,-1
 162 180 l 1,6,-1
 419 180 l 1,7,-1
 411 138 l 1,8,-1
 154 138 l 1,9,-1
 126 0 l 1,10,-1
 57 0 l 1,11,-1
 85 138 l 1,12,-1
 2 138 l 1,13,-1
 10 180 l 1,14,-1
 93 180 l 1,15,-1
 197 700 l 1,16,-1
 635 700 l 1,17,-1
 623 636 l 1,0,-1
EndSplineSet
EndChar

StartChar: lira
Encoding: 8356 8356 642
Width: 540
Flags: W
LayerCount: 2
Fore
SplineSet
510.5 677.5 m 128,-1,1
 554 653 554 653 581 607 c 1,2,-1
 540 556 l 1,3,4
 493 640 493 640 409 640 c 0,5,6
 346 640 346 640 304 601.5 c 128,-1,7
 262 563 262 563 248 491 c 2,8,-1
 234 421 l 1,9,-1
 417 421 l 1,10,-1
 409 379 l 1,11,-1
 225 379 l 1,12,-1
 211 305 l 1,13,-1
 395 305 l 1,14,-1
 387 264 l 1,15,-1
 202 264 l 1,16,-1
 161 58 l 1,17,-1
 459 58 l 1,18,-1
 448 0 l 1,19,-1
 -8 0 l 1,20,-1
 3 58 l 1,21,-1
 93 58 l 1,22,-1
 134 264 l 1,23,-1
 45 264 l 1,24,-1
 53 305 l 1,25,-1
 142 305 l 1,26,-1
 157 379 l 1,27,-1
 68 379 l 1,28,-1
 76 421 l 1,29,-1
 166 421 l 1,30,-1
 180 493 l 2,31,32
 199 593 199 593 260 647.5 c 128,-1,33
 321 702 321 702 413 702 c 0,34,0
 467 702 467 702 510.5 677.5 c 128,-1,1
EndSplineSet
EndChar

StartChar: uni20A6
Encoding: 8358 8358 643
Width: 841
Flags: W
LayerCount: 2
Fore
SplineSet
815 379 m 1,0,-1
 730 379 l 1,1,-1
 715 305 l 1,2,-1
 800 305 l 1,3,-1
 792 264 l 1,4,-1
 707 264 l 1,5,-1
 654 0 l 1,6,-1
 581 0 l 1,7,-1
 441 264 l 1,8,-1
 201 264 l 1,9,-1
 148 0 l 1,10,-1
 79 0 l 1,11,-1
 132 264 l 1,12,-1
 47 264 l 1,13,-1
 55 305 l 1,14,-1
 140 305 l 1,15,-1
 155 379 l 1,16,-1
 70 379 l 1,17,-1
 78 421 l 1,18,-1
 163 421 l 1,19,-1
 219 700 l 1,20,-1
 292 700 l 1,21,-1
 440 421 l 1,22,-1
 669 421 l 1,23,-1
 726 700 l 1,24,-1
 794 700 l 1,25,-1
 738 421 l 1,26,-1
 823 421 l 1,27,-1
 815 379 l 1,0,-1
267 592 m 1,28,-1
 233 421 l 1,29,-1
 358 421 l 1,30,-1
 267 592 l 1,28,-1
209 305 m 1,31,-1
 419 305 l 1,32,-1
 380 379 l 1,33,-1
 224 379 l 1,34,-1
 209 305 l 1,31,-1
646 305 m 1,35,-1
 661 379 l 1,36,-1
 462 379 l 1,37,-1
 501 305 l 1,38,-1
 646 305 l 1,35,-1
606 107 m 1,39,-1
 638 264 l 1,40,-1
 523 264 l 1,41,-1
 606 107 l 1,39,-1
EndSplineSet
EndChar

StartChar: uni20A9
Encoding: 8361 8361 645
Width: 924
Flags: W
LayerCount: 2
Fore
SplineSet
989 700 m 1,0,-1
 865 421 l 1,1,-1
 950 421 l 1,2,-1
 942 379 l 1,3,-1
 846 379 l 1,4,-1
 813 305 l 1,5,-1
 899 305 l 1,6,-1
 891 264 l 1,7,-1
 795 264 l 1,8,-1
 677 0 l 1,9,-1
 612 0 l 1,10,-1
 576 264 l 1,11,-1
 380 264 l 1,12,-1
 266 0 l 1,13,-1
 201 0 l 1,14,-1
 161 264 l 1,15,-1
 62 264 l 1,16,-1
 70 305 l 1,17,-1
 155 305 l 1,18,-1
 144 379 l 1,19,-1
 44 379 l 1,20,-1
 52 421 l 1,21,-1
 137 421 l 1,22,-1
 95 700 l 1,23,-1
 165 700 l 1,24,-1
 205 421 l 1,25,-1
 390 421 l 1,26,-1
 509 699 l 1,27,-1
 580 700 l 1,28,-1
 617 421 l 1,29,-1
 799 421 l 1,30,-1
 918 700 l 1,31,-1
 989 700 l 1,0,-1
529 607 m 1,32,-1
 448 421 l 1,33,-1
 554 421 l 1,34,-1
 529 607 l 1,32,-1
211 379 m 1,35,-1
 221 305 l 1,36,-1
 340 305 l 1,37,-1
 372 379 l 1,38,-1
 211 379 l 1,35,-1
398 305 m 1,39,-1
 570 305 l 1,40,-1
 560 379 l 1,41,-1
 430 379 l 1,42,-1
 398 305 l 1,39,-1
749 305 m 1,43,-1
 781 379 l 1,44,-1
 623 379 l 1,45,-1
 632 305 l 1,46,-1
 749 305 l 1,43,-1
251 96 m 1,47,-1
 323 264 l 1,48,-1
 227 264 l 1,49,-1
 251 96 l 1,47,-1
660 97 m 1,50,-1
 731 264 l 1,51,-1
 638 264 l 1,52,-1
 660 97 l 1,50,-1
EndSplineSet
EndChar

StartChar: dong
Encoding: 8363 8363 646
Width: 681
Flags: W
LayerCount: 2
Fore
SplineSet
719 591 m 1,0,-1
 644 591 l 1,1,-1
 526 0 l 1,2,-1
 459 0 l 1,3,-1
 480 101 l 1,4,5
 442 51 442 51 387 23.5 c 128,-1,6
 332 -4 332 -4 269 -4 c 0,7,8
 203 -4 203 -4 151.5 25.5 c 128,-1,9
 100 55 100 55 71.5 108 c 128,-1,10
 43 161 43 161 43 229 c 0,11,12
 43 312 43 312 81 380.5 c 128,-1,13
 119 449 119 449 184 488.5 c 128,-1,14
 249 528 249 528 328 528 c 256,15,16
 407 528 407 528 461.5 489 c 128,-1,17
 516 450 516 450 534 381 c 1,18,-1
 576 591 l 1,19,-1
 418 591 l 1,20,-1
 426 632 l 1,21,-1
 585 632 l 1,22,-1
 607 742 l 1,23,-1
 674 742 l 1,24,-1
 652 632 l 1,25,-1
 727 632 l 1,26,-1
 719 591 l 1,0,-1
401 84.5 m 128,-1,28
 452 116 452 116 481.5 170 c 128,-1,29
 511 224 511 224 511 288 c 0,30,31
 511 368 511 368 462 418 c 128,-1,32
 413 468 413 468 334 468 c 0,33,34
 273 468 273 468 222 436.5 c 128,-1,35
 171 405 171 405 141 351 c 128,-1,36
 111 297 111 297 111 233 c 0,37,38
 111 153 111 153 160.5 103 c 128,-1,39
 210 53 210 53 290 53 c 0,40,27
 350 53 350 53 401 84.5 c 128,-1,28
65 -111 m 1,41,-1
 73 -70 l 1,42,-1
 497 -70 l 1,43,-1
 489 -111 l 1,44,-1
 65 -111 l 1,41,-1
EndSplineSet
EndChar

StartChar: Euro
Encoding: 8364 8364 647
Width: 802
Flags: W
LayerCount: 2
Fore
SplineSet
398.5 611 m 128,-1,1
 336 583 336 583 289.5 533.5 c 128,-1,2
 243 484 243 484 221 421 c 1,3,-1
 542 421 l 1,4,-1
 534 379 l 1,5,-1
 210 379 l 1,6,7
 207 366 207 366 205 339 c 2,8,-1
 204 322 l 1,9,-1
 205 305 l 1,10,-1
 517 305 l 1,11,-1
 509 264 l 1,12,-1
 211 264 l 1,13,14
 224 206 224 206 260.5 160 c 128,-1,15
 297 114 297 114 351.5 88 c 128,-1,16
 406 62 406 62 471 62 c 0,17,18
 529 62 529 62 586.5 84 c 128,-1,19
 644 106 644 106 690 146 c 1,20,-1
 728 101 l 1,21,22
 671 53 671 53 602 25 c 128,-1,23
 533 -3 533 -3 463 -3 c 0,24,25
 379 -3 379 -3 309.5 31.5 c 128,-1,26
 240 66 240 66 195.5 127 c 128,-1,27
 151 188 151 188 139 264 c 1,28,-1
 32 264 l 1,29,-1
 40 305 l 1,30,-1
 135 305 l 1,31,-1
 134 320 l 1,32,-1
 135 335 l 2,33,34
 137 365 137 365 140 379 c 1,35,-1
 54 379 l 1,36,-1
 62 421 l 1,37,-1
 149 421 l 1,38,39
 173 501 173 501 230 564.5 c 128,-1,40
 287 628 287 628 366 664.5 c 128,-1,41
 445 701 445 701 533 701 c 0,42,43
 604 701 604 701 667.5 674.5 c 128,-1,44
 731 648 731 648 777 602 c 1,45,-1
 731 553 l 1,46,47
 693 594 693 594 640.5 616.5 c 128,-1,48
 588 639 588 639 529 639 c 0,49,0
 461 639 461 639 398.5 611 c 128,-1,1
EndSplineSet
EndChar

StartChar: uni20AD
Encoding: 8365 8365 648
Width: 659
Flags: W
LayerCount: 2
Fore
SplineSet
551 330 m 1,0,-1
 263 330 l 1,1,-1
 583 0 l 1,2,-1
 495 0 l 1,3,-1
 180 330 l 1,4,-1
 179 330 l 1,5,-1
 115 0 l 1,6,-1
 46 0 l 1,7,-1
 110 330 l 1,8,-1
 25 330 l 1,9,-1
 33 372 l 1,10,-1
 118 372 l 1,11,-1
 182 700 l 1,12,-1
 251 700 l 1,13,-1
 187 372 l 1,14,-1
 583 700 l 1,15,-1
 669 700 l 1,16,-1
 269 372 l 1,17,-1
 559 372 l 1,18,-1
 551 330 l 1,0,-1
EndSplineSet
EndChar

StartChar: uni20B1
Encoding: 8369 8369 649
Width: 757
Flags: W
LayerCount: 2
Fore
SplineSet
707 500 m 1,0,1
 706 463 706 463 696 426 c 1,2,-1
 776 426 l 1,3,-1
 768 385 l 1,4,-1
 680 385 l 1,5,6
 645 310 645 310 567.5 268 c 128,-1,7
 490 226 490 226 381 226 c 2,8,-1
 192 226 l 1,9,-1
 147 0 l 1,10,-1
 78 0 l 1,11,-1
 155 385 l 1,12,-1
 69 385 l 1,13,-1
 77 426 l 1,14,-1
 163 426 l 1,15,-1
 178 500 l 1,16,-1
 91 500 l 1,17,-1
 99 542 l 1,18,-1
 186 542 l 1,19,-1
 218 700 l 1,20,-1
 476 700 l 2,21,22
 577 700 577 700 636.5 658.5 c 128,-1,23
 696 617 696 617 705 542 c 1,24,-1
 798 542 l 1,25,-1
 790 500 l 1,26,-1
 707 500 l 1,0,1
255 542 m 1,27,-1
 633 542 l 1,28,29
 619 588 619 588 575.5 612 c 128,-1,30
 532 636 532 636 461 636 c 2,31,-1
 274 636 l 1,32,-1
 255 542 l 1,27,-1
639 500 m 1,33,-1
 247 500 l 1,34,-1
 232 426 l 1,35,-1
 628 426 l 1,36,37
 639 461 639 461 639 499 c 2,38,-1
 639 500 l 1,33,-1
523.5 313.5 m 128,-1,40
 579 338 579 338 609 385 c 1,41,-1
 224 385 l 1,42,-1
 205 289 l 1,43,-1
 391 289 l 2,44,39
 468 289 468 289 523.5 313.5 c 128,-1,40
EndSplineSet
EndChar

StartChar: uni20B2
Encoding: 8370 8370 650
Width: 769
Flags: W
LayerCount: 2
Fore
SplineSet
632 342 m 1,0,-1
 694 342 l 1,1,-1
 644 88 l 1,2,3
 522 -3 522 -3 391 -3 c 2,4,-1
 372 -3 l 1,5,-1
 348 -130 l 1,6,-1
 294 -130 l 1,7,-1
 319 4 l 1,8,9
 244 19 244 19 185 64 c 128,-1,10
 126 109 126 109 93.5 175 c 128,-1,11
 61 241 61 241 61 318 c 0,12,13
 61 420 61 420 115 507.5 c 128,-1,14
 169 595 169 595 259 647 c 128,-1,15
 349 699 349 699 454 701 c 1,16,-1
 476 818 l 1,17,-1
 530 818 l 1,18,-1
 508 698 l 1,19,20
 567 691 567 691 618.5 667.5 c 128,-1,21
 670 644 670 644 709 607 c 1,22,-1
 664 558 l 1,23,24
 625 597 625 597 571.5 618 c 128,-1,25
 518 639 518 639 458 639 c 0,26,27
 371 639 371 639 296 596 c 128,-1,28
 221 553 221 553 176 480 c 128,-1,29
 131 407 131 407 131 321 c 0,30,31
 131 248 131 248 166 188.5 c 128,-1,32
 201 129 201 129 262.5 94.5 c 128,-1,33
 324 60 324 60 400 60 c 0,34,35
 499 60 499 60 588 121 c 1,36,-1
 632 342 l 1,0,-1
EndSplineSet
EndChar

StartChar: uni20B5
Encoding: 8373 8373 651
Width: 728
Flags: W
LayerCount: 2
Fore
SplineSet
295.5 596 m 128,-1,1
 221 553 221 553 176 480.5 c 128,-1,2
 131 408 131 408 131 323 c 0,3,4
 131 251 131 251 166 191 c 128,-1,5
 201 131 201 131 261.5 96.5 c 128,-1,6
 322 62 322 62 397 62 c 0,7,8
 455 62 455 62 512.5 84 c 128,-1,9
 570 106 570 106 617 146 c 1,10,-1
 655 101 l 1,11,12
 598 53 598 53 528.5 25 c 128,-1,13
 459 -3 459 -3 389 -3 c 2,14,-1
 372 -3 l 1,15,-1
 348 -130 l 1,16,-1
 294 -130 l 1,17,-1
 319 4 l 1,18,19
 244 19 244 19 185 63.5 c 128,-1,20
 126 108 126 108 93.5 174.5 c 128,-1,21
 61 241 61 241 61 318 c 0,22,23
 61 420 61 420 115 507.5 c 128,-1,24
 169 595 169 595 259.5 647.5 c 128,-1,25
 350 700 350 700 454 701 c 1,26,-1
 476 818 l 1,27,-1
 530 818 l 1,28,-1
 508 698 l 1,29,30
 565 691 565 691 615.5 666 c 128,-1,31
 666 641 666 641 703 602 c 1,32,-1
 658 553 l 1,33,34
 619 594 619 594 566.5 616.5 c 128,-1,35
 514 639 514 639 456 639 c 0,36,0
 370 639 370 639 295.5 596 c 128,-1,1
EndSplineSet
EndChar

StartChar: uni20B9
Encoding: 8377 8377 652
Width: 664
Flags: W
LayerCount: 2
Fore
SplineSet
675 636 m 1,0,-1
 528 636 l 1,1,2
 572 589 572 589 572 512 c 0,3,4
 572 493 572 493 571 484 c 1,5,-1
 646 484 l 1,6,-1
 638 443 l 1,7,-1
 565 443 l 1,8,9
 551 378 551 378 510 329.5 c 128,-1,10
 469 281 469 281 405 255 c 1,11,-1
 553 0 l 1,12,-1
 474 0 l 1,13,-1
 340 235 l 1,14,15
 296 226 296 226 244 226 c 2,16,-1
 40 226 l 1,17,-1
 52 289 l 1,18,-1
 256 289 l 2,19,20
 355 289 355 289 418 329 c 128,-1,21
 481 369 481 369 499 443 c 1,22,-1
 83 443 l 1,23,-1
 90 484 l 1,24,-1
 505 484 l 1,25,-1
 505 499 l 2,26,27
 505 566 505 566 459 601 c 128,-1,28
 413 636 413 636 327 636 c 2,29,-1
 120 636 l 1,30,-1
 132 700 l 1,31,-1
 687 700 l 1,32,-1
 675 636 l 1,0,-1
EndSplineSet
EndChar

StartChar: uni20BA
Encoding: 8378 8378 653
Width: 705
Flags: W
LayerCount: 2
Fore
SplineSet
663 352 m 1,0,1
 630 185 630 185 516.5 92.5 c 128,-1,2
 403 0 403 0 229 0 c 2,3,-1
 89 0 l 1,4,-1
 158 345 l 1,5,-1
 56 318 l 1,6,-1
 65 365 l 1,7,-1
 167 392 l 1,8,-1
 184 476 l 1,9,-1
 83 449 l 1,10,-1
 92 497 l 1,11,-1
 194 524 l 1,12,-1
 229 700 l 1,13,-1
 298 700 l 1,14,-1
 267 543 l 1,15,-1
 596 631 l 1,16,-1
 587 584 l 1,17,-1
 257 496 l 1,18,-1
 240 411 l 1,19,-1
 570 499 l 1,20,-1
 561 452 l 1,21,-1
 231 364 l 1,22,-1
 169 59 l 1,23,-1
 244 59 l 2,24,25
 385 59 385 59 478 136 c 128,-1,26
 571 213 571 213 598 352 c 1,27,-1
 663 352 l 1,0,1
EndSplineSet
EndChar

StartChar: uni20BC
Encoding: 8380 8380 654
Width: 841
Flags: W
LayerCount: 2
Fore
SplineSet
703 545.5 m 128,-1,1
 766 489 766 489 766 391 c 0,2,3
 766 355 766 355 759 320 c 2,4,-1
 695 0 l 1,5,-1
 626 0 l 1,6,-1
 690 320 l 2,7,8
 696 350 696 350 696 376 c 0,9,10
 696 452 696 452 648 496 c 128,-1,11
 600 540 600 540 507 546 c 1,12,-1
 397 0 l 1,13,-1
 343 0 l 1,14,-1
 453 546 l 1,15,16
 344 540 344 540 269 480 c 128,-1,17
 194 420 194 420 175 320 c 2,18,-1
 111 0 l 1,19,-1
 42 0 l 1,20,-1
 106 320 l 2,21,22
 132 450 132 450 228 526.5 c 128,-1,23
 324 603 324 603 466 609 c 1,24,-1
 484 700 l 1,25,-1
 538 700 l 1,26,-1
 520 609 l 1,27,0
 640 602 640 602 703 545.5 c 128,-1,1
EndSplineSet
EndChar

StartChar: uni20BD
Encoding: 8381 8381 655
Width: 664
Flags: W
LayerCount: 2
Fore
SplineSet
159 238 m 1,0,-1
 144 163 l 1,1,-1
 401 163 l 1,2,-1
 393 121 l 1,3,-1
 135 121 l 1,4,-1
 111 0 l 1,5,-1
 42 0 l 1,6,-1
 66 121 l 1,7,-1
 -17 121 l 1,8,-1
 -9 163 l 1,9,-1
 75 163 l 1,10,-1
 182 700 l 1,11,-1
 440 700 l 2,12,13
 551 700 551 700 611 652 c 128,-1,14
 671 604 671 604 671 519 c 0,15,16
 671 433 671 433 632 369.5 c 128,-1,17
 593 306 593 306 520 272 c 128,-1,18
 447 238 447 238 347 238 c 2,19,-1
 159 238 l 1,0,-1
171 301 m 1,20,-1
 356 301 l 2,21,22
 473 301 473 301 538.5 354.5 c 128,-1,23
 604 408 604 408 604 505 c 0,24,25
 604 567 604 567 557.5 601.5 c 128,-1,26
 511 636 511 636 426 636 c 2,27,-1
 239 636 l 1,28,-1
 171 301 l 1,20,-1
EndSplineSet
EndChar

StartChar: uni2113
Encoding: 8467 8467 656
Width: 469
Flags: W
LayerCount: 2
Fore
SplineSet
410 676.5 m 128,-1,1
 436 650 436 650 436 601 c 0,2,3
 436 515 436 515 361 416 c 128,-1,4
 286 317 286 317 157 218 c 1,5,6
 144 161 144 161 144 130 c 0,7,8
 144 91 144 91 161 71.5 c 128,-1,9
 178 52 178 52 216 52 c 0,10,11
 258 52 258 52 296.5 75.5 c 128,-1,12
 335 99 335 99 377 144 c 1,13,-1
 402 114 l 1,14,15
 308 -2 308 -2 199 -2 c 0,16,17
 142 -2 142 -2 116.5 29 c 128,-1,18
 91 60 91 60 91 119 c 0,19,20
 91 143 91 143 96 180 c 1,21,-1
 35 137 l 1,22,-1
 22 173 l 1,23,-1
 107 233 l 1,24,-1
 176 526 l 2,25,26
 199 613 199 613 243.5 658 c 128,-1,27
 288 703 288 703 343 703 c 0,28,0
 384 703 384 703 410 676.5 c 128,-1,1
277 626 m 128,-1,30
 248 594 248 594 231 529 c 2,31,-1
 171 281 l 1,32,33
 273 360 273 360 332 446 c 128,-1,34
 391 532 391 532 391 598 c 0,35,36
 391 628 391 628 376.5 643 c 128,-1,37
 362 658 362 658 339 658 c 0,38,29
 306 658 306 658 277 626 c 128,-1,30
EndSplineSet
EndChar

StartChar: uni2116
Encoding: 8470 8470 657
Width: 1285
Flags: W
LayerCount: 2
Fore
SplineSet
1182 669 m 128,-1,1
 1223 631 1223 631 1223 569 c 0,2,3
 1223 519 1223 519 1199.5 479.5 c 128,-1,4
 1176 440 1176 440 1135.5 418 c 128,-1,5
 1095 396 1095 396 1045 396 c 0,6,7
 978 396 978 396 937 434 c 128,-1,8
 896 472 896 472 896 534 c 0,9,10
 896 584 896 584 919 623.5 c 128,-1,11
 942 663 942 663 982.5 685 c 128,-1,12
 1023 707 1023 707 1074 707 c 0,13,0
 1141 707 1141 707 1182 669 c 128,-1,1
659 107 m 1,14,-1
 779 700 l 1,15,-1
 847 700 l 1,16,-1
 707 0 l 1,17,-1
 634 0 l 1,18,-1
 320 592 l 1,19,-1
 201 0 l 1,20,-1
 132 0 l 1,21,-1
 272 700 l 1,22,-1
 345 700 l 1,23,-1
 659 107 l 1,14,-1
1143.5 637.5 m 128,-1,25
 1116 665 1116 665 1071 665 c 0,26,27
 1017 665 1017 665 982 629 c 128,-1,28
 947 593 947 593 947 537 c 0,29,30
 947 492 947 492 975 464.5 c 128,-1,31
 1003 437 1003 437 1048 437 c 0,32,33
 1102 437 1102 437 1136.5 473 c 128,-1,34
 1171 509 1171 509 1171 566 c 0,35,24
 1171 610 1171 610 1143.5 637.5 c 128,-1,25
898 255 m 1,36,-1
 907 305 l 1,37,-1
 1143 305 l 1,38,-1
 1134 255 l 1,39,-1
 898 255 l 1,36,-1
EndSplineSet
EndChar

StartChar: trademark
Encoding: 8482 8482 658
Width: 897
Flags: W
LayerCount: 2
Fore
SplineSet
419 700 m 1,0,-1
 410 653 l 1,1,-1
 278 653 l 1,2,-1
 192 280 l 1,3,-1
 140 280 l 1,4,-1
 225 653 l 1,5,-1
 94 653 l 1,6,-1
 103 700 l 1,7,-1
 419 700 l 1,0,-1
916 700 m 1,8,-1
 821 280 l 1,9,-1
 773 280 l 1,10,-1
 853 629 l 1,11,-1
 634 324 l 1,12,-1
 601 324 l 1,13,-1
 523 629 l 1,14,-1
 442 280 l 1,15,-1
 393 280 l 1,16,-1
 488 700 l 1,17,-1
 552 700 l 1,18,-1
 632 395 l 1,19,-1
 850 700 l 1,20,-1
 916 700 l 1,8,-1
EndSplineSet
EndChar

StartChar: estimated
Encoding: 8494 8494 660
Width: 816
Flags: W
LayerCount: 2
Fore
SplineSet
209 308 m 2,1,-1
 209 144 l 2,2,3
 209 135 209 135 217 125 c 0,4,5
 256 83 256 83 309.5 59.5 c 128,-1,6
 363 36 363 36 423 36 c 0,7,8
 486 36 486 36 542.5 62.5 c 128,-1,9
 599 89 599 89 638 135 c 1,10,-1
 687 135 l 1,11,12
 641 81 641 81 571 49.5 c 128,-1,13
 501 18 501 18 422 18 c 0,14,15
 331 18 331 18 254 58.5 c 128,-1,16
 177 99 177 99 132 168 c 128,-1,17
 87 237 87 237 87 319 c 256,18,19
 87 401 87 401 132 470.5 c 128,-1,20
 177 540 177 540 254 580.5 c 128,-1,21
 331 621 331 621 422 621 c 256,22,23
 513 621 513 621 590 580.5 c 128,-1,24
 667 540 667 540 712 470.5 c 128,-1,25
 757 401 757 401 757 319 c 2,26,-1
 757 312 l 1,27,-1
 214 312 l 2,28,0
 209 312 209 312 209 308 c 2,1,-1
626 518 m 0,30,31
 586 558 586 558 533.5 580.5 c 128,-1,32
 481 603 481 603 423 603 c 0,33,34
 364 603 364 603 311 579.5 c 128,-1,35
 258 556 258 556 218 515 c 0,36,37
 209 506 209 506 209 495 c 2,38,-1
 209 333 l 2,39,40
 209 328 209 328 214 328 c 2,41,-1
 630 328 l 2,42,43
 635 328 635 328 635 333 c 2,44,-1
 635 498 l 2,45,29
 635 509 635 509 626 518 c 0,30,31
EndSplineSet
EndChar

StartChar: arrowleft
Encoding: 8592 8592 667
Width: 600
Flags: W
LayerCount: 2
Fore
SplineSet
524 299 m 1,0,-1
 514 247 l 1,1,-1
 197 247 l 1,2,-1
 275 81 l 1,3,-1
 210 81 l 1,4,-1
 115 272 l 1,5,-1
 285 466 l 1,6,-1
 350 466 l 1,7,-1
 208 299 l 1,8,-1
 524 299 l 1,0,-1
EndSplineSet
EndChar

StartChar: arrowup
Encoding: 8593 8593 668
Width: 600
Flags: W
LayerCount: 2
Fore
SplineSet
508 346 m 1,0,-1
 496 282 l 1,1,-1
 354 390 l 1,2,-1
 292 74 l 1,3,-1
 235 74 l 1,4,-1
 298 391 l 1,5,-1
 113 282 l 1,6,-1
 125 346 l 1,7,-1
 341 479 l 1,8,-1
 508 346 l 1,0,-1
EndSplineSet
EndChar

StartChar: arrowright
Encoding: 8594 8594 669
Width: 600
Flags: W
LayerCount: 2
Fore
SplineSet
399 465 m 1,0,-1
 494 274 l 1,1,-1
 324 80 l 1,2,-1
 259 80 l 1,3,-1
 401 247 l 1,4,-1
 85 247 l 1,5,-1
 95 299 l 1,6,-1
 412 299 l 1,7,-1
 334 465 l 1,8,-1
 399 465 l 1,0,-1
EndSplineSet
EndChar

StartChar: arrowdown
Encoding: 8595 8595 670
Width: 600
Flags: W
LayerCount: 2
Fore
SplineSet
306 155 m 1,0,-1
 491 264 l 1,1,-1
 479 200 l 1,2,-1
 263 67 l 1,3,-1
 96 200 l 1,4,-1
 108 264 l 1,5,-1
 250 156 l 1,6,-1
 312 472 l 1,7,-1
 369 472 l 1,8,-1
 306 155 l 1,0,-1
EndSplineSet
EndChar

StartChar: arrowboth
Encoding: 8596 8596 671
Width: 660
Flags: W
LayerCount: 2
Fore
SplineSet
516 466 m 1,0,-1
 610 272 l 1,1,-1
 441 81 l 1,2,-1
 376 81 l 1,3,-1
 519 247 l 1,4,-1
 132 247 l 1,5,-1
 210 81 l 1,6,-1
 145 81 l 1,7,-1
 50 272 l 1,8,-1
 220 466 l 1,9,-1
 285 466 l 1,10,-1
 143 299 l 1,11,-1
 528 299 l 1,12,-1
 451 466 l 1,13,-1
 516 466 l 1,0,-1
EndSplineSet
EndChar

StartChar: arrowupdn
Encoding: 8597 8597 672
Width: 657
Flags: W
LayerCount: 2
Fore
SplineSet
537 435 m 1,0,-1
 395 543 l 1,1,-1
 319 155 l 1,2,-1
 503 264 l 1,3,-1
 491 200 l 1,4,-1
 275 67 l 1,5,-1
 108 200 l 1,6,-1
 120 264 l 1,7,-1
 262 156 l 1,8,-1
 338 544 l 1,9,-1
 154 435 l 1,10,-1
 166 500 l 1,11,-1
 382 633 l 1,12,-1
 549 500 l 1,13,-1
 537 435 l 1,0,-1
EndSplineSet
EndChar

StartChar: uni2196
Encoding: 8598 8598 673
Width: 612
Flags: W
LayerCount: 2
Fore
SplineSet
486 422 m 1,0,-1
 287 381 l 1,1,-1
 467 159 l 1,2,-1
 420 118 l 1,3,-1
 239 342 l 1,4,-1
 163 149 l 1,5,-1
 127 195 l 1,6,-1
 212 424 l 1,7,-1
 451 467 l 1,8,-1
 486 422 l 1,0,-1
EndSplineSet
EndChar

StartChar: uni2197
Encoding: 8599 8599 674
Width: 609
Flags: W
LayerCount: 2
Fore
SplineSet
276 461 m 1,0,-1
 497 420 l 1,1,-1
 495 189 l 1,2,-1
 442 143 l 1,3,-1
 439 335 l 1,4,-1
 172 112 l 1,5,-1
 140 153 l 1,6,-1
 408 376 l 1,7,-1
 224 415 l 1,8,-1
 276 461 l 1,0,-1
EndSplineSet
EndChar

StartChar: uni2198
Encoding: 8600 8600 675
Width: 612
Flags: W
LayerCount: 2
Fore
SplineSet
463 415 m 1,0,-1
 499 369 l 1,1,-1
 414 140 l 1,2,-1
 175 97 l 1,3,-1
 140 142 l 1,4,-1
 339 183 l 1,5,-1
 159 405 l 1,6,-1
 206 446 l 1,7,-1
 388 222 l 1,8,-1
 463 415 l 1,0,-1
EndSplineSet
EndChar

StartChar: uni2199
Encoding: 8601 8601 676
Width: 609
Flags: W
LayerCount: 2
Fore
SplineSet
483 411 m 1,0,-1
 215 188 l 1,1,-1
 399 149 l 1,2,-1
 347 103 l 1,3,-1
 127 144 l 1,4,-1
 129 375 l 1,5,-1
 182 421 l 1,6,-1
 184 229 l 1,7,-1
 452 452 l 1,8,-1
 483 411 l 1,0,-1
EndSplineSet
EndChar

StartChar: partialdiff
Encoding: 8706 8706 677
Width: 610
Flags: W
LayerCount: 2
Fore
SplineSet
105.5 50.5 m 128,-1,1
 49 104 49 104 49 196 c 0,2,3
 49 270 49 270 79.5 326.5 c 128,-1,4
 110 383 110 383 166 414 c 128,-1,5
 222 445 222 445 295 445 c 0,6,7
 377 445 377 445 429 404 c 128,-1,8
 481 363 481 363 491 290 c 1,9,10
 503 350 503 350 503 408 c 0,11,12
 503 521 503 521 454 582 c 128,-1,13
 405 643 405 643 313 643 c 0,14,15
 271 643 271 643 226 629 c 128,-1,16
 181 615 181 615 142 590 c 1,17,-1
 119 643 l 1,18,19
 168 671 168 671 222 686.5 c 128,-1,20
 276 702 276 702 323 702 c 0,21,22
 399 702 399 702 454.5 665 c 128,-1,23
 510 628 510 628 540 558.5 c 128,-1,24
 570 489 570 489 570 395 c 0,25,26
 570 274 570 274 532 184 c 128,-1,27
 494 94 494 94 424 45.5 c 128,-1,28
 354 -3 354 -3 260 -3 c 0,29,0
 162 -3 162 -3 105.5 50.5 c 128,-1,1
371 82.5 m 128,-1,31
 416 107 416 107 442 148.5 c 128,-1,32
 468 190 468 190 468 240 c 0,33,34
 468 306 468 306 421 347.5 c 128,-1,35
 374 389 374 389 300 389 c 0,36,37
 216 389 216 389 165.5 339 c 128,-1,38
 115 289 115 289 115 206 c 0,39,40
 115 138 115 138 157 98 c 128,-1,41
 199 58 199 58 272 58 c 0,42,30
 326 58 326 58 371 82.5 c 128,-1,31
EndSplineSet
EndChar

StartChar: emptyset
Encoding: 8709 8709 678
Width: 530
Flags: W
LayerCount: 2
Fore
SplineSet
455 447 m 1,0,1
 483 403 483 403 483 350 c 0,2,3
 483 291 483 291 450.5 237.5 c 128,-1,4
 418 184 418 184 364.5 152 c 128,-1,5
 311 120 311 120 252 120 c 0,6,7
 214 120 214 120 181.5 133.5 c 128,-1,8
 149 147 149 147 125 172 c 1,9,-1
 39 101 l 1,10,-1
 17 129 l 1,11,-1
 103 200 l 1,12,13
 76 243 76 243 76 296 c 0,14,15
 76 355 76 355 108 408 c 128,-1,16
 140 461 140 461 193.5 492.5 c 128,-1,17
 247 524 247 524 306 524 c 0,18,19
 344 524 344 524 377 510.5 c 128,-1,20
 410 497 410 497 435 472 c 1,21,-1
 518 540 l 1,22,-1
 537 515 l 1,23,-1
 455 447 l 1,0,1
144 233 m 1,25,-1
 393 437 l 1,26,27
 355 473 355 473 298 473 c 0,28,29
 253 473 253 473 213 449 c 128,-1,30
 173 425 173 425 149 386 c 128,-1,31
 125 347 125 347 125 304 c 0,32,24
 125 266 125 266 144 233 c 1,25,-1
414 413 m 1,34,-1
 166 207 l 1,35,36
 204 171 204 171 260 171 c 0,37,38
 306 171 306 171 346 195 c 128,-1,39
 386 219 386 219 410 258.5 c 128,-1,40
 434 298 434 298 434 342 c 0,41,33
 434 381 434 381 414 413 c 1,34,-1
EndSplineSet
EndChar

StartChar: uni2206
Encoding: 8710 8710 679
Width: 681
Flags: W
LayerCount: 2
Fore
SplineSet
447 700 m 1,0,-1
 631 47 l 1,1,-1
 623 0 l 1,2,-1
 -46 0 l 1,3,-1
 -38 47 l 1,4,-1
 376 700 l 1,5,-1
 447 700 l 1,0,-1
398 628 m 1,6,-1
 42 59 l 1,7,-1
 554 59 l 1,8,-1
 398 628 l 1,6,-1
EndSplineSet
EndChar

StartChar: product
Encoding: 8719 8719 680
Width: 758
Flags: W
LayerCount: 2
Fore
SplineSet
744 742 m 1,0,-1
 556 -194 l 1,1,-1
 488 -194 l 1,2,-1
 665 684 l 1,3,-1
 263 684 l 1,4,-1
 87 -194 l 1,5,-1
 19 -194 l 1,6,-1
 207 742 l 1,7,-1
 744 742 l 1,0,-1
EndSplineSet
EndChar

StartChar: summation
Encoding: 8721 8721 681
Width: 609
Flags: W
LayerCount: 2
Fore
SplineSet
693 743 m 1,0,-1
 681 680 l 1,1,-1
 206 680 l 1,2,-1
 443 310 l 1,3,-1
 53 -75 l 1,4,-1
 539 -75 l 1,5,-1
 527 -138 l 1,6,-1
 -43 -138 l 1,7,-1
 -33 -81 l 1,8,-1
 366 310 l 1,9,-1
 128 685 l 1,10,-1
 139 743 l 1,11,-1
 693 743 l 1,0,-1
EndSplineSet
EndChar

StartChar: minus
Encoding: 8722 8722 682
Width: 490
Flags: W
LayerCount: 2
Fore
SplineSet
469 347 m 1,0,-1
 459 297 l 1,1,-1
 45 297 l 1,2,-1
 55 347 l 1,3,-1
 469 347 l 1,0,-1
EndSplineSet
EndChar

StartChar: uni2219
Encoding: 8729 8729 684
Width: 239
Flags: W
LayerCount: 2
Fore
SplineSet
174 321.5 m 128,-1,1
 189 306 189 306 189 282 c 0,2,3
 189 250 189 250 164.5 224.5 c 128,-1,4
 140 199 140 199 108 199 c 0,5,6
 84 199 84 199 68.5 214.5 c 128,-1,7
 53 230 53 230 53 254 c 0,8,9
 53 287 53 287 77.5 312 c 128,-1,10
 102 337 102 337 134 337 c 0,11,0
 159 337 159 337 174 321.5 c 128,-1,1
EndSplineSet
EndChar

StartChar: radical
Encoding: 8730 8730 685
Width: 674
Flags: W
LayerCount: 2
Fore
SplineSet
43 390 m 1,0,-1
 210 390 l 1,1,-1
 269 -75 l 1,2,-1
 691 753 l 1,3,-1
 758 753 l 1,4,-1
 292 -150 l 1,5,-1
 220 -150 l 1,6,-1
 154 332 l 1,7,-1
 32 332 l 1,8,-1
 43 390 l 1,0,-1
EndSplineSet
EndChar

StartChar: infinity
Encoding: 8734 8734 686
Width: 895
Flags: W
LayerCount: 2
Fore
SplineSet
813 446 m 128,-1,1
 860 399 860 399 860 325 c 0,2,3
 860 267 860 267 833 219.5 c 128,-1,4
 806 172 806 172 760 144 c 128,-1,5
 714 116 714 116 658 116 c 256,6,7
 602 116 602 116 563.5 135.5 c 128,-1,8
 525 155 525 155 501 185 c 128,-1,9
 477 215 477 215 454 260 c 1,10,11
 421 214 421 214 391 184 c 128,-1,12
 361 154 361 154 319 134.5 c 128,-1,13
 277 115 277 115 221 115 c 0,14,15
 147 115 147 115 100 162.5 c 128,-1,16
 53 210 53 210 53 285 c 0,17,18
 53 341 53 341 80.5 389 c 128,-1,19
 108 437 108 437 155 464.5 c 128,-1,20
 202 492 202 492 257 492 c 0,21,22
 313 492 313 492 350.5 473 c 128,-1,23
 388 454 388 454 412 423.5 c 128,-1,24
 436 393 436 393 459 348 c 1,25,26
 492 394 492 394 522 424 c 128,-1,27
 552 454 552 454 594 473.5 c 128,-1,28
 636 493 636 493 692 493 c 0,29,0
 766 493 766 493 813 446 c 128,-1,1
735 189 m 128,-1,31
 770 210 770 210 790 245.5 c 128,-1,32
 810 281 810 281 810 324 c 0,33,34
 810 376 810 376 777 408.5 c 128,-1,35
 744 441 744 441 692 441 c 0,36,37
 643 441 643 441 606 422.5 c 128,-1,38
 569 404 569 404 541.5 375 c 128,-1,39
 514 346 514 346 482 301 c 1,40,41
 504 259 504 259 525 231 c 128,-1,42
 546 203 546 203 578.5 185.5 c 128,-1,43
 611 168 611 168 658 168 c 0,44,30
 700 168 700 168 735 189 c 128,-1,31
307 185.5 m 128,-1,46
 344 204 344 204 371.5 233 c 128,-1,47
 399 262 399 262 430 307 c 1,48,49
 408 349 408 349 387 377 c 128,-1,50
 366 405 366 405 333.5 422.5 c 128,-1,51
 301 440 301 440 254 440 c 0,52,53
 213 440 213 440 178 419 c 128,-1,54
 143 398 143 398 122.5 362 c 128,-1,55
 102 326 102 326 102 284 c 0,56,57
 102 233 102 233 135.5 200 c 128,-1,58
 169 167 169 167 221 167 c 0,59,45
 270 167 270 167 307 185.5 c 128,-1,46
EndSplineSet
EndChar

StartChar: integral
Encoding: 8747 8747 687
Width: 216
Flags: W
LayerCount: 2
Fore
SplineSet
266 779 m 0,1,2
 225 779 225 779 204 748 c 128,-1,3
 183 717 183 717 176 644 c 0,4,5
 167 549 167 549 156 365 c 0,6,7
 145 168 145 168 135 70 c 0,8,9
 124 -33 124 -33 92.5 -76 c 128,-1,10
 61 -119 61 -119 -3 -119 c 0,11,12
 -23 -119 -23 -119 -39 -114.5 c 128,-1,13
 -55 -110 -55 -110 -72 -101 c 1,14,-1
 -56 -53 l 1,15,16
 -35 -66 -35 -66 -9 -66 c 0,17,18
 32 -66 32 -66 53 -34.5 c 128,-1,19
 74 -3 74 -3 82 72 c 0,20,21
 92 170 92 170 103 369 c 0,22,23
 115 573 115 573 122 645 c 0,24,25
 133 747 133 747 164.5 790 c 128,-1,26
 196 833 196 833 259 833 c 0,27,28
 287 833 287 833 323 816 c 1,29,-1
 309 769 l 1,30,0
 290 779 290 779 266 779 c 0,1,2
EndSplineSet
EndChar

StartChar: approxequal
Encoding: 8776 8776 688
Width: 490
Flags: W
LayerCount: 2
Fore
SplineSet
241.5 485 m 128,-1,1
 261 476 261 476 286 459 c 0,2,3
 307 444 307 444 321.5 437 c 128,-1,4
 336 430 336 430 351 430 c 0,5,6
 373 430 373 430 389.5 445 c 128,-1,7
 406 460 406 460 411 486 c 1,8,-1
 460 486 l 1,9,10
 450 432 450 432 423.5 404 c 128,-1,11
 397 376 397 376 356 376 c 0,12,13
 332 376 332 376 312.5 385 c 128,-1,14
 293 394 293 394 267 412 c 0,15,16
 246 426 246 426 233 432.5 c 128,-1,17
 220 439 220 439 205 439 c 0,18,19
 161 439 161 439 150 384 c 1,20,-1
 100 384 l 1,21,22
 121 494 121 494 201 494 c 0,23,0
 222 494 222 494 241.5 485 c 128,-1,1
199.5 274 m 128,-1,25
 218 265 218 265 245 248 c 0,26,27
 268 233 268 233 281.5 226.5 c 128,-1,28
 295 220 295 220 309 220 c 0,29,30
 331 220 331 220 347.5 234.5 c 128,-1,31
 364 249 364 249 369 275 c 1,32,-1
 418 275 l 1,33,34
 407 222 407 222 380.5 193.5 c 128,-1,35
 354 165 354 165 314 165 c 0,36,37
 290 165 290 165 270.5 174 c 128,-1,38
 251 183 251 183 225 201 c 0,39,40
 205 215 205 215 191.5 222 c 128,-1,41
 178 229 178 229 163 229 c 0,42,43
 142 229 142 229 127.5 214.5 c 128,-1,44
 113 200 113 200 108 174 c 1,45,-1
 58 174 l 1,46,47
 79 283 79 283 159 283 c 0,48,24
 181 283 181 283 199.5 274 c 128,-1,25
EndSplineSet
EndChar

StartChar: notequal
Encoding: 8800 8800 689
Width: 490
Flags: W
LayerCount: 2
Fore
SplineSet
480 400 m 1,0,-1
 311 400 l 1,1,-1
 245 244 l 1,2,-1
 448 244 l 1,3,-1
 439 195 l 1,4,-1
 225 195 l 1,5,-1
 160 40 l 1,6,-1
 107 40 l 1,7,-1
 172 195 l 1,8,-1
 25 195 l 1,9,-1
 34 244 l 1,10,-1
 192 244 l 1,11,-1
 257 400 l 1,12,-1
 66 400 l 1,13,-1
 75 449 l 1,14,-1
 277 449 l 1,15,-1
 340 599 l 1,16,-1
 394 599 l 1,17,-1
 331 449 l 1,18,-1
 489 449 l 1,19,-1
 480 400 l 1,0,-1
EndSplineSet
EndChar

StartChar: lessequal
Encoding: 8804 8804 690
Width: 493
Flags: W
LayerCount: 2
Fore
SplineSet
521 599 m 1,0,-1
 511 541 l 1,1,-1
 112 381 l 1,2,-1
 445 221 l 1,3,-1
 435 169 l 1,4,-1
 59 353 l 1,5,-1
 70 416 l 1,6,-1
 521 599 l 1,0,-1
418 87 m 1,7,-1
 408 37 l 1,8,-1
 -6 37 l 1,9,-1
 4 87 l 1,10,-1
 418 87 l 1,7,-1
EndSplineSet
EndChar

StartChar: greaterequal
Encoding: 8805 8805 691
Width: 527
Flags: W
LayerCount: 2
Fore
SplineSet
23 172 m 1,0,-1
 33 229 l 1,1,-1
 432 389 l 1,2,-1
 99 549 l 1,3,-1
 109 602 l 1,4,-1
 485 418 l 1,5,-1
 474 355 l 1,6,-1
 23 172 l 1,0,-1
452 87 m 1,7,-1
 442 37 l 1,8,-1
 28 37 l 1,9,-1
 38 87 l 1,10,-1
 452 87 l 1,7,-1
EndSplineSet
EndChar

StartChar: filledbox
Encoding: 9632 9632 692
Width: 600
Flags: W
LayerCount: 2
Fore
SplineSet
125 459 m 1,0,-1
 513 459 l 1,1,-1
 475 71 l 1,2,-1
 87 71 l 1,3,-1
 125 459 l 1,0,-1
EndSplineSet
EndChar

StartChar: uni25A1
Encoding: 9633 9633 693
Width: 600
Flags: W
LayerCount: 2
Fore
SplineSet
144 459 m 1,0,-1
 532 459 l 1,1,-1
 456 71 l 1,2,-1
 68 71 l 1,3,-1
 144 459 l 1,0,-1
182 410 m 1,4,-1
 125 120 l 1,5,-1
 419 120 l 1,6,-1
 476 410 l 1,7,-1
 182 410 l 1,4,-1
EndSplineSet
EndChar

StartChar: triagup
Encoding: 9650 9650 694
Width: 600
Flags: W
LayerCount: 2
Fore
SplineSet
341 478 m 1,0,-1
 472 52 l 1,1,-1
 46 52 l 1,2,-1
 341 478 l 1,0,-1
EndSplineSet
EndChar

StartChar: uni25B3
Encoding: 9651 9651 695
Width: 600
Flags: W
LayerCount: 2
Fore
SplineSet
341 478 m 1,0,-1
 472 52 l 1,1,-1
 46 52 l 1,2,-1
 341 478 l 1,0,-1
322 373 m 1,3,-1
 127 99 l 1,4,-1
 407 99 l 1,5,-1
 322 373 l 1,3,-1
EndSplineSet
EndChar

StartChar: uni25B6
Encoding: 9654 9654 696
Width: 600
Flags: W
LayerCount: 2
Fore
SplineSet
541 266 m 1,0,-1
 74 53 l 1,1,-1
 156 479 l 1,2,-1
 541 266 l 1,0,-1
EndSplineSet
EndChar

StartChar: uni25B7
Encoding: 9655 9655 697
Width: 600
Flags: W
LayerCount: 2
Fore
SplineSet
541 266 m 1,0,-1
 74 53 l 1,1,-1
 156 479 l 1,2,-1
 541 266 l 1,0,-1
440 266 m 1,3,-1
 187 403 l 1,4,-1
 133 129 l 1,5,-1
 440 266 l 1,3,-1
EndSplineSet
EndChar

StartChar: triagdn
Encoding: 9660 9660 698
Width: 600
Flags: W
LayerCount: 2
Fore
SplineSet
259 52 m 1,0,-1
 128 478 l 1,1,-1
 554 478 l 1,2,-1
 259 52 l 1,0,-1
EndSplineSet
EndChar

StartChar: uni25BD
Encoding: 9661 9661 699
Width: 600
Flags: W
LayerCount: 2
Fore
SplineSet
259 52 m 1,0,-1
 128 478 l 1,1,-1
 554 478 l 1,2,-1
 259 52 l 1,0,-1
278 157 m 1,3,-1
 473 431 l 1,4,-1
 193 431 l 1,5,-1
 278 157 l 1,3,-1
EndSplineSet
EndChar

StartChar: uni25C0
Encoding: 9664 9664 700
Width: 601
Flags: W
LayerCount: 2
Fore
SplineSet
58 265 m 1,0,-1
 525 478 l 1,1,-1
 443 52 l 1,2,-1
 58 265 l 1,0,-1
EndSplineSet
EndChar

StartChar: uni25C1
Encoding: 9665 9665 701
Width: 600
Flags: W
LayerCount: 2
Fore
SplineSet
58 265 m 1,0,-1
 525 478 l 1,1,-1
 443 52 l 1,2,-1
 58 265 l 1,0,-1
159 265 m 1,3,-1
 412 128 l 1,4,-1
 466 402 l 1,5,-1
 159 265 l 1,3,-1
EndSplineSet
EndChar

StartChar: uni25C6
Encoding: 9670 9670 702
Width: 600
Flags: W
LayerCount: 2
Fore
SplineSet
353 540 m 1,0,-1
 574 265 l 1,1,-1
 246 -9 l 1,2,-1
 25 265 l 1,3,-1
 353 540 l 1,0,-1
EndSplineSet
EndChar

StartChar: uni25C7
Encoding: 9671 9671 703
Width: 600
Flags: W
LayerCount: 2
Fore
SplineSet
353 540 m 1,0,-1
 574 265 l 1,1,-1
 246 -9 l 1,2,-1
 25 265 l 1,3,-1
 353 540 l 1,0,-1
340 470 m 1,4,-1
 92 265 l 1,5,-1
 259 60 l 1,6,-1
 508 265 l 1,7,-1
 340 470 l 1,4,-1
EndSplineSet
EndChar

StartChar: lozenge
Encoding: 9674 9674 704
Width: 518
Flags: W
LayerCount: 2
Fore
SplineSet
334 652 m 1,0,-1
 488 330 l 1,1,-1
 209 6 l 1,2,-1
 57 330 l 1,3,-1
 334 652 l 1,0,-1
320 552 m 1,4,-1
 122 330 l 1,5,-1
 225 108 l 1,6,-1
 423 330 l 1,7,-1
 320 552 l 1,4,-1
EndSplineSet
EndChar

StartChar: uniA78B
Encoding: 42891 42891 705
Width: 238
Flags: W
LayerCount: 2
Fore
SplineSet
161 700 m 1,0,-1
 230 700 l 1,1,-1
 145 300 l 1,2,-1
 82 300 l 1,3,-1
 161 700 l 1,0,-1
EndSplineSet
EndChar

StartChar: uniA78C
Encoding: 42892 42892 706
Width: 236
Flags: W
LayerCount: 2
Fore
SplineSet
151 650 m 1,0,-1
 218 650 l 1,1,-1
 143 300 l 1,2,-1
 83 300 l 1,3,-1
 151 650 l 1,0,-1
EndSplineSet
Substitution2: "<3,3> Small Caps in Latin lookup 11 subtable" uniA78C.sc
EndChar

StartChar: fl
Encoding: 64258 64258 708
Width: 590
Flags: W
LayerCount: 2
Fore
SplineSet
218 457 m 1,0,-1
 127 0 l 1,1,-1
 60 0 l 1,2,-1
 151 457 l 1,3,-1
 84 457 l 1,4,-1
 94 510 l 1,5,-1
 162 510 l 1,6,-1
 175 575 l 2,7,8
 190 650 190 650 244.5 697.5 c 128,-1,9
 299 745 299 745 369 745 c 0,10,11
 393 744 393 744 415.5 737.5 c 128,-1,12
 438 731 438 731 452 722 c 1,13,-1
 438 661 l 1,14,15
 403 684 403 684 368 685 c 0,16,17
 323 685 323 685 287.5 654.5 c 128,-1,18
 252 624 252 624 242 576 c 2,19,-1
 229 510 l 1,20,-1
 382 510 l 1,21,-1
 372 457 l 1,22,-1
 218 457 l 1,0,-1
516 742 m 1,23,-1
 583 742 l 1,24,-1
 435 0 l 1,25,-1
 368 0 l 1,26,-1
 516 742 l 1,23,-1
EndSplineSet
Ligature2: "<1,2> Common Ligatures in Latin lookup 13 subtable" f l
EndChar

StartChar: Adieresis.alt
Encoding: 65540 -1 711
Width: 712
Flags: W
LayerCount: 2
Fore
SplineSet
213 625 m 128,-1,1
 203 636 203 636 203 652 c 0,2,3
 203 673 203 673 219 688 c 128,-1,4
 235 703 235 703 256 703 c 0,5,6
 272 703 272 703 281.5 692.5 c 128,-1,7
 291 682 291 682 291 666 c 0,8,9
 291 645 291 645 275 629.5 c 128,-1,10
 259 614 259 614 239 614 c 0,11,0
 223 614 223 614 213 625 c 128,-1,1
541 625 m 128,-1,13
 531 636 531 636 531 652 c 0,14,15
 531 673 531 673 547 688 c 128,-1,16
 563 703 563 703 584 703 c 0,17,18
 600 703 600 703 609.5 692.5 c 128,-1,19
 619 682 619 682 619 666 c 0,20,21
 619 645 619 645 603 629.5 c 128,-1,22
 587 614 587 614 567 614 c 0,23,12
 551 614 551 614 541 625 c 128,-1,13
580 0 m 1,24,-1
 528 186 l 1,25,-1
 139 186 l 1,26,-1
 26 0 l 1,27,-1
 -47 0 l 1,28,-1
 383 700 l 1,29,-1
 455 700 l 1,30,-1
 654 0 l 1,31,-1
 580 0 l 1,24,-1
176 248 m 1,32,-1
 511 248 l 1,33,-1
 405 627 l 1,34,-1
 176 248 l 1,32,-1
EndSplineSet
EndChar

StartChar: Udieresis.alt
Encoding: 65541 -1 712
Width: 769
Flags: W
LayerCount: 2
Fore
SplineSet
411.5 692.5 m 128,-1,1
 421 682 421 682 421 666 c 0,2,3
 421 645 421 645 405 629.5 c 128,-1,4
 389 614 389 614 369 614 c 0,5,6
 353 614 353 614 343 625 c 128,-1,7
 333 636 333 636 333 652 c 0,8,9
 333 673 333 673 349 688 c 128,-1,10
 365 703 365 703 386 703 c 0,11,0
 402 703 402 703 411.5 692.5 c 128,-1,1
585.5 692.5 m 128,-1,13
 595 682 595 682 595 666 c 0,14,15
 595 645 595 645 579 629.5 c 128,-1,16
 563 614 563 614 543 614 c 0,17,18
 527 614 527 614 517 625 c 128,-1,19
 507 636 507 636 507 652 c 0,20,21
 507 673 507 673 523 688 c 128,-1,22
 539 703 539 703 560 703 c 0,23,12
 576 703 576 703 585.5 692.5 c 128,-1,13
681 287 m 2,24,25
 653 149 653 149 565.5 73 c 128,-1,26
 478 -3 478 -3 342 -3 c 0,27,28
 224 -3 224 -3 158 54.5 c 128,-1,29
 92 112 92 112 92 216 c 0,30,31
 92 252 92 252 99 287 c 2,32,-1
 182 700 l 1,33,-1
 250 700 l 1,34,-1
 168 287 l 2,35,36
 162 256 162 256 162 228 c 0,37,38
 162 148 162 148 211.5 104 c 128,-1,39
 261 60 261 60 350 60 c 0,40,41
 453 60 453 60 521 119.5 c 128,-1,42
 589 179 589 179 612 287 c 2,43,-1
 694 700 l 1,44,-1
 763 700 l 1,45,-1
 681 287 l 2,24,25
EndSplineSet
EndChar

StartChar: Udieresis.ss01.alt
Encoding: 65542 -1 713
Width: 781
Flags: W
LayerCount: 2
Fore
SplineSet
411.5 692.5 m 128,-1,1
 421 682 421 682 421 666 c 0,2,3
 421 645 421 645 405 629.5 c 128,-1,4
 389 614 389 614 369 614 c 0,5,6
 353 614 353 614 343 625 c 128,-1,7
 333 636 333 636 333 652 c 0,8,9
 333 673 333 673 349 688 c 128,-1,10
 365 703 365 703 386 703 c 0,11,0
 402 703 402 703 411.5 692.5 c 128,-1,1
585.5 692.5 m 128,-1,13
 595 682 595 682 595 666 c 0,14,15
 595 645 595 645 579 629.5 c 128,-1,16
 563 614 563 614 543 614 c 0,17,18
 527 614 527 614 517 625 c 128,-1,19
 507 636 507 636 507 652 c 0,20,21
 507 673 507 673 523 688 c 128,-1,22
 539 703 539 703 560 703 c 0,23,12
 576 703 576 703 585.5 692.5 c 128,-1,13
141 54 m 128,-1,25
 86 108 86 108 86 197 c 0,26,27
 86 225 86 225 92 255 c 2,28,-1
 181 700 l 1,29,-1
 251 700 l 1,30,-1
 164 269 l 2,31,32
 159 242 159 242 159 222 c 0,33,34
 159 152 159 152 203.5 109 c 128,-1,35
 248 66 248 66 322 66 c 0,36,37
 387 66 387 66 446 94.5 c 128,-1,38
 505 123 505 123 547 173 c 128,-1,39
 589 223 589 223 606 283 c 1,40,-1
 689 700 l 1,41,-1
 758 700 l 1,42,-1
 618 0 l 1,43,-1
 549 0 l 1,44,-1
 578 143 l 1,45,46
 530 77 530 77 453 38.5 c 128,-1,47
 376 0 376 0 288 0 c 0,48,24
 196 0 196 0 141 54 c 128,-1,25
EndSplineSet
EndChar

StartChar: A.ss01
Encoding: 65543 -1 714
Width: 770
Flags: W
LayerCount: 2
Fore
SplineSet
649 645 m 128,-1,1
 712 588 712 588 712 486 c 0,2,3
 712 454 712 454 704 412 c 2,4,-1
 624 0 l 1,5,-1
 555 0 l 1,6,-1
 595 206 l 1,7,-1
 153 206 l 1,8,-1
 113 0 l 1,9,-1
 44 0 l 1,10,-1
 124 412 l 2,11,12
 150 547 150 547 242 624.5 c 128,-1,13
 334 702 334 702 470 702 c 0,14,0
 586 702 586 702 649 645 c 128,-1,1
641 473 m 0,16,17
 641 552 641 552 593.5 595.5 c 128,-1,18
 546 639 546 639 459 639 c 0,19,20
 355 639 355 639 284.5 579 c 128,-1,21
 214 519 214 519 193 412 c 2,22,-1
 165 269 l 1,23,-1
 607 269 l 1,24,-1
 635 412 l 2,25,15
 641 445 641 445 641 473 c 0,16,17
EndSplineSet
EndChar

StartChar: Aogonek.ss01
Encoding: 65564 -1 735
Width: 770
Flags: W
LayerCount: 2
Fore
SplineSet
649 645 m 128,-1,1
 712 588 712 588 712 486 c 0,2,3
 712 454 712 454 704 412 c 2,4,-1
 624 1 l 1,5,-1
 625 0 l 1,6,7
 554 -43 554 -43 524.5 -72 c 128,-1,8
 495 -101 495 -101 495 -131 c 0,9,10
 495 -146 495 -146 504 -154 c 128,-1,11
 513 -162 513 -162 527 -162 c 0,12,13
 552 -162 552 -162 576 -148 c 1,14,-1
 586 -194 l 1,15,16
 544 -215 544 -215 504 -215 c 0,17,18
 469 -215 469 -215 449 -198 c 128,-1,19
 429 -181 429 -181 429 -149 c 0,20,21
 429 -108 429 -108 459.5 -70 c 128,-1,22
 490 -32 490 -32 557 8 c 1,23,-1
 595 206 l 1,24,-1
 153 206 l 1,25,-1
 113 0 l 1,26,-1
 44 0 l 1,27,-1
 124 412 l 2,28,29
 150 547 150 547 242 624.5 c 128,-1,30
 334 702 334 702 470 702 c 0,31,0
 586 702 586 702 649 645 c 128,-1,1
641 473 m 0,33,34
 641 552 641 552 593.5 595.5 c 128,-1,35
 546 639 546 639 459 639 c 0,36,37
 355 639 355 639 284.5 579 c 128,-1,38
 214 519 214 519 193 412 c 2,39,-1
 165 269 l 1,40,-1
 607 269 l 1,41,-1
 635 412 l 2,42,32
 641 445 641 445 641 473 c 0,33,34
EndSplineSet
EndChar

StartChar: E.ss01
Encoding: 65570 -1 741
Width: 584
Flags: W
LayerCount: 2
Fore
SplineSet
518.5 694.5 m 128,-1,1
 570 683 570 683 600 666 c 1,2,-1
 566 611 l 1,3,4
 538 626 538 626 494.5 635.5 c 128,-1,5
 451 645 451 645 409 645 c 0,6,7
 351 645 351 645 303.5 626 c 128,-1,8
 256 607 256 607 228.5 574 c 128,-1,9
 201 541 201 541 201 502 c 0,10,11
 201 455 201 455 243 427 c 128,-1,12
 285 399 285 399 352 399 c 2,13,-1
 483 399 l 1,14,-1
 472 337 l 1,15,-1
 342 337 l 2,16,17
 278 337 278 337 224.5 316.5 c 128,-1,18
 171 296 171 296 139.5 259.5 c 128,-1,19
 108 223 108 223 108 178 c 0,20,21
 108 124 108 124 157 89.5 c 128,-1,22
 206 55 206 55 285 55 c 0,23,24
 331 55 331 55 390 69.5 c 128,-1,25
 449 84 449 84 492 105 c 1,26,-1
 509 50 l 1,27,28
 463 25 463 25 396 9.5 c 128,-1,29
 329 -6 329 -6 269 -6 c 0,30,31
 201 -6 201 -6 148 15.5 c 128,-1,32
 95 37 95 37 65.5 75.5 c 128,-1,33
 36 114 36 114 36 163 c 0,34,35
 36 213 36 213 65 257.5 c 128,-1,36
 94 302 94 302 143.5 332 c 128,-1,37
 193 362 193 362 253 371 c 1,38,39
 200 381 200 381 168.5 418 c 128,-1,40
 137 455 137 455 137 504 c 0,41,42
 137 561 137 561 174 607 c 128,-1,43
 211 653 211 653 274.5 679.5 c 128,-1,44
 338 706 338 706 416 706 c 0,45,0
 467 706 467 706 518.5 694.5 c 128,-1,1
EndSplineSet
EndChar

StartChar: uni1E1C.ss01
Encoding: 65574 -1 745
Width: 584
Flags: W
LayerCount: 2
Fore
SplineSet
317 793 m 128,-1,1
 289 821 289 821 289 866 c 0,2,3
 289 873 289 873 291 889 c 1,4,-1
 340 889 l 1,5,6
 339 885 339 885 339 876 c 0,7,8
 339 848 339 848 355.5 830.5 c 128,-1,9
 372 813 372 813 399 813 c 0,10,11
 430 813 430 813 455 835 c 128,-1,12
 480 857 480 857 488 889 c 1,13,-1
 537 889 l 1,14,15
 525 835 525 835 483.5 800 c 128,-1,16
 442 765 442 765 391 765 c 0,17,0
 345 765 345 765 317 793 c 128,-1,1
303.5 626 m 128,-1,19
 256 607 256 607 228.5 574 c 128,-1,20
 201 541 201 541 201 502 c 0,21,22
 201 455 201 455 243 427 c 128,-1,23
 285 399 285 399 352 399 c 2,24,-1
 483 399 l 1,25,-1
 472 337 l 1,26,-1
 342 337 l 2,27,28
 278 337 278 337 224.5 316.5 c 128,-1,29
 171 296 171 296 139.5 259.5 c 128,-1,30
 108 223 108 223 108 178 c 0,31,32
 108 124 108 124 157 89.5 c 128,-1,33
 206 55 206 55 285 55 c 0,34,35
 331 55 331 55 390 69.5 c 128,-1,36
 449 84 449 84 492 105 c 1,37,-1
 509 50 l 1,38,39
 467 28 467 28 406 12.5 c 128,-1,40
 345 -3 345 -3 288 -6 c 1,41,-1
 264 -52 l 1,42,43
 297 -56 297 -56 314 -74 c 128,-1,44
 331 -92 331 -92 331 -117 c 0,45,46
 331 -160 331 -160 296 -188 c 128,-1,47
 261 -216 261 -216 209 -216 c 0,48,49
 187 -216 187 -216 165 -210 c 128,-1,50
 143 -204 143 -204 127 -194 c 1,51,-1
 152 -148 l 1,52,53
 164 -155 164 -155 179.5 -159.5 c 128,-1,54
 195 -164 195 -164 210 -164 c 0,55,56
 238 -164 238 -164 255.5 -149.5 c 128,-1,57
 273 -135 273 -135 273 -117 c 0,58,59
 273 -102 273 -102 261 -92.5 c 128,-1,60
 249 -83 249 -83 227 -83 c 2,61,-1
 197 -83 l 1,62,-1
 235 -5 l 1,63,64
 146 3 146 3 91 48.5 c 128,-1,65
 36 94 36 94 36 162 c 0,66,67
 36 212 36 212 65 257 c 128,-1,68
 94 302 94 302 143.5 332 c 128,-1,69
 193 362 193 362 253 371 c 1,70,71
 200 381 200 381 168.5 418 c 128,-1,72
 137 455 137 455 137 504 c 0,73,74
 137 561 137 561 174 607 c 128,-1,75
 211 653 211 653 274.5 679.5 c 128,-1,76
 338 706 338 706 416 706 c 0,77,78
 467 706 467 706 518.5 694.5 c 128,-1,79
 570 683 570 683 600 666 c 1,80,-1
 566 611 l 1,81,82
 538 626 538 626 494.5 635.5 c 128,-1,83
 451 645 451 645 409 645 c 0,84,18
 351 645 351 645 303.5 626 c 128,-1,19
EndSplineSet
EndChar

StartChar: Eogonek.ss01
Encoding: 65591 -1 762
Width: 584
Flags: W
LayerCount: 2
Fore
SplineSet
303.5 626 m 128,-1,1
 256 607 256 607 228.5 574 c 128,-1,2
 201 541 201 541 201 502 c 0,3,4
 201 455 201 455 243 427 c 128,-1,5
 285 399 285 399 352 399 c 2,6,-1
 483 399 l 1,7,-1
 472 337 l 1,8,-1
 342 337 l 2,9,10
 278 337 278 337 224.5 316.5 c 128,-1,11
 171 296 171 296 139.5 259.5 c 128,-1,12
 108 223 108 223 108 178 c 0,13,14
 108 124 108 124 157 89.5 c 128,-1,15
 206 55 206 55 285 55 c 0,16,17
 331 55 331 55 390 69.5 c 128,-1,18
 449 84 449 84 492 105 c 1,19,-1
 509 50 l 1,20,21
 443 3 443 3 402 -46 c 128,-1,22
 361 -95 361 -95 361 -130 c 0,23,24
 361 -146 361 -146 369.5 -154 c 128,-1,25
 378 -162 378 -162 393 -162 c 0,26,27
 417 -162 417 -162 442 -148 c 1,28,-1
 451 -194 l 1,29,30
 409 -215 409 -215 369 -215 c 0,31,32
 335 -215 335 -215 315.5 -196 c 128,-1,33
 296 -177 296 -177 296 -143 c 0,34,35
 296 -72 296 -72 395 9 c 1,36,37
 325 -6 325 -6 269 -6 c 0,38,39
 201 -6 201 -6 148 15.5 c 128,-1,40
 95 37 95 37 65.5 75.5 c 128,-1,41
 36 114 36 114 36 163 c 0,42,43
 36 213 36 213 65 257.5 c 128,-1,44
 94 302 94 302 143.5 332 c 128,-1,45
 193 362 193 362 253 371 c 1,46,47
 200 381 200 381 168.5 418 c 128,-1,48
 137 455 137 455 137 504 c 0,49,50
 137 561 137 561 174 607 c 128,-1,51
 211 653 211 653 274.5 679.5 c 128,-1,52
 338 706 338 706 416 706 c 0,53,54
 467 706 467 706 518.5 694.5 c 128,-1,55
 570 683 570 683 600 666 c 1,56,-1
 566 611 l 1,57,58
 538 626 538 626 494.5 635.5 c 128,-1,59
 451 645 451 645 409 645 c 0,60,0
 351 645 351 645 303.5 626 c 128,-1,1
EndSplineSet
EndChar

StartChar: F.ss01
Encoding: 65593 -1 764
Width: 510
Flags: W
LayerCount: 2
Fore
SplineSet
271.5 597 m 128,-1,1
 221 554 221 554 207 486 c 2,2,-1
 182 360 l 1,3,-1
 465 360 l 1,4,-1
 453 297 l 1,5,-1
 169 297 l 1,6,-1
 110 0 l 1,7,-1
 42 0 l 1,8,-1
 141 493 l 2,9,10
 160 589 160 589 227 645.5 c 128,-1,11
 294 702 294 702 389 702 c 0,12,13
 441 702 441 702 491.5 690.5 c 128,-1,14
 542 679 542 679 580 659 c 1,15,-1
 553 599 l 1,16,17
 520 618 520 618 475 629 c 128,-1,18
 430 640 430 640 391 640 c 0,19,0
 322 640 322 640 271.5 597 c 128,-1,1
EndSplineSet
EndChar

